<svg width="124" height="78" viewBox="0 0 124 78" fill="none" xmlns="http://www.w3.org/2000/svg">
<path d="M0.674344 9V0.84H3.07434C3.85834 0.84 4.43434 1.032 4.80234 1.416C5.17834 1.792 5.36634 2.3 5.36634 2.94V3.204C5.36634 3.556 5.28634 3.868 5.12634 4.14C4.96634 4.412 4.73434 4.628 4.43034 4.788C4.85434 4.924 5.17434 5.148 5.39034 5.46C5.61434 5.764 5.72634 6.132 5.72634 6.564V6.828C5.72634 7.484 5.53434 8.012 5.15034 8.412C4.77434 8.804 4.18234 9 3.37434 9H0.674344ZM3.07434 1.8H1.71834V4.38H3.07434C3.47434 4.38 3.77434 4.28 3.97434 4.08C4.18234 3.872 4.28634 3.588 4.28634 3.228V2.94C4.28634 2.588 4.18234 2.312 3.97434 2.112C3.77434 1.904 3.47434 1.8 3.07434 1.8ZM3.37434 5.34H1.71834V8.052H3.37434C3.79834 8.052 4.11434 7.944 4.32234 7.728C4.53834 7.512 4.64634 7.212 4.64634 6.828V6.54C4.64634 6.172 4.53834 5.88 4.32234 5.664C4.11434 5.448 3.79834 5.34 3.37434 5.34ZM10.8979 9V8.16C10.4819 8.52 10.1099 8.772 9.78188 8.916C9.45388 9.052 9.12588 9.12 8.79788 9.12C8.26988 9.12 7.86588 8.948 7.58588 8.604C7.30588 8.252 7.16588 7.76 7.16588 7.128V3.06H8.14988V6.984C8.14988 7.4 8.22188 7.708 8.36588 7.908C8.51788 8.1 8.74188 8.196 9.03788 8.196C9.26188 8.196 9.51388 8.14 9.79388 8.028C10.0739 7.916 10.4219 7.692 10.8379 7.356V3.06H11.8219V9H10.8979ZM14.745 1.608H13.641V0.504H14.745V1.608ZM14.685 9H13.701V3.06H14.685V9ZM16.5545 7.56V0.12H17.5385V7.512C17.5385 7.728 17.5705 7.892 17.6345 8.004C17.7065 8.108 17.8465 8.16 18.0545 8.16H18.2465V9.06H17.9705C17.4425 9.06 17.0745 8.92 16.8665 8.64C16.6585 8.36 16.5545 8 16.5545 7.56ZM23.1025 9V8.172C22.7345 8.524 22.3985 8.772 22.0945 8.916C21.7985 9.052 21.4905 9.12 21.1705 9.12C20.5385 9.12 20.0505 8.88 19.7065 8.4C19.3705 7.92 19.2025 7.248 19.2025 6.384V5.688C19.2025 4.848 19.4105 4.18 19.8265 3.684C20.2505 3.188 20.8625 2.94 21.6625 2.94C21.8945 2.94 22.1265 2.964 22.3585 3.012C22.5905 3.06 22.8225 3.128 23.0545 3.216V0.12H24.0385V9H23.1025ZM20.2225 6.384C20.2225 7.008 20.3185 7.468 20.5105 7.764C20.7105 8.052 21.0065 8.196 21.3985 8.196C21.6305 8.196 21.8705 8.14 22.1185 8.028C22.3665 7.908 22.6785 7.664 23.0545 7.296V4.128C22.8225 4.024 22.5985 3.952 22.3825 3.912C22.1665 3.864 21.9545 3.84 21.7465 3.84C21.2025 3.84 20.8105 4.004 20.5705 4.332C20.3385 4.66 20.2225 5.112 20.2225 5.688V6.384ZM27.3705 8.244C28.1705 8.244 28.5705 7.972 28.5705 7.428C28.5705 7.196 28.4985 7.012 28.3545 6.876C28.2105 6.74 27.9465 6.624 27.5625 6.528L26.9025 6.36C26.4145 6.24 26.0505 6.032 25.8105 5.736C25.5705 5.432 25.4505 5.072 25.4505 4.656C25.4505 4.352 25.5185 4.072 25.6545 3.816C25.7905 3.552 26.0065 3.34 26.3025 3.18C26.5985 3.02 26.9825 2.94 27.4545 2.94C27.7585 2.94 28.0665 2.976 28.3785 3.048C28.6985 3.112 29.0225 3.224 29.3505 3.384L29.0385 4.212C28.4545 3.948 27.9265 3.816 27.4545 3.816C26.7585 3.816 26.4105 4.076 26.4105 4.596C26.4105 4.796 26.4745 4.968 26.6025 5.112C26.7305 5.256 26.9705 5.372 27.3225 5.46L27.9825 5.628C28.5105 5.756 28.8985 5.964 29.1465 6.252C29.3945 6.54 29.5185 6.912 29.5185 7.368C29.5185 7.696 29.4465 7.996 29.3025 8.268C29.1665 8.532 28.9425 8.74 28.6305 8.892C28.3265 9.044 27.9145 9.12 27.3945 9.12C27.0505 9.12 26.7065 9.084 26.3625 9.012C26.0265 8.94 25.6785 8.824 25.3185 8.664L25.5825 7.848C25.9265 7.984 26.2385 8.084 26.5185 8.148C26.7985 8.212 27.0825 8.244 27.3705 8.244ZM37.9237 5.664V6.384C37.9237 7.232 37.7037 7.9 37.2637 8.388C36.8317 8.876 36.2117 9.12 35.4037 9.12C34.6037 9.12 33.9837 8.876 33.5437 8.388C33.1037 7.9 32.8837 7.232 32.8837 6.384V5.664C32.8837 4.832 33.0997 4.172 33.5317 3.684C33.9717 3.188 34.5957 2.94 35.4037 2.94C36.2117 2.94 36.8317 3.188 37.2637 3.684C37.7037 4.172 37.9237 4.832 37.9237 5.664ZM36.9037 5.664C36.9037 5.096 36.7757 4.652 36.5197 4.332C36.2637 4.004 35.8917 3.84 35.4037 3.84C34.9237 3.84 34.5517 4.004 34.2877 4.332C34.0317 4.652 33.9037 5.096 33.9037 5.664V6.384C33.9037 6.976 34.0317 7.432 34.2877 7.752C34.5517 8.072 34.9237 8.232 35.4037 8.232C35.8917 8.232 36.2637 8.072 36.5197 7.752C36.7757 7.432 36.9037 6.976 36.9037 6.384V5.664ZM42.3279 3.864C42.1039 3.864 41.8399 3.92 41.5359 4.032C41.2399 4.144 40.8799 4.372 40.4559 4.716V9H39.4719V3.06H40.4079V3.888C40.8319 3.528 41.2159 3.28 41.5599 3.144C41.9119 3.008 42.2479 2.94 42.5679 2.94C43.1199 2.94 43.5399 3.116 43.8279 3.468C44.1239 3.812 44.2719 4.304 44.2719 4.944V9H43.2879V5.088C43.2879 4.272 42.9679 3.864 42.3279 3.864ZM51.7247 8.784C51.2767 9.008 50.8007 9.12 50.2967 9.12C49.8647 9.12 49.5247 9.032 49.2767 8.856C49.0367 8.68 48.8647 8.444 48.7607 8.148C48.6647 7.852 48.6167 7.524 48.6167 7.164V3.924H47.5847V3.06H48.6167V1.404H49.6007V3.06H51.5447V3.924H49.6007V7.128C49.6007 7.544 49.6687 7.832 49.8047 7.992C49.9487 8.144 50.1687 8.22 50.4647 8.22C50.6087 8.22 50.7567 8.204 50.9087 8.172C51.0687 8.132 51.2407 8.068 51.4247 7.98L51.7247 8.784ZM57.4833 5.664V6.384C57.4833 7.232 57.2633 7.9 56.8233 8.388C56.3913 8.876 55.7713 9.12 54.9633 9.12C54.1633 9.12 53.5433 8.876 53.1033 8.388C52.6633 7.9 52.4433 7.232 52.4433 6.384V5.664C52.4433 4.832 52.6593 4.172 53.0913 3.684C53.5313 3.188 54.1553 2.94 54.9633 2.94C55.7713 2.94 56.3913 3.188 56.8233 3.684C57.2633 4.172 57.4833 4.832 57.4833 5.664ZM56.4633 5.664C56.4633 5.096 56.3353 4.652 56.0793 4.332C55.8233 4.004 55.4513 3.84 54.9633 3.84C54.4833 3.84 54.1113 4.004 53.8473 4.332C53.5913 4.652 53.4633 5.096 53.4633 5.664V6.384C53.4633 6.976 53.5913 7.432 53.8473 7.752C54.1113 8.072 54.4833 8.232 54.9633 8.232C55.4513 8.232 55.8233 8.072 56.0793 7.752C56.3353 7.432 56.4633 6.976 56.4633 6.384V5.664ZM61.4075 9.12C60.9595 9.12 60.4955 9.028 60.0155 8.844V11.556H59.0315V3.06H59.9675V3.9C60.3355 3.548 60.6715 3.3 60.9755 3.156C61.2795 3.012 61.5915 2.94 61.9115 2.94C62.5435 2.94 63.0275 3.18 63.3635 3.66C63.7075 4.14 63.8795 4.816 63.8795 5.688V6.384C63.8795 7.216 63.6675 7.88 63.2435 8.376C62.8275 8.872 62.2155 9.12 61.4075 9.12ZM61.6715 3.864C61.4395 3.864 61.1995 3.924 60.9515 4.044C60.7035 4.164 60.3915 4.408 60.0155 4.776V7.944C60.2475 8.048 60.4715 8.124 60.6875 8.172C60.9035 8.212 61.1155 8.232 61.3235 8.232C61.8675 8.232 62.2595 8.068 62.4995 7.74C62.7395 7.404 62.8595 6.952 62.8595 6.384V5.688C62.8595 5.064 62.7595 4.604 62.5595 4.308C62.3675 4.012 62.0715 3.864 61.6715 3.864ZM72.5367 5.664V6.384C72.5367 7.232 72.3167 7.9 71.8767 8.388C71.4447 8.876 70.8247 9.12 70.0167 9.12C69.2167 9.12 68.5967 8.876 68.1567 8.388C67.7167 7.9 67.4967 7.232 67.4967 6.384V5.664C67.4967 4.832 67.7127 4.172 68.1447 3.684C68.5847 3.188 69.2087 2.94 70.0167 2.94C70.8247 2.94 71.4447 3.188 71.8767 3.684C72.3167 4.172 72.5367 4.832 72.5367 5.664ZM71.5167 5.664C71.5167 5.096 71.3887 4.652 71.1327 4.332C70.8767 4.004 70.5047 3.84 70.0167 3.84C69.5367 3.84 69.1647 4.004 68.9007 4.332C68.6447 4.652 68.5167 5.096 68.5167 5.664V6.384C68.5167 6.976 68.6447 7.432 68.9007 7.752C69.1647 8.072 69.5367 8.232 70.0167 8.232C70.5047 8.232 70.8767 8.072 71.1327 7.752C71.3887 7.432 71.5167 6.976 71.5167 6.384V5.664ZM77.2049 3.924H75.2609V9H74.2769V3.924H73.2449V3.06H74.2769V2.076C74.2769 1.708 74.3369 1.368 74.4569 1.056C74.5849 0.736 74.7889 0.48 75.0689 0.288C75.3489 0.0959995 75.7209 -7.15256e-07 76.1849 -7.15256e-07C76.4169 -7.15256e-07 76.6609 0.0279994 76.9169 0.0839996C77.1809 0.131999 77.4249 0.207999 77.6489 0.312L77.3729 1.14C76.9649 0.98 76.6089 0.9 76.3049 0.9C75.9689 0.9 75.7089 0.992 75.5249 1.176C75.3489 1.36 75.2609 1.656 75.2609 2.064V3.06H77.2049V3.924ZM81.8655 8.244C82.6655 8.244 83.0655 7.972 83.0655 7.428C83.0655 7.196 82.9935 7.012 82.8495 6.876C82.7055 6.74 82.4415 6.624 82.0575 6.528L81.3975 6.36C80.9095 6.24 80.5455 6.032 80.3055 5.736C80.0655 5.432 79.9455 5.072 79.9455 4.656C79.9455 4.352 80.0135 4.072 80.1495 3.816C80.2855 3.552 80.5015 3.34 80.7975 3.18C81.0935 3.02 81.4775 2.94 81.9495 2.94C82.2535 2.94 82.5615 2.976 82.8735 3.048C83.1935 3.112 83.5175 3.224 83.8455 3.384L83.5335 4.212C82.9495 3.948 82.4215 3.816 81.9495 3.816C81.2535 3.816 80.9055 4.076 80.9055 4.596C80.9055 4.796 80.9695 4.968 81.0975 5.112C81.2255 5.256 81.4655 5.372 81.8175 5.46L82.4775 5.628C83.0055 5.756 83.3935 5.964 83.6415 6.252C83.8895 6.54 84.0135 6.912 84.0135 7.368C84.0135 7.696 83.9415 7.996 83.7975 8.268C83.6615 8.532 83.4375 8.74 83.1255 8.892C82.8215 9.044 82.4095 9.12 81.8895 9.12C81.5455 9.12 81.2015 9.084 80.8575 9.012C80.5215 8.94 80.1735 8.824 79.8135 8.664L80.0775 7.848C80.4215 7.984 80.7335 8.084 81.0135 8.148C81.2935 8.212 81.5775 8.244 81.8655 8.244ZM88.6055 8.784C88.1575 9.008 87.6815 9.12 87.1775 9.12C86.7455 9.12 86.4055 9.032 86.1575 8.856C85.9175 8.68 85.7455 8.444 85.6415 8.148C85.5455 7.852 85.4975 7.524 85.4975 7.164V3.924H84.4655V3.06H85.4975V1.404H86.4815V3.06H88.4255V3.924H86.4815V7.128C86.4815 7.544 86.5495 7.832 86.6855 7.992C86.8295 8.144 87.0495 8.22 87.3455 8.22C87.4895 8.22 87.6375 8.204 87.7895 8.172C87.9495 8.132 88.1215 8.068 88.3055 7.98L88.6055 8.784ZM94.0041 9.06C93.6361 9.06 93.3401 8.976 93.1161 8.808C92.9001 8.64 92.7481 8.432 92.6601 8.184C92.2681 8.528 91.9121 8.772 91.5921 8.916C91.2721 9.052 90.9521 9.12 90.6321 9.12C90.1121 9.12 89.7281 8.952 89.4801 8.616C89.2321 8.28 89.1081 7.868 89.1081 7.38C89.1081 7.052 89.1681 6.76 89.2881 6.504C89.4081 6.248 89.6121 6.048 89.9001 5.904C90.1881 5.752 90.5761 5.676 91.0641 5.676C91.2801 5.676 91.5161 5.692 91.7721 5.724C92.0281 5.748 92.2881 5.78 92.5521 5.82V5.016C92.5521 4.568 92.4521 4.264 92.2521 4.104C92.0601 3.936 91.7761 3.852 91.4001 3.852C90.8881 3.852 90.3161 3.992 89.6841 4.272L89.3721 3.456C89.7401 3.288 90.0921 3.16 90.4281 3.072C90.7641 2.984 91.1041 2.94 91.4481 2.94C92.0081 2.94 92.4361 3.032 92.7321 3.216C93.0281 3.4 93.2321 3.644 93.3441 3.948C93.4561 4.252 93.5121 4.584 93.5121 4.944V7.512C93.5121 7.696 93.5481 7.852 93.6201 7.98C93.6921 8.1 93.8361 8.16 94.0521 8.16H94.1841V9.06H94.0041ZM90.0801 7.368C90.0801 7.64 90.1441 7.86 90.2721 8.028C90.4001 8.196 90.5841 8.28 90.8241 8.28C91.0321 8.28 91.2721 8.22 91.5441 8.1C91.8161 7.972 92.1521 7.72 92.5521 7.344V6.588C92.0081 6.5 91.5281 6.456 91.1121 6.456C90.7441 6.456 90.4801 6.532 90.3201 6.684C90.1601 6.836 90.0801 7.064 90.0801 7.368ZM98.194 3.864C97.97 3.864 97.706 3.92 97.402 4.032C97.106 4.144 96.746 4.372 96.322 4.716V9H95.338V3.06H96.274V3.888C96.698 3.528 97.082 3.28 97.426 3.144C97.778 3.008 98.114 2.94 98.434 2.94C98.986 2.94 99.406 3.116 99.694 3.468C99.99 3.812 100.138 4.304 100.138 4.944V9H99.154V5.088C99.154 4.272 98.834 3.864 98.194 3.864ZM105.565 9V8.172C105.197 8.524 104.861 8.772 104.557 8.916C104.261 9.052 103.953 9.12 103.633 9.12C103.001 9.12 102.513 8.88 102.169 8.4C101.833 7.92 101.665 7.248 101.665 6.384V5.688C101.665 4.848 101.873 4.18 102.289 3.684C102.713 3.188 103.325 2.94 104.125 2.94C104.357 2.94 104.589 2.964 104.821 3.012C105.053 3.06 105.285 3.128 105.517 3.216V0.12H106.501V9H105.565ZM102.685 6.384C102.685 7.008 102.781 7.468 102.973 7.764C103.173 8.052 103.469 8.196 103.861 8.196C104.093 8.196 104.333 8.14 104.581 8.028C104.829 7.908 105.141 7.664 105.517 7.296V4.128C105.285 4.024 105.061 3.952 104.845 3.912C104.629 3.864 104.417 3.84 104.209 3.84C103.665 3.84 103.273 4.004 103.033 4.332C102.801 4.66 102.685 5.112 102.685 5.688V6.384ZM112.725 9.06C112.357 9.06 112.061 8.976 111.837 8.808C111.621 8.64 111.469 8.432 111.381 8.184C110.989 8.528 110.633 8.772 110.313 8.916C109.993 9.052 109.673 9.12 109.353 9.12C108.833 9.12 108.449 8.952 108.201 8.616C107.953 8.28 107.829 7.868 107.829 7.38C107.829 7.052 107.889 6.76 108.009 6.504C108.129 6.248 108.333 6.048 108.621 5.904C108.909 5.752 109.297 5.676 109.785 5.676C110.001 5.676 110.237 5.692 110.493 5.724C110.749 5.748 111.009 5.78 111.273 5.82V5.016C111.273 4.568 111.173 4.264 110.973 4.104C110.781 3.936 110.497 3.852 110.121 3.852C109.609 3.852 109.037 3.992 108.405 4.272L108.093 3.456C108.461 3.288 108.813 3.16 109.149 3.072C109.485 2.984 109.825 2.94 110.169 2.94C110.729 2.94 111.157 3.032 111.453 3.216C111.749 3.4 111.953 3.644 112.065 3.948C112.177 4.252 112.233 4.584 112.233 4.944V7.512C112.233 7.696 112.269 7.852 112.341 7.98C112.413 8.1 112.557 8.16 112.773 8.16H112.905V9.06H112.725ZM108.801 7.368C108.801 7.64 108.865 7.86 108.993 8.028C109.121 8.196 109.305 8.28 109.545 8.28C109.753 8.28 109.993 8.22 110.265 8.1C110.537 7.972 110.873 7.72 111.273 7.344V6.588C110.729 6.5 110.249 6.456 109.833 6.456C109.465 6.456 109.201 6.532 109.041 6.684C108.881 6.836 108.801 7.064 108.801 7.368ZM117.179 3.924C116.819 3.924 116.467 3.988 116.123 4.116C115.787 4.244 115.427 4.488 115.043 4.848V9H114.059V3.06H114.995V4.02C115.403 3.62 115.775 3.34 116.111 3.18C116.455 3.02 116.811 2.94 117.179 2.94V3.924ZM121.838 9V8.172C121.47 8.524 121.134 8.772 120.83 8.916C120.534 9.052 120.226 9.12 119.906 9.12C119.274 9.12 118.786 8.88 118.442 8.4C118.106 7.92 117.938 7.248 117.938 6.384V5.688C117.938 4.848 118.146 4.18 118.562 3.684C118.986 3.188 119.598 2.94 120.398 2.94C120.63 2.94 120.862 2.964 121.094 3.012C121.326 3.06 121.558 3.128 121.79 3.216V0.12H122.774V9H121.838ZM118.958 6.384C118.958 7.008 119.054 7.468 119.246 7.764C119.446 8.052 119.742 8.196 120.134 8.196C120.366 8.196 120.606 8.14 120.854 8.028C121.102 7.908 121.414 7.664 121.79 7.296V4.128C121.558 4.024 121.334 3.952 121.118 3.912C120.902 3.864 120.69 3.84 120.482 3.84C119.938 3.84 119.546 4.004 119.306 4.332C119.074 4.66 118.958 5.112 118.958 5.688V6.384ZM5.10375 26V22.364H1.53975V26H0.495751V17.84H1.53975V21.38H5.10375V17.84H6.14775V26H5.10375ZM7.33116 18.824V17.84H13.1272V18.824H10.7512V26H9.70716V18.824H7.33116ZM15.5366 17.84L18.0206 23.888L20.5166 17.84H21.7046V26H20.6846V22.508L20.8166 19.364L18.4766 25.04H17.4926L15.2006 19.34L15.3326 22.508V26H14.3126V17.84H15.5366ZM28.4858 25.028V26H24.0218V17.84H25.0658V25.028H28.4858ZM30.2242 24.908V25.136C30.2242 25.72 30.1522 26.276 30.0082 26.804C29.8642 27.332 29.6042 27.896 29.2282 28.496L28.5802 28.136C28.7802 27.752 28.9242 27.4 29.0122 27.08C29.1082 26.768 29.1682 26.44 29.1922 26.096C29.2242 25.76 29.2402 25.364 29.2402 24.908H30.2242ZM35.002 22.82C35.002 23.572 35.15 24.152 35.446 24.56C35.75 24.96 36.214 25.16 36.838 25.16C37.11 25.16 37.378 25.128 37.642 25.064C37.906 25 38.222 24.888 38.59 24.728L38.938 25.616C38.546 25.792 38.174 25.92 37.822 26C37.47 26.08 37.13 26.12 36.802 26.12C35.858 26.12 35.142 25.824 34.654 25.232C34.166 24.64 33.922 23.836 33.922 22.82V21.02C33.922 20.004 34.166 19.2 34.654 18.608C35.142 18.016 35.858 17.72 36.802 17.72C37.13 17.72 37.47 17.76 37.822 17.84C38.182 17.92 38.546 18.048 38.914 18.224L38.578 19.124C37.93 18.836 37.35 18.692 36.838 18.692C36.214 18.692 35.75 18.892 35.446 19.292C35.15 19.692 35.002 20.268 35.002 21.02V22.82ZM42.0736 25.184C42.5776 25.184 42.9656 25.076 43.2376 24.86C43.5096 24.636 43.6456 24.312 43.6456 23.888C43.6456 23.536 43.5496 23.24 43.3576 23C43.1736 22.76 42.8696 22.576 42.4456 22.448L41.4736 22.16C40.8656 21.976 40.4176 21.7 40.1296 21.332C39.8416 20.956 39.6976 20.496 39.6976 19.952C39.6976 19.536 39.7776 19.16 39.9376 18.824C40.1056 18.488 40.3696 18.22 40.7296 18.02C41.0976 17.82 41.5776 17.72 42.1696 17.72C42.5296 17.72 42.9016 17.764 43.2856 17.852C43.6696 17.932 44.0576 18.064 44.4496 18.248L44.1136 19.148C43.7296 18.98 43.3816 18.86 43.0696 18.788C42.7656 18.708 42.4736 18.668 42.1936 18.668C41.7376 18.668 41.3816 18.764 41.1256 18.956C40.8776 19.14 40.7536 19.448 40.7536 19.88C40.7536 20.192 40.8376 20.456 41.0056 20.672C41.1736 20.88 41.4736 21.052 41.9056 21.188L42.8776 21.476C44.0936 21.836 44.7016 22.612 44.7016 23.804C44.7016 24.492 44.4936 25.052 44.0776 25.484C43.6616 25.908 42.9936 26.12 42.0736 26.12C41.6976 26.12 41.2976 26.076 40.8736 25.988C40.4576 25.892 40.0256 25.744 39.5776 25.544L39.9016 24.656C40.3256 24.848 40.7056 24.984 41.0416 25.064C41.3856 25.144 41.7296 25.184 42.0736 25.184ZM47.9039 25.184C48.4079 25.184 48.7959 25.076 49.0679 24.86C49.3399 24.636 49.4759 24.312 49.4759 23.888C49.4759 23.536 49.3799 23.24 49.1879 23C49.0039 22.76 48.6999 22.576 48.2759 22.448L47.3039 22.16C46.6959 21.976 46.2479 21.7 45.9599 21.332C45.6719 20.956 45.5279 20.496 45.5279 19.952C45.5279 19.536 45.6079 19.16 45.7679 18.824C45.9359 18.488 46.1999 18.22 46.5599 18.02C46.9279 17.82 47.4079 17.72 47.9999 17.72C48.3599 17.72 48.7319 17.764 49.1159 17.852C49.4999 17.932 49.8879 18.064 50.2799 18.248L49.9439 19.148C49.5599 18.98 49.2119 18.86 48.8999 18.788C48.5959 18.708 48.3039 18.668 48.0239 18.668C47.5679 18.668 47.2119 18.764 46.9559 18.956C46.7079 19.14 46.5839 19.448 46.5839 19.88C46.5839 20.192 46.6679 20.456 46.8359 20.672C47.0039 20.88 47.3039 21.052 47.7359 21.188L48.7079 21.476C49.9239 21.836 50.5319 22.612 50.5319 23.804C50.5319 24.492 50.3239 25.052 49.9079 25.484C49.4919 25.908 48.8239 26.12 47.9039 26.12C47.5279 26.12 47.1279 26.076 46.7039 25.988C46.2879 25.892 45.8559 25.744 45.4079 25.544L45.7319 24.656C46.1559 24.848 46.5359 24.984 46.8719 25.064C47.2159 25.144 47.5599 25.184 47.9039 25.184ZM58.5675 26.06C58.1995 26.06 57.9035 25.976 57.6795 25.808C57.4635 25.64 57.3115 25.432 57.2235 25.184C56.8315 25.528 56.4755 25.772 56.1555 25.916C55.8355 26.052 55.5155 26.12 55.1955 26.12C54.6755 26.12 54.2915 25.952 54.0435 25.616C53.7955 25.28 53.6715 24.868 53.6715 24.38C53.6715 24.052 53.7315 23.76 53.8515 23.504C53.9715 23.248 54.1755 23.048 54.4635 22.904C54.7515 22.752 55.1395 22.676 55.6275 22.676C55.8435 22.676 56.0795 22.692 56.3355 22.724C56.5915 22.748 56.8515 22.78 57.1155 22.82V22.016C57.1155 21.568 57.0155 21.264 56.8155 21.104C56.6235 20.936 56.3395 20.852 55.9635 20.852C55.4515 20.852 54.8795 20.992 54.2475 21.272L53.9355 20.456C54.3035 20.288 54.6555 20.16 54.9915 20.072C55.3275 19.984 55.6675 19.94 56.0115 19.94C56.5715 19.94 56.9995 20.032 57.2955 20.216C57.5915 20.4 57.7955 20.644 57.9075 20.948C58.0195 21.252 58.0755 21.584 58.0755 21.944V24.512C58.0755 24.696 58.1115 24.852 58.1835 24.98C58.2555 25.1 58.3995 25.16 58.6155 25.16H58.7475V26.06H58.5675ZM54.6435 24.368C54.6435 24.64 54.7075 24.86 54.8355 25.028C54.9635 25.196 55.1475 25.28 55.3875 25.28C55.5955 25.28 55.8355 25.22 56.1075 25.1C56.3795 24.972 56.7155 24.72 57.1155 24.344V23.588C56.5715 23.5 56.0915 23.456 55.6755 23.456C55.3075 23.456 55.0435 23.532 54.8835 23.684C54.7235 23.836 54.6435 24.064 54.6435 24.368ZM62.7575 20.864C62.5335 20.864 62.2695 20.92 61.9655 21.032C61.6695 21.144 61.3095 21.372 60.8855 21.716V26H59.9015V20.06H60.8375V20.888C61.2615 20.528 61.6455 20.28 61.9895 20.144C62.3415 20.008 62.6775 19.94 62.9975 19.94C63.5495 19.94 63.9695 20.116 64.2575 20.468C64.5535 20.812 64.7015 21.304 64.7015 21.944V26H63.7175V22.088C63.7175 21.272 63.3975 20.864 62.7575 20.864ZM70.1289 26V25.172C69.7609 25.524 69.4249 25.772 69.1209 25.916C68.8249 26.052 68.5169 26.12 68.1969 26.12C67.5649 26.12 67.0769 25.88 66.7329 25.4C66.3969 24.92 66.2289 24.248 66.2289 23.384V22.688C66.2289 21.848 66.4369 21.18 66.8529 20.684C67.2769 20.188 67.8889 19.94 68.6889 19.94C68.9209 19.94 69.1529 19.964 69.3849 20.012C69.6169 20.06 69.8489 20.128 70.0809 20.216V17.12H71.0649V26H70.1289ZM67.2489 23.384C67.2489 24.008 67.3449 24.468 67.5369 24.764C67.7369 25.052 68.0329 25.196 68.4249 25.196C68.6569 25.196 68.8969 25.14 69.1449 25.028C69.3929 24.908 69.7049 24.664 70.0809 24.296V21.128C69.8489 21.024 69.6249 20.952 69.4089 20.912C69.1929 20.864 68.9809 20.84 68.7729 20.84C68.2289 20.84 67.8369 21.004 67.5969 21.332C67.3649 21.66 67.2489 22.112 67.2489 22.688V23.384ZM74.5862 26.084V25.088C75.2342 25.088 75.7062 24.956 76.0022 24.692C76.3062 24.428 76.4582 23.968 76.4582 23.312V17.84H77.5022V23.312C77.5022 23.856 77.4142 24.34 77.2382 24.764C77.0702 25.18 76.7742 25.504 76.3502 25.736C75.9342 25.968 75.3462 26.084 74.5862 26.084ZM83.7816 26.06C83.4136 26.06 83.1176 25.976 82.8936 25.808C82.6776 25.64 82.5256 25.432 82.4376 25.184C82.0456 25.528 81.6896 25.772 81.3696 25.916C81.0496 26.052 80.7296 26.12 80.4096 26.12C79.8896 26.12 79.5056 25.952 79.2576 25.616C79.0096 25.28 78.8856 24.868 78.8856 24.38C78.8856 24.052 78.9456 23.76 79.0656 23.504C79.1856 23.248 79.3896 23.048 79.6776 22.904C79.9656 22.752 80.3536 22.676 80.8416 22.676C81.0576 22.676 81.2936 22.692 81.5496 22.724C81.8056 22.748 82.0656 22.78 82.3296 22.82V22.016C82.3296 21.568 82.2296 21.264 82.0296 21.104C81.8376 20.936 81.5536 20.852 81.1776 20.852C80.6656 20.852 80.0936 20.992 79.4616 21.272L79.1496 20.456C79.5176 20.288 79.8696 20.16 80.2056 20.072C80.5416 19.984 80.8816 19.94 81.2256 19.94C81.7856 19.94 82.2136 20.032 82.5096 20.216C82.8056 20.4 83.0096 20.644 83.1216 20.948C83.2336 21.252 83.2896 21.584 83.2896 21.944V24.512C83.2896 24.696 83.3256 24.852 83.3976 24.98C83.4696 25.1 83.6136 25.16 83.8296 25.16H83.9616V26.06H83.7816ZM79.8576 24.368C79.8576 24.64 79.9216 24.86 80.0496 25.028C80.1776 25.196 80.3616 25.28 80.6016 25.28C80.8096 25.28 81.0496 25.22 81.3216 25.1C81.5936 24.972 81.9296 24.72 82.3296 24.344V23.588C81.7856 23.5 81.3056 23.456 80.8896 23.456C80.5216 23.456 80.2576 23.532 80.0976 23.684C79.9376 23.836 79.8576 24.064 79.8576 24.368ZM89.3189 20.06L87.2189 26H86.2949L84.1709 20.06H85.1909L86.1869 22.952L86.7869 24.764L87.3749 22.952L88.3469 20.06H89.3189ZM94.7391 26.06C94.3711 26.06 94.0751 25.976 93.8511 25.808C93.6351 25.64 93.4831 25.432 93.3951 25.184C93.0031 25.528 92.6471 25.772 92.3271 25.916C92.0071 26.052 91.6871 26.12 91.3671 26.12C90.8471 26.12 90.4631 25.952 90.2151 25.616C89.9671 25.28 89.8431 24.868 89.8431 24.38C89.8431 24.052 89.9031 23.76 90.0231 23.504C90.1431 23.248 90.3471 23.048 90.6351 22.904C90.9231 22.752 91.3111 22.676 91.7991 22.676C92.0151 22.676 92.2511 22.692 92.5071 22.724C92.7631 22.748 93.0231 22.78 93.2871 22.82V22.016C93.2871 21.568 93.1871 21.264 92.9871 21.104C92.7951 20.936 92.5111 20.852 92.1351 20.852C91.6231 20.852 91.0511 20.992 90.4191 21.272L90.1071 20.456C90.4751 20.288 90.8271 20.16 91.1631 20.072C91.4991 19.984 91.8391 19.94 92.1831 19.94C92.7431 19.94 93.1711 20.032 93.4671 20.216C93.7631 20.4 93.9671 20.644 94.0791 20.948C94.1911 21.252 94.2471 21.584 94.2471 21.944V24.512C94.2471 24.696 94.2831 24.852 94.3551 24.98C94.4271 25.1 94.5711 25.16 94.7871 25.16H94.9191V26.06H94.7391ZM90.8151 24.368C90.8151 24.64 90.8791 24.86 91.0071 25.028C91.1351 25.196 91.3191 25.28 91.5591 25.28C91.7671 25.28 92.0071 25.22 92.2791 25.1C92.5511 24.972 92.8871 24.72 93.2871 24.344V23.588C92.7431 23.5 92.2631 23.456 91.8471 23.456C91.4791 23.456 91.2151 23.532 91.0551 23.684C90.8951 23.836 90.8151 24.064 90.8151 24.368ZM97.957 25.184C98.461 25.184 98.849 25.076 99.121 24.86C99.393 24.636 99.529 24.312 99.529 23.888C99.529 23.536 99.433 23.24 99.241 23C99.057 22.76 98.753 22.576 98.329 22.448L97.357 22.16C96.749 21.976 96.301 21.7 96.013 21.332C95.725 20.956 95.581 20.496 95.581 19.952C95.581 19.536 95.661 19.16 95.821 18.824C95.989 18.488 96.253 18.22 96.613 18.02C96.981 17.82 97.461 17.72 98.053 17.72C98.413 17.72 98.785 17.764 99.169 17.852C99.553 17.932 99.941 18.064 100.333 18.248L99.997 19.148C99.613 18.98 99.265 18.86 98.953 18.788C98.649 18.708 98.357 18.668 98.077 18.668C97.621 18.668 97.265 18.764 97.009 18.956C96.761 19.14 96.637 19.448 96.637 19.88C96.637 20.192 96.721 20.456 96.889 20.672C97.057 20.88 97.357 21.052 97.789 21.188L98.761 21.476C99.977 21.836 100.585 22.612 100.585 23.804C100.585 24.492 100.377 25.052 99.961 25.484C99.545 25.908 98.877 26.12 97.957 26.12C97.581 26.12 97.181 26.076 96.757 25.988C96.341 25.892 95.909 25.744 95.461 25.544L95.785 24.656C96.209 24.848 96.589 24.984 96.925 25.064C97.269 25.144 97.613 25.184 97.957 25.184ZM102.599 22.676V23.384C102.599 23.992 102.711 24.452 102.935 24.764C103.159 25.068 103.515 25.22 104.003 25.22C104.483 25.22 104.999 25.096 105.551 24.848L105.851 25.676C105.195 25.972 104.559 26.12 103.943 26.12C103.175 26.12 102.591 25.876 102.191 25.388C101.791 24.9 101.591 24.232 101.591 23.384V22.676C101.591 21.828 101.791 21.16 102.191 20.672C102.591 20.184 103.175 19.94 103.943 19.94C104.231 19.94 104.527 19.98 104.831 20.06C105.143 20.132 105.455 20.236 105.767 20.372L105.467 21.212C105.203 21.1 104.947 21.012 104.699 20.948C104.459 20.884 104.227 20.852 104.003 20.852C103.515 20.852 103.159 21.008 102.935 21.32C102.711 21.624 102.599 22.076 102.599 22.676ZM110.174 20.924C109.814 20.924 109.462 20.988 109.118 21.116C108.782 21.244 108.422 21.488 108.038 21.848V26H107.054V20.06H107.99V21.02C108.398 20.62 108.77 20.34 109.106 20.18C109.45 20.02 109.806 19.94 110.174 19.94V20.924ZM112.264 18.608H111.16V17.504H112.264V18.608ZM112.204 26H111.22V20.06H112.204V26ZM116.462 26.12C116.014 26.12 115.55 26.028 115.07 25.844V28.556H114.086V20.06H115.022V20.9C115.39 20.548 115.726 20.3 116.03 20.156C116.334 20.012 116.646 19.94 116.966 19.94C117.598 19.94 118.082 20.18 118.418 20.66C118.762 21.14 118.934 21.816 118.934 22.688V23.384C118.934 24.216 118.722 24.88 118.298 25.376C117.882 25.872 117.27 26.12 116.462 26.12ZM116.726 20.864C116.494 20.864 116.254 20.924 116.006 21.044C115.758 21.164 115.446 21.408 115.07 21.776V24.944C115.302 25.048 115.526 25.124 115.742 25.172C115.958 25.212 116.17 25.232 116.378 25.232C116.922 25.232 117.314 25.068 117.554 24.74C117.794 24.404 117.914 23.952 117.914 23.384V22.688C117.914 22.064 117.814 21.604 117.614 21.308C117.422 21.012 117.126 20.864 116.726 20.864ZM123.778 25.784C123.33 26.008 122.854 26.12 122.35 26.12C121.918 26.12 121.578 26.032 121.33 25.856C121.09 25.68 120.918 25.444 120.814 25.148C120.718 24.852 120.67 24.524 120.67 24.164V20.924H119.638V20.06H120.67V18.404H121.654V20.06H123.598V20.924H121.654V24.128C121.654 24.544 121.722 24.832 121.858 24.992C122.002 25.144 122.222 25.22 122.518 25.22C122.662 25.22 122.81 25.204 122.962 25.172C123.122 25.132 123.294 25.068 123.478 24.98L123.778 25.784ZM16.7252 37.06L15.2012 43H14.0612L12.8132 38.128L11.5292 43H10.3892L8.87723 37.06H9.88523L10.4852 39.544L11.0252 42.004L12.3092 37.06H13.3532L14.6372 42.028L15.1652 39.556L15.7532 37.06H16.7252ZM18.9551 35.608H17.8511V34.504H18.9551V35.608ZM18.8951 43H17.9111V37.06H18.8951V43ZM24.0405 42.784C23.5925 43.008 23.1165 43.12 22.6125 43.12C22.1805 43.12 21.8405 43.032 21.5925 42.856C21.3525 42.68 21.1805 42.444 21.0765 42.148C20.9805 41.852 20.9325 41.524 20.9325 41.164V37.924H19.9005V37.06H20.9325V35.404H21.9165V37.06H23.8605V37.924H21.9165V41.128C21.9165 41.544 21.9845 41.832 22.1205 41.992C22.2645 42.144 22.4845 42.22 22.7805 42.22C22.9245 42.22 23.0725 42.204 23.2245 42.172C23.3845 42.132 23.5565 42.068 23.7405 41.98L24.0405 42.784ZM27.9511 37.864C27.7271 37.864 27.4631 37.92 27.1591 38.032C26.8631 38.144 26.5031 38.372 26.0791 38.716V43H25.0951V34.12H26.0791V37.852C26.4951 37.5 26.8711 37.26 27.2071 37.132C27.5431 37.004 27.8711 36.94 28.1911 36.94C28.7431 36.94 29.1631 37.116 29.4511 37.468C29.7471 37.812 29.8951 38.304 29.8951 38.944V43H28.9111V39.088C28.9111 38.272 28.5911 37.864 27.9511 37.864ZM35.1279 35.608H34.0239V34.504H35.1279V35.608ZM35.0679 43H34.0839V37.06H35.0679V43ZM39.8054 37.864C39.5814 37.864 39.3174 37.92 39.0134 38.032C38.7174 38.144 38.3574 38.372 37.9334 38.716V43H36.9494V37.06H37.8854V37.888C38.3094 37.528 38.6934 37.28 39.0374 37.144C39.3894 37.008 39.7254 36.94 40.0454 36.94C40.5974 36.94 41.0174 37.116 41.3054 37.468C41.6014 37.812 41.7494 38.304 41.7494 38.944V43H40.7654V39.088C40.7654 38.272 40.4454 37.864 39.8054 37.864ZM46.8288 42.784C46.3808 43.008 45.9048 43.12 45.4008 43.12C44.9688 43.12 44.6288 43.032 44.3808 42.856C44.1408 42.68 43.9688 42.444 43.8648 42.148C43.7688 41.852 43.7208 41.524 43.7208 41.164V37.924H42.6888V37.06H43.7208V35.404H44.7048V37.06H46.6488V37.924H44.7048V41.128C44.7048 41.544 44.7728 41.832 44.9088 41.992C45.0528 42.144 45.2728 42.22 45.5688 42.22C45.7128 42.22 45.8608 42.204 46.0128 42.172C46.1728 42.132 46.3448 42.068 46.5288 41.98L46.8288 42.784ZM51.5434 43V42.16C51.1274 42.52 50.7554 42.772 50.4274 42.916C50.0994 43.052 49.7714 43.12 49.4434 43.12C48.9154 43.12 48.5114 42.948 48.2314 42.604C47.9514 42.252 47.8114 41.76 47.8114 41.128V37.06H48.7954V40.984C48.7954 41.4 48.8674 41.708 49.0114 41.908C49.1634 42.1 49.3874 42.196 49.6834 42.196C49.9074 42.196 50.1594 42.14 50.4394 42.028C50.7194 41.916 51.0674 41.692 51.4834 41.356V37.06H52.4674V43H51.5434ZM55.3905 35.608H54.2865V34.504H55.3905V35.608ZM55.3305 43H54.3465V37.06H55.3305V43ZM60.476 42.784C60.028 43.008 59.552 43.12 59.048 43.12C58.616 43.12 58.276 43.032 58.028 42.856C57.788 42.68 57.616 42.444 57.512 42.148C57.416 41.852 57.368 41.524 57.368 41.164V37.924H56.336V37.06H57.368V35.404H58.352V37.06H60.296V37.924H58.352V41.128C58.352 41.544 58.42 41.832 58.556 41.992C58.7 42.144 58.92 42.22 59.216 42.22C59.36 42.22 59.508 42.204 59.66 42.172C59.82 42.132 59.992 42.068 60.176 41.98L60.476 42.784ZM62.5746 35.608H61.4706V34.504H62.5746V35.608ZM62.5146 43H61.5306V37.06H62.5146V43ZM68.7401 37.06L66.6401 43H65.7161L63.5921 37.06H64.6121L65.6081 39.952L66.2081 41.764L66.7961 39.952L67.7681 37.06H68.7401ZM74.0071 42.652C73.6471 42.828 73.2871 42.948 72.9271 43.012C72.5671 43.084 72.2351 43.12 71.9311 43.12C71.0751 43.12 70.4351 42.876 70.0111 42.388C69.5951 41.9 69.3871 41.232 69.3871 40.384V39.664C69.3871 38.84 69.5951 38.18 70.0111 37.684C70.4351 37.188 71.0311 36.94 71.7991 36.94C72.2071 36.94 72.5791 37.024 72.9151 37.192C73.2591 37.352 73.5311 37.6 73.7311 37.936C73.9391 38.264 74.0431 38.688 74.0431 39.208C74.0431 39.544 73.9951 39.928 73.8991 40.36H70.3591V40.384C70.3591 40.992 70.4831 41.452 70.7311 41.764C70.9871 42.076 71.3951 42.232 71.9551 42.232C72.2111 42.232 72.4911 42.2 72.7951 42.136C73.1071 42.072 73.4111 41.972 73.7071 41.836L74.0071 42.652ZM71.7991 37.804C71.3351 37.804 70.9831 37.956 70.7431 38.26C70.5111 38.556 70.3831 38.976 70.3591 39.52H73.0471C73.0711 39.376 73.0831 39.24 73.0831 39.112C73.0831 38.664 72.9551 38.336 72.6991 38.128C72.4511 37.912 72.1511 37.804 71.7991 37.804ZM82.4152 43L81.8032 41.104H78.7072L78.0952 43H77.0752L79.7872 34.84H80.7712L83.4952 43H82.4152ZM79.4632 38.752L79.0072 40.156H81.4912L81.0352 38.752L80.2552 36.232L79.4632 38.752ZM84.781 43V34.84H87.325C88.109 34.84 88.705 35.048 89.113 35.464C89.529 35.872 89.737 36.42 89.737 37.108V37.744C89.737 38.432 89.529 38.984 89.113 39.4C88.705 39.816 88.109 40.024 87.325 40.024H85.825V43H84.781ZM87.325 35.824H85.825V39.052H87.325C87.757 39.052 88.085 38.936 88.309 38.704C88.541 38.472 88.657 38.152 88.657 37.744V37.108C88.657 36.708 88.541 36.396 88.309 36.172C88.085 35.94 87.757 35.824 87.325 35.824ZM92.3584 43H91.3144V34.84H92.3584V43ZM101.173 43.06C100.805 43.06 100.509 42.976 100.285 42.808C100.069 42.64 99.9174 42.432 99.8294 42.184C99.4374 42.528 99.0814 42.772 98.7614 42.916C98.4414 43.052 98.1214 43.12 97.8014 43.12C97.2814 43.12 96.8974 42.952 96.6494 42.616C96.4014 42.28 96.2774 41.868 96.2774 41.38C96.2774 41.052 96.3374 40.76 96.4574 40.504C96.5774 40.248 96.7814 40.048 97.0694 39.904C97.3574 39.752 97.7454 39.676 98.2334 39.676C98.4494 39.676 98.6854 39.692 98.9414 39.724C99.1974 39.748 99.4574 39.78 99.7214 39.82V39.016C99.7214 38.568 99.6214 38.264 99.4214 38.104C99.2294 37.936 98.9454 37.852 98.5694 37.852C98.0574 37.852 97.4854 37.992 96.8534 38.272L96.5414 37.456C96.9094 37.288 97.2614 37.16 97.5974 37.072C97.9334 36.984 98.2734 36.94 98.6174 36.94C99.1774 36.94 99.6054 37.032 99.9014 37.216C100.197 37.4 100.401 37.644 100.513 37.948C100.625 38.252 100.681 38.584 100.681 38.944V41.512C100.681 41.696 100.717 41.852 100.789 41.98C100.861 42.1 101.005 42.16 101.221 42.16H101.353V43.06H101.173ZM97.2494 41.368C97.2494 41.64 97.3134 41.86 97.4414 42.028C97.5694 42.196 97.7534 42.28 97.9934 42.28C98.2014 42.28 98.4414 42.22 98.7134 42.1C98.9854 41.972 99.3214 41.72 99.7214 41.344V40.588C99.1774 40.5 98.6974 40.456 98.2814 40.456C97.9134 40.456 97.6494 40.532 97.4894 40.684C97.3294 40.836 97.2494 41.064 97.2494 41.368ZM105.363 37.864C105.139 37.864 104.875 37.92 104.571 38.032C104.275 38.144 103.915 38.372 103.491 38.716V43H102.507V37.06H103.443V37.888C103.867 37.528 104.251 37.28 104.595 37.144C104.947 37.008 105.283 36.94 105.603 36.94C106.155 36.94 106.575 37.116 106.863 37.468C107.159 37.812 107.307 38.304 107.307 38.944V43H106.323V39.088C106.323 38.272 106.003 37.864 105.363 37.864ZM112.735 43V42.172C112.367 42.524 112.031 42.772 111.727 42.916C111.431 43.052 111.123 43.12 110.803 43.12C110.171 43.12 109.683 42.88 109.339 42.4C109.003 41.92 108.835 41.248 108.835 40.384V39.688C108.835 38.848 109.043 38.18 109.459 37.684C109.883 37.188 110.495 36.94 111.295 36.94C111.527 36.94 111.759 36.964 111.991 37.012C112.223 37.06 112.455 37.128 112.687 37.216V34.12H113.671V43H112.735ZM109.855 40.384C109.855 41.008 109.951 41.468 110.143 41.764C110.343 42.052 110.639 42.196 111.031 42.196C111.263 42.196 111.503 42.14 111.751 42.028C111.999 41.908 112.311 41.664 112.687 41.296V38.128C112.455 38.024 112.231 37.952 112.015 37.912C111.799 37.864 111.587 37.84 111.379 37.84C110.835 37.84 110.443 38.004 110.203 38.332C109.971 38.66 109.855 39.112 109.855 39.688V40.384ZM41.7197 54.06L40.1957 60H39.0557L37.8077 55.128L36.5237 60H35.3837L33.8717 54.06H34.8797L35.4797 56.544L36.0197 59.004L37.3037 54.06H38.3477L39.6317 59.028L40.1597 56.556L40.7477 54.06H41.7197ZM47.5627 56.664V57.384C47.5627 58.232 47.3427 58.9 46.9027 59.388C46.4707 59.876 45.8507 60.12 45.0427 60.12C44.2427 60.12 43.6227 59.876 43.1827 59.388C42.7427 58.9 42.5227 58.232 42.5227 57.384V56.664C42.5227 55.832 42.7387 55.172 43.1707 54.684C43.6107 54.188 44.2347 53.94 45.0427 53.94C45.8507 53.94 46.4707 54.188 46.9027 54.684C47.3427 55.172 47.5627 55.832 47.5627 56.664ZM46.5427 56.664C46.5427 56.096 46.4147 55.652 46.1587 55.332C45.9027 55.004 45.5307 54.84 45.0427 54.84C44.5627 54.84 44.1907 55.004 43.9267 55.332C43.6707 55.652 43.5427 56.096 43.5427 56.664V57.384C43.5427 57.976 43.6707 58.432 43.9267 58.752C44.1907 59.072 44.5627 59.232 45.0427 59.232C45.5307 59.232 45.9027 59.072 46.1587 58.752C46.4147 58.432 46.5427 57.976 46.5427 57.384V56.664ZM52.2308 54.924C51.8708 54.924 51.5188 54.988 51.1748 55.116C50.8388 55.244 50.4788 55.488 50.0948 55.848V60H49.1108V54.06H50.0468V55.02C50.4548 54.62 50.8268 54.34 51.1628 54.18C51.5068 54.02 51.8628 53.94 52.2308 53.94V54.924ZM53.2651 58.56V51.12H54.2491V58.512C54.2491 58.728 54.2811 58.892 54.3451 59.004C54.4171 59.108 54.5571 59.16 54.7651 59.16H54.9571V60.06H54.6811C54.1531 60.06 53.7851 59.92 53.5771 59.64C53.3691 59.36 53.2651 59 53.2651 58.56ZM59.8132 60V59.172C59.4452 59.524 59.1092 59.772 58.8052 59.916C58.5092 60.052 58.2012 60.12 57.8812 60.12C57.2492 60.12 56.7612 59.88 56.4172 59.4C56.0812 58.92 55.9132 58.248 55.9132 57.384V56.688C55.9132 55.848 56.1212 55.18 56.5372 54.684C56.9612 54.188 57.5732 53.94 58.3732 53.94C58.6052 53.94 58.8372 53.964 59.0692 54.012C59.3012 54.06 59.5332 54.128 59.7652 54.216V51.12H60.7492V60H59.8132ZM56.9332 57.384C56.9332 58.008 57.0292 58.468 57.2212 58.764C57.4212 59.052 57.7172 59.196 58.1092 59.196C58.3412 59.196 58.5812 59.14 58.8292 59.028C59.0772 58.908 59.3892 58.664 59.7652 58.296V55.128C59.5332 55.024 59.3092 54.952 59.0932 54.912C58.8772 54.864 58.6652 54.84 58.4572 54.84C57.9132 54.84 57.5212 55.004 57.2812 55.332C57.0492 55.66 56.9332 56.112 56.9332 56.688V57.384ZM62.1045 56.796V55.932H65.4645V56.796H62.1045ZM67.6437 56.676V57.384C67.6437 57.992 67.7557 58.452 67.9797 58.764C68.2037 59.068 68.5597 59.22 69.0477 59.22C69.5277 59.22 70.0437 59.096 70.5957 58.848L70.8957 59.676C70.2397 59.972 69.6037 60.12 68.9877 60.12C68.2197 60.12 67.6357 59.876 67.2357 59.388C66.8357 58.9 66.6357 58.232 66.6357 57.384V56.676C66.6357 55.828 66.8357 55.16 67.2357 54.672C67.6357 54.184 68.2197 53.94 68.9877 53.94C69.2757 53.94 69.5717 53.98 69.8757 54.06C70.1877 54.132 70.4997 54.236 70.8117 54.372L70.5117 55.212C70.2477 55.1 69.9917 55.012 69.7437 54.948C69.5037 54.884 69.2717 54.852 69.0477 54.852C68.5597 54.852 68.2037 55.008 67.9797 55.32C67.7557 55.624 67.6437 56.076 67.6437 56.676ZM72.0863 58.56V51.12H73.0703V58.512C73.0703 58.728 73.1023 58.892 73.1663 59.004C73.2383 59.108 73.3783 59.16 73.5863 59.16H73.7783V60.06H73.5023C72.9743 60.06 72.6063 59.92 72.3983 59.64C72.1903 59.36 72.0863 59 72.0863 58.56ZM79.3664 60.06C78.9984 60.06 78.7024 59.976 78.4784 59.808C78.2624 59.64 78.1104 59.432 78.0224 59.184C77.6304 59.528 77.2744 59.772 76.9544 59.916C76.6344 60.052 76.3144 60.12 75.9944 60.12C75.4744 60.12 75.0904 59.952 74.8424 59.616C74.5944 59.28 74.4704 58.868 74.4704 58.38C74.4704 58.052 74.5304 57.76 74.6504 57.504C74.7704 57.248 74.9744 57.048 75.2624 56.904C75.5504 56.752 75.9384 56.676 76.4264 56.676C76.6424 56.676 76.8784 56.692 77.1344 56.724C77.3904 56.748 77.6504 56.78 77.9144 56.82V56.016C77.9144 55.568 77.8144 55.264 77.6144 55.104C77.4224 54.936 77.1384 54.852 76.7624 54.852C76.2504 54.852 75.6784 54.992 75.0464 55.272L74.7344 54.456C75.1024 54.288 75.4544 54.16 75.7904 54.072C76.1264 53.984 76.4664 53.94 76.8104 53.94C77.3704 53.94 77.7984 54.032 78.0944 54.216C78.3904 54.4 78.5944 54.644 78.7064 54.948C78.8184 55.252 78.8744 55.584 78.8744 55.944V58.512C78.8744 58.696 78.9104 58.852 78.9824 58.98C79.0544 59.1 79.1984 59.16 79.4144 59.16H79.5464V60.06H79.3664ZM75.4424 58.368C75.4424 58.64 75.5064 58.86 75.6344 59.028C75.7624 59.196 75.9464 59.28 76.1864 59.28C76.3944 59.28 76.6344 59.22 76.9064 59.1C77.1784 58.972 77.5144 58.72 77.9144 58.344V57.588C77.3704 57.5 76.8904 57.456 76.4744 57.456C76.1064 57.456 75.8424 57.532 75.6824 57.684C75.5224 57.836 75.4424 58.064 75.4424 58.368ZM82.1524 59.244C82.9524 59.244 83.3524 58.972 83.3524 58.428C83.3524 58.196 83.2804 58.012 83.1364 57.876C82.9924 57.74 82.7284 57.624 82.3444 57.528L81.6844 57.36C81.1964 57.24 80.8324 57.032 80.5924 56.736C80.3524 56.432 80.2324 56.072 80.2324 55.656C80.2324 55.352 80.3004 55.072 80.4364 54.816C80.5724 54.552 80.7884 54.34 81.0844 54.18C81.3804 54.02 81.7644 53.94 82.2364 53.94C82.5404 53.94 82.8484 53.976 83.1604 54.048C83.4804 54.112 83.8044 54.224 84.1324 54.384L83.8204 55.212C83.2364 54.948 82.7084 54.816 82.2364 54.816C81.5404 54.816 81.1924 55.076 81.1924 55.596C81.1924 55.796 81.2564 55.968 81.3844 56.112C81.5124 56.256 81.7524 56.372 82.1044 56.46L82.7644 56.628C83.2924 56.756 83.6804 56.964 83.9284 57.252C84.1764 57.54 84.3004 57.912 84.3004 58.368C84.3004 58.696 84.2284 58.996 84.0844 59.268C83.9484 59.532 83.7244 59.74 83.4124 59.892C83.1084 60.044 82.6964 60.12 82.1764 60.12C81.8324 60.12 81.4884 60.084 81.1444 60.012C80.8084 59.94 80.4604 59.824 80.1004 59.664L80.3644 58.848C80.7084 58.984 81.0204 59.084 81.3004 59.148C81.5804 59.212 81.8644 59.244 82.1524 59.244ZM87.0803 59.244C87.8803 59.244 88.2803 58.972 88.2803 58.428C88.2803 58.196 88.2083 58.012 88.0643 57.876C87.9203 57.74 87.6563 57.624 87.2723 57.528L86.6123 57.36C86.1243 57.24 85.7603 57.032 85.5203 56.736C85.2803 56.432 85.1603 56.072 85.1603 55.656C85.1603 55.352 85.2283 55.072 85.3643 54.816C85.5003 54.552 85.7163 54.34 86.0123 54.18C86.3083 54.02 86.6923 53.94 87.1643 53.94C87.4683 53.94 87.7763 53.976 88.0883 54.048C88.4083 54.112 88.7323 54.224 89.0603 54.384L88.7483 55.212C88.1643 54.948 87.6363 54.816 87.1643 54.816C86.4683 54.816 86.1203 55.076 86.1203 55.596C86.1203 55.796 86.1843 55.968 86.3123 56.112C86.4403 56.256 86.6803 56.372 87.0323 56.46L87.6923 56.628C88.2203 56.756 88.6083 56.964 88.8563 57.252C89.1043 57.54 89.2283 57.912 89.2283 58.368C89.2283 58.696 89.1563 58.996 89.0123 59.268C88.8763 59.532 88.6523 59.74 88.3403 59.892C88.0363 60.044 87.6243 60.12 87.1043 60.12C86.7603 60.12 86.4163 60.084 86.0723 60.012C85.7363 59.94 85.3883 59.824 85.0283 59.664L85.2923 58.848C85.6363 58.984 85.9483 59.084 86.2283 59.148C86.5083 59.212 86.7923 59.244 87.0803 59.244ZM26.56 77V76.172C26.192 76.524 25.856 76.772 25.552 76.916C25.256 77.052 24.948 77.12 24.628 77.12C23.996 77.12 23.508 76.88 23.164 76.4C22.828 75.92 22.66 75.248 22.66 74.384V73.688C22.66 72.848 22.868 72.18 23.284 71.684C23.708 71.188 24.32 70.94 25.12 70.94C25.352 70.94 25.584 70.964 25.816 71.012C26.048 71.06 26.28 71.128 26.512 71.216V68.12H27.496V77H26.56ZM23.68 74.384C23.68 75.008 23.776 75.468 23.968 75.764C24.168 76.052 24.464 76.196 24.856 76.196C25.088 76.196 25.328 76.14 25.576 76.028C25.824 75.908 26.136 75.664 26.512 75.296V72.128C26.28 72.024 26.056 71.952 25.84 71.912C25.624 71.864 25.412 71.84 25.204 71.84C24.66 71.84 24.268 72.004 24.028 72.332C23.796 72.66 23.68 73.112 23.68 73.688V74.384ZM34.08 73.664V74.384C34.08 75.232 33.86 75.9 33.42 76.388C32.988 76.876 32.368 77.12 31.56 77.12C30.76 77.12 30.14 76.876 29.7 76.388C29.26 75.9 29.04 75.232 29.04 74.384V73.664C29.04 72.832 29.256 72.172 29.688 71.684C30.128 71.188 30.752 70.94 31.56 70.94C32.368 70.94 32.988 71.188 33.42 71.684C33.86 72.172 34.08 72.832 34.08 73.664ZM33.06 73.664C33.06 73.096 32.932 72.652 32.676 72.332C32.42 72.004 32.048 71.84 31.56 71.84C31.08 71.84 30.708 72.004 30.444 72.332C30.188 72.652 30.06 73.096 30.06 73.664V74.384C30.06 74.976 30.188 75.432 30.444 75.752C30.708 76.072 31.08 76.232 31.56 76.232C32.048 76.232 32.42 76.072 32.676 75.752C32.932 75.432 33.06 74.976 33.06 74.384V73.664ZM36.3242 73.676V74.384C36.3242 74.992 36.4362 75.452 36.6602 75.764C36.8842 76.068 37.2402 76.22 37.7282 76.22C38.2082 76.22 38.7242 76.096 39.2762 75.848L39.5762 76.676C38.9202 76.972 38.2842 77.12 37.6682 77.12C36.9002 77.12 36.3162 76.876 35.9162 76.388C35.5162 75.9 35.3162 75.232 35.3162 74.384V73.676C35.3162 72.828 35.5162 72.16 35.9162 71.672C36.3162 71.184 36.9002 70.94 37.6682 70.94C37.9562 70.94 38.2522 70.98 38.5562 71.06C38.8682 71.132 39.1802 71.236 39.4922 71.372L39.1922 72.212C38.9282 72.1 38.6722 72.012 38.4242 71.948C38.1842 71.884 37.9522 71.852 37.7282 71.852C37.2402 71.852 36.8842 72.008 36.6602 72.32C36.4362 72.624 36.3242 73.076 36.3242 73.676ZM44.4154 77V76.16C43.9994 76.52 43.6274 76.772 43.2994 76.916C42.9714 77.052 42.6434 77.12 42.3154 77.12C41.7874 77.12 41.3834 76.948 41.1034 76.604C40.8234 76.252 40.6834 75.76 40.6834 75.128V71.06H41.6674V74.984C41.6674 75.4 41.7394 75.708 41.8834 75.908C42.0354 76.1 42.2594 76.196 42.5554 76.196C42.7794 76.196 43.0314 76.14 43.3114 76.028C43.5914 75.916 43.9394 75.692 44.3554 75.356V71.06H45.3394V77H44.4154ZM50.0145 71.864C49.7905 71.864 49.5385 71.924 49.2585 72.044C48.9785 72.156 48.6265 72.38 48.2025 72.716V77H47.2185V71.06H48.1545V71.888C48.5785 71.536 48.9545 71.292 49.2825 71.156C49.6105 71.012 49.9345 70.94 50.2545 70.94C50.6305 70.94 50.9425 71.028 51.1905 71.204C51.4385 71.372 51.6225 71.616 51.7425 71.936C52.1825 71.56 52.5745 71.3 52.9185 71.156C53.2705 71.012 53.6145 70.94 53.9505 70.94C54.4785 70.94 54.8825 71.116 55.1625 71.468C55.4425 71.812 55.5825 72.304 55.5825 72.944V77H54.5985V73.088C54.5985 72.272 54.3025 71.864 53.7105 71.864C53.4865 71.864 53.2305 71.924 52.9425 72.044C52.6625 72.156 52.3105 72.38 51.8865 72.716C51.8945 72.748 51.8985 72.784 51.8985 72.824C51.8985 72.864 51.8985 72.904 51.8985 72.944V77H50.9145V73.088C50.9145 72.272 50.6145 71.864 50.0145 71.864ZM61.7162 76.652C61.3562 76.828 60.9962 76.948 60.6362 77.012C60.2762 77.084 59.9442 77.12 59.6402 77.12C58.7842 77.12 58.1442 76.876 57.7202 76.388C57.3042 75.9 57.0962 75.232 57.0962 74.384V73.664C57.0962 72.84 57.3042 72.18 57.7202 71.684C58.1442 71.188 58.7402 70.94 59.5082 70.94C59.9162 70.94 60.2882 71.024 60.6242 71.192C60.9682 71.352 61.2402 71.6 61.4402 71.936C61.6482 72.264 61.7522 72.688 61.7522 73.208C61.7522 73.544 61.7042 73.928 61.6082 74.36H58.0682V74.384C58.0682 74.992 58.1922 75.452 58.4402 75.764C58.6962 76.076 59.1042 76.232 59.6642 76.232C59.9202 76.232 60.2002 76.2 60.5042 76.136C60.8162 76.072 61.1202 75.972 61.4162 75.836L61.7162 76.652ZM59.5082 71.804C59.0442 71.804 58.6922 71.956 58.4522 72.26C58.2202 72.556 58.0922 72.976 58.0682 73.52H60.7562C60.7802 73.376 60.7922 73.24 60.7922 73.112C60.7922 72.664 60.6642 72.336 60.4082 72.128C60.1602 71.912 59.8602 71.804 59.5082 71.804ZM66.0711 71.864C65.8471 71.864 65.5831 71.92 65.2791 72.032C64.9831 72.144 64.6231 72.372 64.1991 72.716V77H63.2151V71.06H64.1511V71.888C64.5751 71.528 64.9591 71.28 65.3031 71.144C65.6551 71.008 65.9911 70.94 66.3111 70.94C66.8631 70.94 67.2831 71.116 67.5711 71.468C67.8671 71.812 68.0151 72.304 68.0151 72.944V77H67.0311V73.088C67.0311 72.272 66.7111 71.864 66.0711 71.864ZM73.0945 76.784C72.6465 77.008 72.1705 77.12 71.6665 77.12C71.2345 77.12 70.8945 77.032 70.6465 76.856C70.4065 76.68 70.2345 76.444 70.1305 76.148C70.0345 75.852 69.9865 75.524 69.9865 75.164V71.924H68.9545V71.06H69.9865V69.404H70.9705V71.06H72.9145V71.924H70.9705V75.128C70.9705 75.544 71.0385 75.832 71.1745 75.992C71.3185 76.144 71.5385 76.22 71.8345 76.22C71.9785 76.22 72.1265 76.204 72.2785 76.172C72.4385 76.132 72.6105 76.068 72.7945 75.98L73.0945 76.784ZM78.4931 77.06C78.1251 77.06 77.8291 76.976 77.6051 76.808C77.3891 76.64 77.2371 76.432 77.1491 76.184C76.7571 76.528 76.4011 76.772 76.0811 76.916C75.7611 77.052 75.4411 77.12 75.1211 77.12C74.6011 77.12 74.2171 76.952 73.9691 76.616C73.7211 76.28 73.5971 75.868 73.5971 75.38C73.5971 75.052 73.6571 74.76 73.7771 74.504C73.8971 74.248 74.1011 74.048 74.3891 73.904C74.6771 73.752 75.0651 73.676 75.5531 73.676C75.7691 73.676 76.0051 73.692 76.2611 73.724C76.5171 73.748 76.7771 73.78 77.0411 73.82V73.016C77.0411 72.568 76.9411 72.264 76.7411 72.104C76.5491 71.936 76.2651 71.852 75.8891 71.852C75.3771 71.852 74.8051 71.992 74.1731 72.272L73.8611 71.456C74.2291 71.288 74.5811 71.16 74.9171 71.072C75.2531 70.984 75.5931 70.94 75.9371 70.94C76.4971 70.94 76.9251 71.032 77.2211 71.216C77.5171 71.4 77.7211 71.644 77.8331 71.948C77.9451 72.252 78.0011 72.584 78.0011 72.944V75.512C78.0011 75.696 78.0371 75.852 78.1091 75.98C78.1811 76.1 78.3251 76.16 78.5411 76.16H78.6731V77.06H78.4931ZM74.5691 75.368C74.5691 75.64 74.6331 75.86 74.7611 76.028C74.8891 76.196 75.0731 76.28 75.3131 76.28C75.5211 76.28 75.7611 76.22 76.0331 76.1C76.3051 75.972 76.6411 75.72 77.0411 75.344V74.588C76.4971 74.5 76.0171 74.456 75.6011 74.456C75.2331 74.456 74.9691 74.532 74.8091 74.684C74.6491 74.836 74.5691 75.064 74.5691 75.368ZM83.0911 76.784C82.6431 77.008 82.1671 77.12 81.6631 77.12C81.2311 77.12 80.8911 77.032 80.6431 76.856C80.4031 76.68 80.2311 76.444 80.1271 76.148C80.0311 75.852 79.9831 75.524 79.9831 75.164V71.924H78.9511V71.06H79.9831V69.404H80.9671V71.06H82.9111V71.924H80.9671V75.128C80.9671 75.544 81.0351 75.832 81.1711 75.992C81.3151 76.144 81.5351 76.22 81.8311 76.22C81.9751 76.22 82.1231 76.204 82.2751 76.172C82.4351 76.132 82.6071 76.068 82.7911 75.98L83.0911 76.784ZM85.1897 69.608H84.0857V68.504H85.1897V69.608ZM85.1297 77H84.1457V71.06H85.1297V77ZM91.7152 73.664V74.384C91.7152 75.232 91.4952 75.9 91.0552 76.388C90.6232 76.876 90.0032 77.12 89.1952 77.12C88.3952 77.12 87.7752 76.876 87.3352 76.388C86.8952 75.9 86.6752 75.232 86.6752 74.384V73.664C86.6752 72.832 86.8912 72.172 87.3232 71.684C87.7632 71.188 88.3872 70.94 89.1952 70.94C90.0032 70.94 90.6232 71.188 91.0552 71.684C91.4952 72.172 91.7152 72.832 91.7152 73.664ZM90.6952 73.664C90.6952 73.096 90.5672 72.652 90.3112 72.332C90.0552 72.004 89.6832 71.84 89.1952 71.84C88.7152 71.84 88.3432 72.004 88.0792 72.332C87.8232 72.652 87.6952 73.096 87.6952 73.664V74.384C87.6952 74.976 87.8232 75.432 88.0792 75.752C88.3432 76.072 88.7152 76.232 89.1952 76.232C89.6832 76.232 90.0552 76.072 90.3112 75.752C90.5672 75.432 90.6952 74.976 90.6952 74.384V73.664ZM96.1194 71.864C95.8954 71.864 95.6314 71.92 95.3274 72.032C95.0314 72.144 94.6714 72.372 94.2474 72.716V77H93.2634V71.06H94.1994V71.888C94.6234 71.528 95.0074 71.28 95.3514 71.144C95.7034 71.008 96.0394 70.94 96.3594 70.94C96.9114 70.94 97.3314 71.116 97.6194 71.468C97.9154 71.812 98.0634 72.304 98.0634 72.944V77H97.0794V73.088C97.0794 72.272 96.7594 71.864 96.1194 71.864ZM100.503 77H99.3994V75.908H100.503V77Z" fill="black"/>
</svg>
