<svg width="445" height="50" viewBox="0 0 445 50" fill="none" xmlns="http://www.w3.org/2000/svg">
<path d="M11.269 39L0.686612 2.63636H10.399L15.8855 26.4645H16.1873L22.4551 2.63636H30.3741L36.6419 26.5178H36.9437L42.448 2.63636H52.1426L41.5779 39H33.1085L26.5566 16.9474H26.2725L19.7207 39H11.269ZM64.4949 39.5149C61.6421 39.5149 59.18 38.9527 57.1085 37.8281C55.0488 36.6918 53.4627 35.076 52.35 32.9808C51.2491 30.8738 50.6987 28.3703 50.6987 25.4702C50.6987 22.6529 51.255 20.1908 52.3677 18.0838C53.4804 15.965 55.0488 14.3196 57.073 13.1477C59.0971 11.964 61.4823 11.3722 64.2285 11.3722C66.1698 11.3722 67.9454 11.674 69.5552 12.2777C71.1651 12.8814 72.5559 13.7751 73.7278 14.9588C74.8997 16.1425 75.8111 17.6044 76.4622 19.3445C77.1132 21.0727 77.4387 23.0554 77.4387 25.2926V27.4588H53.7349V22.4162H69.3599C69.3481 21.4929 69.1291 20.6702 68.7029 19.9482C68.2768 19.2261 67.6909 18.6638 66.9451 18.2614C66.2112 17.8471 65.3649 17.6399 64.4061 17.6399C63.4354 17.6399 62.5654 17.8589 61.796 18.2969C61.0266 18.723 60.417 19.3089 59.9672 20.0547C59.5173 20.7886 59.2806 21.6231 59.2569 22.5582V27.6896C59.2569 28.8023 59.4759 29.7789 59.9139 30.6193C60.3519 31.4479 60.9733 32.093 61.7782 32.5547C62.5832 33.0163 63.542 33.2472 64.6547 33.2472C65.4241 33.2472 66.1225 33.1406 66.7498 32.9276C67.3772 32.7145 67.9158 32.4008 68.3656 31.9865C68.8154 31.5722 69.1528 31.0632 69.3777 30.4595L77.35 30.6903C77.0185 32.4777 76.2905 34.0343 75.166 35.3601C74.0533 36.674 72.5914 37.6979 70.7804 38.4318C68.9693 39.1539 66.8741 39.5149 64.4949 39.5149ZM89.5558 2.63636V39H80.8732V2.63636H89.5558ZM106.813 39.5149C103.937 39.5149 101.469 38.9231 99.4089 37.7393C97.3611 36.5556 95.7868 34.9103 94.6859 32.8033C93.585 30.6844 93.0346 28.2341 93.0346 25.4524C93.0346 22.6589 93.585 20.2086 94.6859 18.1016C95.7986 15.9827 97.3788 14.3314 99.4267 13.1477C101.486 11.964 103.943 11.3722 106.795 11.3722C109.317 11.3722 111.512 11.8279 113.383 12.7393C115.265 13.6508 116.733 14.9411 117.786 16.6101C118.851 18.2673 119.414 20.2145 119.473 22.4517H111.358C111.193 21.0549 110.719 19.96 109.938 19.1669C109.169 18.3738 108.162 17.9773 106.92 17.9773C105.913 17.9773 105.032 18.2614 104.274 18.8295C103.516 19.3859 102.925 20.2145 102.498 21.3153C102.084 22.4044 101.877 23.7538 101.877 25.3636C101.877 26.9735 102.084 28.3348 102.498 29.4474C102.925 30.5483 103.516 31.3828 104.274 31.951C105.032 32.5073 105.913 32.7855 106.92 32.7855C107.724 32.7855 108.435 32.6139 109.05 32.2706C109.678 31.9273 110.193 31.4242 110.595 30.7614C110.997 30.0866 111.252 29.2699 111.358 28.3111H119.473C119.39 30.5601 118.828 32.5251 117.786 34.206C116.756 35.8868 115.306 37.1948 113.436 38.13C111.577 39.0533 109.37 39.5149 106.813 39.5149ZM135.647 39.5149C132.782 39.5149 130.32 38.929 128.261 37.7571C126.213 36.5734 124.633 34.928 123.52 32.821C122.419 30.7022 121.869 28.246 121.869 25.4524C121.869 22.647 122.419 20.1908 123.52 18.0838C124.633 15.965 126.213 14.3196 128.261 13.1477C130.32 11.964 132.782 11.3722 135.647 11.3722C138.512 11.3722 140.968 11.964 143.016 13.1477C145.075 14.3196 146.656 15.965 147.756 18.0838C148.869 20.1908 149.425 22.647 149.425 25.4524C149.425 28.246 148.869 30.7022 147.756 32.821C146.656 34.928 145.075 36.5734 143.016 37.7571C140.968 38.929 138.512 39.5149 135.647 39.5149ZM135.7 32.9631C136.742 32.9631 137.624 32.6435 138.346 32.0043C139.068 31.3651 139.618 30.4773 139.997 29.3409C140.388 28.2045 140.583 26.8906 140.583 25.3991C140.583 23.884 140.388 22.5582 139.997 21.4219C139.618 20.2855 139.068 19.3977 138.346 18.7585C137.624 18.1193 136.742 17.7997 135.7 17.7997C134.623 17.7997 133.712 18.1193 132.966 18.7585C132.232 19.3977 131.67 20.2855 131.279 21.4219C130.9 22.5582 130.711 23.884 130.711 25.3991C130.711 26.8906 130.9 28.2045 131.279 29.3409C131.67 30.4773 132.232 31.3651 132.966 32.0043C133.712 32.6435 134.623 32.9631 135.7 32.9631ZM152.873 39V11.7273H161.13V16.7344H161.431C162 15.0772 162.958 13.7692 164.308 12.8104C165.657 11.8516 167.267 11.3722 169.137 11.3722C171.031 11.3722 172.653 11.8575 174.002 12.8281C175.352 13.7988 176.21 15.1009 176.577 16.7344H176.861C177.37 15.1127 178.364 13.8165 179.844 12.8459C181.324 11.8634 183.07 11.3722 185.082 11.3722C187.663 11.3722 189.758 12.2008 191.368 13.858C192.977 15.5033 193.782 17.7642 193.782 20.6406V39H185.1V22.6293C185.1 21.268 184.751 20.2322 184.052 19.522C183.354 18.8 182.448 18.4389 181.336 18.4389C180.14 18.4389 179.199 18.8295 178.512 19.6108C177.838 20.3802 177.5 21.416 177.5 22.718V39H169.155V22.5405C169.155 21.2739 168.812 20.2737 168.125 19.5398C167.439 18.8059 166.533 18.4389 165.409 18.4389C164.651 18.4389 163.982 18.6224 163.402 18.9893C162.822 19.3445 162.367 19.8535 162.035 20.5163C161.716 21.1792 161.556 21.9605 161.556 22.8601V39H152.873ZM210.911 39.5149C208.058 39.5149 205.596 38.9527 203.525 37.8281C201.465 36.6918 199.879 35.076 198.766 32.9808C197.665 30.8738 197.115 28.3703 197.115 25.4702C197.115 22.6529 197.671 20.1908 198.784 18.0838C199.896 15.965 201.465 14.3196 203.489 13.1477C205.513 11.964 207.898 11.3722 210.645 11.3722C212.586 11.3722 214.361 11.674 215.971 12.2777C217.581 12.8814 218.972 13.7751 220.144 14.9588C221.316 16.1425 222.227 17.6044 222.878 19.3445C223.529 21.0727 223.855 23.0554 223.855 25.2926V27.4588H200.151V22.4162H215.776C215.764 21.4929 215.545 20.6702 215.119 19.9482C214.693 19.2261 214.107 18.6638 213.361 18.2614C212.627 17.8471 211.781 17.6399 210.822 17.6399C209.851 17.6399 208.981 17.8589 208.212 18.2969C207.443 18.723 206.833 19.3089 206.383 20.0547C205.933 20.7886 205.697 21.6231 205.673 22.5582V27.6896C205.673 28.8023 205.892 29.7789 206.33 30.6193C206.768 31.4479 207.389 32.093 208.194 32.5547C208.999 33.0163 209.958 33.2472 211.071 33.2472C211.84 33.2472 212.538 33.1406 213.166 32.9276C213.793 32.7145 214.332 32.4008 214.782 31.9865C215.231 31.5722 215.569 31.0632 215.794 30.4595L223.766 30.6903C223.435 32.4777 222.707 34.0343 221.582 35.3601C220.469 36.674 219.007 37.6979 217.196 38.4318C215.385 39.1539 213.29 39.5149 210.911 39.5149ZM252.426 11.7273V18.1193H235.22V11.7273H252.426ZM238.825 5.19318H247.507V30.424C247.507 30.9567 247.59 31.3887 247.756 31.7202C247.933 32.0398 248.188 32.2706 248.519 32.4126C248.851 32.5429 249.247 32.608 249.709 32.608C250.04 32.608 250.39 32.5784 250.757 32.5192C251.135 32.4482 251.419 32.389 251.609 32.3416L252.923 38.6094C252.508 38.7277 251.923 38.8757 251.165 39.0533C250.419 39.2308 249.526 39.3433 248.484 39.3906C246.448 39.4853 244.702 39.2486 243.246 38.6804C241.802 38.1004 240.695 37.2008 239.926 35.9815C239.168 34.7623 238.801 33.2294 238.825 31.3828V5.19318ZM268.294 39.5149C265.429 39.5149 262.967 38.929 260.907 37.7571C258.859 36.5734 257.279 34.928 256.166 32.821C255.066 30.7022 254.515 28.246 254.515 25.4524C254.515 22.647 255.066 20.1908 256.166 18.0838C257.279 15.965 258.859 14.3196 260.907 13.1477C262.967 11.964 265.429 11.3722 268.294 11.3722C271.158 11.3722 273.614 11.964 275.662 13.1477C277.722 14.3196 279.302 15.965 280.403 18.0838C281.516 20.1908 282.072 22.647 282.072 25.4524C282.072 28.246 281.516 30.7022 280.403 32.821C279.302 34.928 277.722 36.5734 275.662 37.7571C273.614 38.929 271.158 39.5149 268.294 39.5149ZM268.347 32.9631C269.388 32.9631 270.27 32.6435 270.992 32.0043C271.714 31.3651 272.265 30.4773 272.644 29.3409C273.034 28.2045 273.23 26.8906 273.23 25.3991C273.23 23.884 273.034 22.5582 272.644 21.4219C272.265 20.2855 271.714 19.3977 270.992 18.7585C270.27 18.1193 269.388 17.7997 268.347 17.7997C267.27 17.7997 266.358 18.1193 265.612 18.7585C264.878 19.3977 264.316 20.2855 263.926 21.4219C263.547 22.5582 263.357 23.884 263.357 25.3991C263.357 26.8906 263.547 28.2045 263.926 29.3409C264.316 30.4773 264.878 31.3651 265.612 32.0043C266.358 32.6435 267.27 32.9631 268.347 32.9631ZM303.518 2.63636L311.65 29.2699H311.952L320.084 2.63636H329.921L317.652 39H305.951L293.682 2.63636H303.518ZM350.432 27.228V11.7273H359.097V39H350.823V33.9219H350.539C349.935 35.5909 348.905 36.9167 347.449 37.8991C346.005 38.8698 344.259 39.3551 342.211 39.3551C340.353 39.3551 338.719 38.929 337.311 38.0767C335.902 37.2244 334.807 36.0348 334.026 34.5078C333.244 32.969 332.848 31.1697 332.836 29.1101V11.7273H341.519V27.4055C341.53 28.8852 341.921 30.0511 342.691 30.9034C343.46 31.7557 344.508 32.1818 345.833 32.1818C346.697 32.1818 347.473 31.9924 348.159 31.6136C348.858 31.223 349.408 30.6607 349.811 29.9268C350.225 29.1811 350.432 28.2815 350.432 27.228ZM376.372 39.5149C373.519 39.5149 371.057 38.9527 368.985 37.8281C366.926 36.6918 365.34 35.076 364.227 32.9808C363.126 30.8738 362.576 28.3703 362.576 25.4702C362.576 22.6529 363.132 20.1908 364.245 18.0838C365.357 15.965 366.926 14.3196 368.95 13.1477C370.974 11.964 373.359 11.3722 376.105 11.3722C378.047 11.3722 379.822 11.674 381.432 12.2777C383.042 12.8814 384.433 13.7751 385.605 14.9588C386.777 16.1425 387.688 17.6044 388.339 19.3445C388.99 21.0727 389.316 23.0554 389.316 25.2926V27.4588H365.612V22.4162H381.237C381.225 21.4929 381.006 20.6702 380.58 19.9482C380.154 19.2261 379.568 18.6638 378.822 18.2614C378.088 17.8471 377.242 17.6399 376.283 17.6399C375.312 17.6399 374.442 17.8589 373.673 18.2969C372.904 18.723 372.294 19.3089 371.844 20.0547C371.394 20.7886 371.158 21.6231 371.134 22.5582V27.6896C371.134 28.8023 371.353 29.7789 371.791 30.6193C372.229 31.4479 372.85 32.093 373.655 32.5547C374.46 33.0163 375.419 33.2472 376.532 33.2472C377.301 33.2472 377.999 33.1406 378.627 32.9276C379.254 32.7145 379.793 32.4008 380.243 31.9865C380.692 31.5722 381.03 31.0632 381.255 30.4595L389.227 30.6903C388.895 32.4777 388.167 34.0343 387.043 35.3601C385.93 36.674 384.468 37.6979 382.657 38.4318C380.846 39.1539 378.751 39.5149 376.372 39.5149ZM397.633 39.5149C396.355 39.5149 395.26 39.0651 394.348 38.1655C393.449 37.2659 393.005 36.1768 393.017 34.8984C393.005 33.6437 393.449 32.5724 394.348 31.6847C395.26 30.785 396.355 30.3352 397.633 30.3352C398.84 30.3352 399.906 30.785 400.829 31.6847C401.764 32.5724 402.238 33.6437 402.249 34.8984C402.238 35.7507 402.013 36.526 401.575 37.2244C401.149 37.9228 400.586 38.4792 399.888 38.8935C399.201 39.3078 398.45 39.5149 397.633 39.5149ZM406.985 11.7273H415.667V40.1364C415.667 42.3854 415.205 44.1728 414.282 45.4986C413.371 46.8243 412.08 47.7772 410.411 48.3572C408.742 48.9373 406.771 49.2273 404.499 49.2273C404.191 49.2273 403.901 49.2214 403.629 49.2095C403.356 49.1977 403.061 49.1858 402.741 49.174V42.5866C402.954 42.6103 403.143 42.6281 403.309 42.6399C403.475 42.6518 403.641 42.6577 403.806 42.6577C405.002 42.6577 405.83 42.4328 406.292 41.983C406.754 41.545 406.985 40.8703 406.985 39.9588V11.7273ZM411.317 8.54901C410.098 8.54901 409.05 8.14654 408.174 7.34162C407.298 6.52486 406.86 5.54238 406.86 4.39418C406.86 3.25781 407.298 2.28717 408.174 1.48224C409.05 0.665481 410.098 0.2571 411.317 0.2571C412.548 0.2571 413.596 0.665481 414.46 1.48224C415.336 2.28717 415.774 3.25781 415.774 4.39418C415.774 5.54238 415.336 6.52486 414.46 7.34162C413.596 8.14654 412.548 8.54901 411.317 8.54901ZM444.004 20.0547L436.032 20.2678C435.949 19.6996 435.724 19.1965 435.357 18.7585C434.99 18.3087 434.511 17.9595 433.919 17.7109C433.339 17.4505 432.664 17.3203 431.895 17.3203C430.888 17.3203 430.03 17.5215 429.32 17.924C428.622 18.3265 428.278 18.871 428.29 19.5575C428.278 20.0902 428.491 20.5518 428.929 20.9425C429.379 21.3331 430.178 21.6468 431.326 21.8835L436.582 22.8778C439.305 23.3987 441.329 24.2628 442.654 25.4702C443.992 26.6776 444.667 28.2756 444.679 30.2642C444.667 32.1345 444.11 33.7621 443.01 35.147C441.921 36.532 440.429 37.6091 438.535 38.3786C436.641 39.1361 434.475 39.5149 432.037 39.5149C428.142 39.5149 425.07 38.7159 422.821 37.1179C420.584 35.508 419.306 33.3537 418.986 30.6548L427.562 30.4418C427.752 31.4361 428.243 32.1937 429.036 32.7145C429.829 33.2353 430.841 33.4957 432.072 33.4957C433.185 33.4957 434.09 33.2886 434.789 32.8743C435.487 32.46 435.842 31.9096 435.854 31.223C435.842 30.6075 435.57 30.1162 435.037 29.7493C434.505 29.3705 433.67 29.0746 432.534 28.8615L427.775 27.956C425.041 27.4588 423.005 26.5414 421.667 25.2038C420.33 23.8544 419.667 22.138 419.679 20.0547C419.667 18.2318 420.152 16.6752 421.135 15.3849C422.117 14.0829 423.514 13.0885 425.325 12.402C427.136 11.7154 429.273 11.3722 431.735 11.3722C435.428 11.3722 438.34 12.1475 440.471 13.6982C442.601 15.237 443.779 17.3558 444.004 20.0547Z" fill="#2B2F30"/>
</svg>
