<svg width="107" height="78" viewBox="0 0 107 78" fill="none" xmlns="http://www.w3.org/2000/svg">
<path d="M8.71356 9L8.10156 7.104H5.00556L4.39356 9H3.37356L6.08556 0.84H7.06956L9.79356 9H8.71356ZM5.76156 4.752L5.30556 6.156H7.78956L7.33356 4.752L6.55356 2.232L5.76156 4.752ZM16.3566 3.924C15.9966 3.924 15.6446 3.988 15.3006 4.116C14.9646 4.244 14.6046 4.488 14.2206 4.848V9H13.2366V3.06H14.1726V4.02C14.5806 3.62 14.9526 3.34 15.2886 3.18C15.6326 3.02 15.9886 2.94 16.3566 2.94V3.924ZM18.4469 1.608H17.3429V0.504H18.4469V1.608ZM18.3869 9H17.4029V3.06H18.3869V9ZM20.9643 5.676V6.384C20.9643 6.992 21.0763 7.452 21.3003 7.764C21.5243 8.068 21.8803 8.22 22.3683 8.22C22.8483 8.22 23.3643 8.096 23.9163 7.848L24.2163 8.676C23.5603 8.972 22.9243 9.12 22.3083 9.12C21.5403 9.12 20.9563 8.876 20.5563 8.388C20.1563 7.9 19.9563 7.232 19.9563 6.384V5.676C19.9563 4.828 20.1563 4.16 20.5563 3.672C20.9563 3.184 21.5403 2.94 22.3083 2.94C22.5963 2.94 22.8923 2.98 23.1963 3.06C23.5083 3.132 23.8203 3.236 24.1323 3.372L23.8323 4.212C23.5683 4.1 23.3123 4.012 23.0643 3.948C22.8243 3.884 22.5923 3.852 22.3683 3.852C21.8803 3.852 21.5243 4.008 21.3003 4.32C21.0763 4.624 20.9643 5.076 20.9643 5.676ZM28.275 3.864C28.051 3.864 27.787 3.92 27.483 4.032C27.187 4.144 26.827 4.372 26.403 4.716V9H25.419V0.12H26.403V3.852C26.819 3.5 27.195 3.26 27.531 3.132C27.867 3.004 28.195 2.94 28.515 2.94C29.067 2.94 29.487 3.116 29.775 3.468C30.071 3.812 30.219 4.304 30.219 4.944V9H29.235V5.088C29.235 4.272 28.915 3.864 28.275 3.864ZM32.599 7.908V8.136C32.599 8.72 32.527 9.276 32.383 9.804C32.239 10.332 31.979 10.896 31.603 11.496L30.955 11.136C31.155 10.752 31.299 10.4 31.387 10.08C31.483 9.768 31.543 9.44 31.567 9.096C31.599 8.76 31.615 8.364 31.615 7.908H32.599ZM37.4969 1.608H36.3929V0.504H37.4969V1.608ZM37.4369 9H36.4529V3.06H37.4369V9ZM42.1743 3.864C41.9503 3.864 41.6863 3.92 41.3823 4.032C41.0863 4.144 40.7263 4.372 40.3023 4.716V9H39.3183V3.06H40.2543V3.888C40.6783 3.528 41.0623 3.28 41.4063 3.144C41.7583 3.008 42.0943 2.94 42.4143 2.94C42.9663 2.94 43.3863 3.116 43.6743 3.468C43.9703 3.812 44.1183 4.304 44.1183 4.944V9H43.1343V5.088C43.1343 4.272 42.8143 3.864 42.1743 3.864ZM46.6298 5.676V6.384C46.6298 6.992 46.7418 7.452 46.9658 7.764C47.1898 8.068 47.5458 8.22 48.0338 8.22C48.5138 8.22 49.0298 8.096 49.5818 7.848L49.8818 8.676C49.2258 8.972 48.5898 9.12 47.9738 9.12C47.2058 9.12 46.6218 8.876 46.2218 8.388C45.8218 7.9 45.6218 7.232 45.6218 6.384V5.676C45.6218 4.828 45.8218 4.16 46.2218 3.672C46.6218 3.184 47.2058 2.94 47.9738 2.94C48.2618 2.94 48.5578 2.98 48.8618 3.06C49.1738 3.132 49.4858 3.236 49.7978 3.372L49.4978 4.212C49.2338 4.1 48.9778 4.012 48.7298 3.948C48.4898 3.884 48.2578 3.852 48.0338 3.852C47.5458 3.852 47.1898 4.008 46.9658 4.32C46.7418 4.624 46.6298 5.076 46.6298 5.676ZM54.2044 3.924C53.8444 3.924 53.4924 3.988 53.1484 4.116C52.8124 4.244 52.4524 4.488 52.0684 4.848V9H51.0844V3.06H52.0204V4.02C52.4284 3.62 52.8004 3.34 53.1364 3.18C53.4804 3.02 53.8364 2.94 54.2044 2.94V3.924ZM59.5587 8.652C59.1987 8.828 58.8387 8.948 58.4787 9.012C58.1187 9.084 57.7867 9.12 57.4827 9.12C56.6267 9.12 55.9867 8.876 55.5627 8.388C55.1467 7.9 54.9387 7.232 54.9387 6.384V5.664C54.9387 4.84 55.1467 4.18 55.5627 3.684C55.9867 3.188 56.5827 2.94 57.3507 2.94C57.7587 2.94 58.1307 3.024 58.4667 3.192C58.8107 3.352 59.0827 3.6 59.2827 3.936C59.4907 4.264 59.5947 4.688 59.5947 5.208C59.5947 5.544 59.5467 5.928 59.4507 6.36H55.9107V6.384C55.9107 6.992 56.0347 7.452 56.2827 7.764C56.5387 8.076 56.9467 8.232 57.5067 8.232C57.7627 8.232 58.0427 8.2 58.3467 8.136C58.6587 8.072 58.9627 7.972 59.2587 7.836L59.5587 8.652ZM57.3507 3.804C56.8867 3.804 56.5347 3.956 56.2947 4.26C56.0627 4.556 55.9347 4.976 55.9107 5.52H58.5987C58.6227 5.376 58.6347 5.24 58.6347 5.112C58.6347 4.664 58.5067 4.336 58.2507 4.128C58.0027 3.912 57.7027 3.804 57.3507 3.804ZM63.8536 3.864C63.6296 3.864 63.3776 3.924 63.0976 4.044C62.8176 4.156 62.4656 4.38 62.0416 4.716V9H61.0576V3.06H61.9936V3.888C62.4176 3.536 62.7936 3.292 63.1216 3.156C63.4496 3.012 63.7736 2.94 64.0936 2.94C64.4696 2.94 64.7816 3.028 65.0296 3.204C65.2776 3.372 65.4616 3.616 65.5816 3.936C66.0216 3.56 66.4136 3.3 66.7576 3.156C67.1096 3.012 67.4536 2.94 67.7896 2.94C68.3176 2.94 68.7216 3.116 69.0016 3.468C69.2816 3.812 69.4216 4.304 69.4216 4.944V9H68.4376V5.088C68.4376 4.272 68.1416 3.864 67.5496 3.864C67.3256 3.864 67.0696 3.924 66.7816 4.044C66.5016 4.156 66.1496 4.38 65.7256 4.716C65.7336 4.748 65.7376 4.784 65.7376 4.824C65.7376 4.864 65.7376 4.904 65.7376 4.944V9H64.7536V5.088C64.7536 4.272 64.4536 3.864 63.8536 3.864ZM75.5553 8.652C75.1953 8.828 74.8353 8.948 74.4753 9.012C74.1153 9.084 73.7833 9.12 73.4793 9.12C72.6233 9.12 71.9833 8.876 71.5593 8.388C71.1433 7.9 70.9353 7.232 70.9353 6.384V5.664C70.9353 4.84 71.1433 4.18 71.5593 3.684C71.9833 3.188 72.5793 2.94 73.3473 2.94C73.7553 2.94 74.1273 3.024 74.4633 3.192C74.8073 3.352 75.0793 3.6 75.2793 3.936C75.4873 4.264 75.5913 4.688 75.5913 5.208C75.5913 5.544 75.5433 5.928 75.4473 6.36H71.9073V6.384C71.9073 6.992 72.0313 7.452 72.2793 7.764C72.5353 8.076 72.9433 8.232 73.5033 8.232C73.7593 8.232 74.0393 8.2 74.3433 8.136C74.6553 8.072 74.9593 7.972 75.2553 7.836L75.5553 8.652ZM73.3473 3.804C72.8833 3.804 72.5313 3.956 72.2913 4.26C72.0593 4.556 71.9313 4.976 71.9073 5.52H74.5953C74.6193 5.376 74.6313 5.24 74.6313 5.112C74.6313 4.664 74.5033 4.336 74.2473 4.128C73.9993 3.912 73.6993 3.804 73.3473 3.804ZM79.9101 3.864C79.6861 3.864 79.4221 3.92 79.1181 4.032C78.8221 4.144 78.4621 4.372 78.0381 4.716V9H77.0541V3.06H77.9901V3.888C78.4141 3.528 78.7981 3.28 79.1421 3.144C79.4941 3.008 79.8301 2.94 80.1501 2.94C80.7021 2.94 81.1221 3.116 81.4101 3.468C81.7061 3.812 81.8541 4.304 81.8541 4.944V9H80.8701V5.088C80.8701 4.272 80.5501 3.864 79.9101 3.864ZM86.9336 8.784C86.4856 9.008 86.0096 9.12 85.5056 9.12C85.0736 9.12 84.7336 9.032 84.4856 8.856C84.2456 8.68 84.0736 8.444 83.9696 8.148C83.8736 7.852 83.8256 7.524 83.8256 7.164V3.924H82.7936V3.06H83.8256V1.404H84.8096V3.06H86.7536V3.924H84.8096V7.128C84.8096 7.544 84.8776 7.832 85.0136 7.992C85.1576 8.144 85.3776 8.22 85.6736 8.22C85.8176 8.22 85.9656 8.204 86.1176 8.172C86.2776 8.132 86.4496 8.068 86.6336 7.98L86.9336 8.784ZM92.3322 9.06C91.9642 9.06 91.6682 8.976 91.4442 8.808C91.2282 8.64 91.0762 8.432 90.9882 8.184C90.5962 8.528 90.2402 8.772 89.9202 8.916C89.6002 9.052 89.2802 9.12 88.9602 9.12C88.4402 9.12 88.0562 8.952 87.8082 8.616C87.5602 8.28 87.4362 7.868 87.4362 7.38C87.4362 7.052 87.4962 6.76 87.6162 6.504C87.7362 6.248 87.9402 6.048 88.2282 5.904C88.5162 5.752 88.9042 5.676 89.3922 5.676C89.6082 5.676 89.8442 5.692 90.1002 5.724C90.3562 5.748 90.6162 5.78 90.8802 5.82V5.016C90.8802 4.568 90.7802 4.264 90.5802 4.104C90.3882 3.936 90.1042 3.852 89.7282 3.852C89.2162 3.852 88.6442 3.992 88.0122 4.272L87.7002 3.456C88.0682 3.288 88.4202 3.16 88.7562 3.072C89.0922 2.984 89.4322 2.94 89.7762 2.94C90.3362 2.94 90.7642 3.032 91.0602 3.216C91.3562 3.4 91.5602 3.644 91.6722 3.948C91.7842 4.252 91.8402 4.584 91.8402 4.944V7.512C91.8402 7.696 91.8762 7.852 91.9482 7.98C92.0202 8.1 92.1642 8.16 92.3802 8.16H92.5122V9.06H92.3322ZM88.4082 7.368C88.4082 7.64 88.4722 7.86 88.6002 8.028C88.7282 8.196 88.9122 8.28 89.1522 8.28C89.3602 8.28 89.6002 8.22 89.8722 8.1C90.1442 7.972 90.4802 7.72 90.8802 7.344V6.588C90.3362 6.5 89.8562 6.456 89.4402 6.456C89.0722 6.456 88.8082 6.532 88.6482 6.684C88.4882 6.836 88.4082 7.064 88.4082 7.368ZM93.6542 7.56V0.12H94.6382V7.512C94.6382 7.728 94.6702 7.892 94.7342 8.004C94.8062 8.108 94.9462 8.16 95.1542 8.16H95.3462V9.06H95.0702C94.5422 9.06 94.1742 8.92 93.9662 8.64C93.7582 8.36 93.6542 8 93.6542 7.56ZM96.5782 7.56V0.12H97.5622V7.512C97.5622 7.728 97.5942 7.892 97.6582 8.004C97.7302 8.108 97.8702 8.16 98.0782 8.16H98.2702V9.06H97.9942C97.4662 9.06 97.0982 8.92 96.8902 8.64C96.6822 8.36 96.5782 8 96.5782 7.56ZM101.542 9.6C101.286 10.32 100.97 10.844 100.594 11.172C100.226 11.508 99.7103 11.676 99.0463 11.676V10.704C99.3183 10.696 99.5503 10.66 99.7423 10.596C99.9423 10.532 100.118 10.4 100.27 10.2C100.43 10.008 100.582 9.72 100.726 9.336L100.846 9.036L98.7103 3.06H99.7183L100.714 5.952L101.326 7.8L101.914 5.952L102.886 3.06H103.858L101.542 9.6ZM6.37726 26.06C6.00926 26.06 5.71326 25.976 5.48926 25.808C5.27326 25.64 5.12126 25.432 5.03326 25.184C4.64126 25.528 4.28526 25.772 3.96526 25.916C3.64526 26.052 3.32526 26.12 3.00526 26.12C2.48526 26.12 2.10126 25.952 1.85326 25.616C1.60526 25.28 1.48126 24.868 1.48126 24.38C1.48126 24.052 1.54126 23.76 1.66126 23.504C1.78126 23.248 1.98526 23.048 2.27326 22.904C2.56126 22.752 2.94926 22.676 3.43726 22.676C3.65326 22.676 3.88926 22.692 4.14526 22.724C4.40126 22.748 4.66126 22.78 4.92526 22.82V22.016C4.92526 21.568 4.82526 21.264 4.62526 21.104C4.43326 20.936 4.14926 20.852 3.77326 20.852C3.26126 20.852 2.68926 20.992 2.05726 21.272L1.74526 20.456C2.11326 20.288 2.46526 20.16 2.80126 20.072C3.13726 19.984 3.47726 19.94 3.82126 19.94C4.38126 19.94 4.80926 20.032 5.10526 20.216C5.40126 20.4 5.60526 20.644 5.71726 20.948C5.82926 21.252 5.88526 21.584 5.88526 21.944V24.512C5.88526 24.696 5.92126 24.852 5.99326 24.98C6.06526 25.1 6.20926 25.16 6.42526 25.16H6.55726V26.06H6.37726ZM2.45326 24.368C2.45326 24.64 2.51726 24.86 2.64526 25.028C2.77326 25.196 2.95726 25.28 3.19726 25.28C3.40526 25.28 3.64526 25.22 3.91726 25.1C4.18926 24.972 4.52526 24.72 4.92526 24.344V23.588C4.38126 23.5 3.90126 23.456 3.48526 23.456C3.11726 23.456 2.85326 23.532 2.69326 23.684C2.53326 23.836 2.45326 24.064 2.45326 24.368ZM11.3232 26V25.172C10.9552 25.524 10.6192 25.772 10.3152 25.916C10.0192 26.052 9.71123 26.12 9.39123 26.12C8.75923 26.12 8.27123 25.88 7.92723 25.4C7.59123 24.92 7.42323 24.248 7.42323 23.384V22.688C7.42323 21.848 7.63123 21.18 8.04723 20.684C8.47123 20.188 9.08323 19.94 9.88323 19.94C10.1152 19.94 10.3472 19.964 10.5792 20.012C10.8112 20.06 11.0432 20.128 11.2752 20.216V17.12H12.2592V26H11.3232ZM8.44323 23.384C8.44323 24.008 8.53923 24.468 8.73123 24.764C8.93123 25.052 9.22723 25.196 9.61923 25.196C9.85123 25.196 10.0912 25.14 10.3392 25.028C10.5872 24.908 10.8992 24.664 11.2752 24.296V21.128C11.0432 21.024 10.8192 20.952 10.6032 20.912C10.3872 20.864 10.1752 20.84 9.96723 20.84C9.42323 20.84 9.03123 21.004 8.79123 21.332C8.55923 21.66 8.44323 22.112 8.44323 22.688V23.384ZM18.8432 22.664V23.384C18.8432 24.232 18.6232 24.9 18.1832 25.388C17.7512 25.876 17.1312 26.12 16.3232 26.12C15.5232 26.12 14.9032 25.876 14.4632 25.388C14.0232 24.9 13.8032 24.232 13.8032 23.384V22.664C13.8032 21.832 14.0192 21.172 14.4512 20.684C14.8912 20.188 15.5152 19.94 16.3232 19.94C17.1312 19.94 17.7512 20.188 18.1832 20.684C18.6232 21.172 18.8432 21.832 18.8432 22.664ZM17.8232 22.664C17.8232 22.096 17.6952 21.652 17.4392 21.332C17.1832 21.004 16.8112 20.84 16.3232 20.84C15.8432 20.84 15.4712 21.004 15.2072 21.332C14.9512 21.652 14.8232 22.096 14.8232 22.664V23.384C14.8232 23.976 14.9512 24.432 15.2072 24.752C15.4712 25.072 15.8432 25.232 16.3232 25.232C16.8112 25.232 17.1832 25.072 17.4392 24.752C17.6952 24.432 17.8232 23.976 17.8232 23.384V22.664ZM22.7674 26.12C22.3194 26.12 21.8554 26.028 21.3754 25.844V28.556H20.3914V20.06H21.3274V20.9C21.6954 20.548 22.0314 20.3 22.3354 20.156C22.6394 20.012 22.9514 19.94 23.2714 19.94C23.9034 19.94 24.3874 20.18 24.7234 20.66C25.0674 21.14 25.2394 21.816 25.2394 22.688V23.384C25.2394 24.216 25.0274 24.88 24.6034 25.376C24.1874 25.872 23.5754 26.12 22.7674 26.12ZM23.0314 20.864C22.7994 20.864 22.5594 20.924 22.3114 21.044C22.0634 21.164 21.7514 21.408 21.3754 21.776V24.944C21.6074 25.048 21.8314 25.124 22.0474 25.172C22.2634 25.212 22.4754 25.232 22.6834 25.232C23.2274 25.232 23.6194 25.068 23.8594 24.74C24.0994 24.404 24.2194 23.952 24.2194 23.384V22.688C24.2194 22.064 24.1194 21.604 23.9194 21.308C23.7274 21.012 23.4314 20.864 23.0314 20.864ZM30.0834 25.784C29.6354 26.008 29.1594 26.12 28.6554 26.12C28.2234 26.12 27.8834 26.032 27.6354 25.856C27.3954 25.68 27.2234 25.444 27.1194 25.148C27.0234 24.852 26.9754 24.524 26.9754 24.164V20.924H25.9434V20.06H26.9754V18.404H27.9594V20.06H29.9034V20.924H27.9594V24.128C27.9594 24.544 28.0274 24.832 28.1634 24.992C28.3074 25.144 28.5274 25.22 28.8234 25.22C28.9674 25.22 29.1154 25.204 29.2674 25.172C29.4274 25.132 29.5994 25.068 29.7834 24.98L30.0834 25.784ZM35.482 26.06C35.114 26.06 34.818 25.976 34.594 25.808C34.378 25.64 34.226 25.432 34.138 25.184C33.746 25.528 33.39 25.772 33.07 25.916C32.75 26.052 32.43 26.12 32.11 26.12C31.59 26.12 31.206 25.952 30.958 25.616C30.71 25.28 30.586 24.868 30.586 24.38C30.586 24.052 30.646 23.76 30.766 23.504C30.886 23.248 31.09 23.048 31.378 22.904C31.666 22.752 32.054 22.676 32.542 22.676C32.758 22.676 32.994 22.692 33.25 22.724C33.506 22.748 33.766 22.78 34.03 22.82V22.016C34.03 21.568 33.93 21.264 33.73 21.104C33.538 20.936 33.254 20.852 32.878 20.852C32.366 20.852 31.794 20.992 31.162 21.272L30.85 20.456C31.218 20.288 31.57 20.16 31.906 20.072C32.242 19.984 32.582 19.94 32.926 19.94C33.486 19.94 33.914 20.032 34.21 20.216C34.506 20.4 34.71 20.644 34.822 20.948C34.934 21.252 34.99 21.584 34.99 21.944V24.512C34.99 24.696 35.026 24.852 35.098 24.98C35.17 25.1 35.314 25.16 35.53 25.16H35.662V26.06H35.482ZM31.558 24.368C31.558 24.64 31.622 24.86 31.75 25.028C31.878 25.196 32.062 25.28 32.302 25.28C32.51 25.28 32.75 25.22 33.022 25.1C33.294 24.972 33.63 24.72 34.03 24.344V23.588C33.486 23.5 33.006 23.456 32.59 23.456C32.222 23.456 31.958 23.532 31.798 23.684C31.638 23.836 31.558 24.064 31.558 24.368ZM41.6159 23.384C41.6159 24.216 41.4079 24.88 40.9919 25.376C40.5759 25.872 39.9639 26.12 39.1559 26.12C38.3559 26.12 37.5639 25.908 36.7799 25.484V17.12H37.7639V20.864C38.1239 20.528 38.4519 20.292 38.7479 20.156C39.0519 20.012 39.3599 19.94 39.6719 19.94C40.2959 19.94 40.7759 20.18 41.1119 20.66C41.4479 21.14 41.6159 21.816 41.6159 22.688V23.384ZM39.4319 20.864C39.2079 20.864 38.9679 20.924 38.7119 21.044C38.4639 21.164 38.1479 21.412 37.7639 21.788V24.932C38.2359 25.132 38.6799 25.232 39.0959 25.232C39.6319 25.232 40.0159 25.068 40.2479 24.74C40.4799 24.404 40.5959 23.952 40.5959 23.384V22.688C40.5959 22.064 40.4999 21.604 40.3079 21.308C40.1159 21.012 39.8239 20.864 39.4319 20.864ZM43.185 24.56V17.12H44.169V24.512C44.169 24.728 44.201 24.892 44.265 25.004C44.337 25.108 44.477 25.16 44.685 25.16H44.877V26.06H44.601C44.073 26.06 43.705 25.92 43.497 25.64C43.289 25.36 43.185 25 43.185 24.56ZM50.4291 25.652C50.0691 25.828 49.7091 25.948 49.3491 26.012C48.9891 26.084 48.6571 26.12 48.3531 26.12C47.4971 26.12 46.8571 25.876 46.4331 25.388C46.0171 24.9 45.8091 24.232 45.8091 23.384V22.664C45.8091 21.84 46.0171 21.18 46.4331 20.684C46.8571 20.188 47.4531 19.94 48.2211 19.94C48.6291 19.94 49.0011 20.024 49.3371 20.192C49.6811 20.352 49.9531 20.6 50.1531 20.936C50.3611 21.264 50.4651 21.688 50.4651 22.208C50.4651 22.544 50.4171 22.928 50.3211 23.36H46.7811V23.384C46.7811 23.992 46.9051 24.452 47.1531 24.764C47.4091 25.076 47.8171 25.232 48.3771 25.232C48.6331 25.232 48.9131 25.2 49.2171 25.136C49.5291 25.072 49.8331 24.972 50.1291 24.836L50.4291 25.652ZM48.2211 20.804C47.7571 20.804 47.4051 20.956 47.1651 21.26C46.9331 21.556 46.8051 21.976 46.7811 22.52H49.4691C49.4931 22.376 49.5051 22.24 49.5051 22.112C49.5051 21.664 49.3771 21.336 49.1211 21.128C48.8731 20.912 48.5731 20.804 48.2211 20.804ZM58.6092 25.652C58.2492 25.828 57.8892 25.948 57.5292 26.012C57.1692 26.084 56.8372 26.12 56.5332 26.12C55.6772 26.12 55.0372 25.876 54.6132 25.388C54.1972 24.9 53.9892 24.232 53.9892 23.384V22.664C53.9892 21.84 54.1972 21.18 54.6132 20.684C55.0372 20.188 55.6332 19.94 56.4012 19.94C56.8092 19.94 57.1812 20.024 57.5172 20.192C57.8612 20.352 58.1332 20.6 58.3332 20.936C58.5412 21.264 58.6452 21.688 58.6452 22.208C58.6452 22.544 58.5972 22.928 58.5012 23.36H54.9612V23.384C54.9612 23.992 55.0852 24.452 55.3332 24.764C55.5892 25.076 55.9972 25.232 56.5572 25.232C56.8132 25.232 57.0932 25.2 57.3972 25.136C57.7092 25.072 58.0132 24.972 58.3092 24.836L58.6092 25.652ZM56.4012 20.804C55.9372 20.804 55.5852 20.956 55.3452 21.26C55.1132 21.556 54.9852 21.976 54.9612 22.52H57.6492C57.6732 22.376 57.6852 22.24 57.6852 22.112C57.6852 21.664 57.5572 21.336 57.3012 21.128C57.0532 20.912 56.7532 20.804 56.4012 20.804ZM60.8041 22.676V23.384C60.8041 23.992 60.9161 24.452 61.1401 24.764C61.3641 25.068 61.7201 25.22 62.2081 25.22C62.6881 25.22 63.2041 25.096 63.7561 24.848L64.0561 25.676C63.4001 25.972 62.7641 26.12 62.1481 26.12C61.3801 26.12 60.7961 25.876 60.3961 25.388C59.9961 24.9 59.7961 24.232 59.7961 23.384V22.676C59.7961 21.828 59.9961 21.16 60.3961 20.672C60.7961 20.184 61.3801 19.94 62.1481 19.94C62.4361 19.94 62.7321 19.98 63.0361 20.06C63.3481 20.132 63.6601 20.236 63.9721 20.372L63.6721 21.212C63.4081 21.1 63.1521 21.012 62.9041 20.948C62.6641 20.884 62.4321 20.852 62.2081 20.852C61.7201 20.852 61.3641 21.008 61.1401 21.32C60.9161 21.624 60.8041 22.076 60.8041 22.676ZM69.9393 22.664V23.384C69.9393 24.232 69.7193 24.9 69.2793 25.388C68.8473 25.876 68.2273 26.12 67.4193 26.12C66.6193 26.12 65.9993 25.876 65.5593 25.388C65.1193 24.9 64.8993 24.232 64.8993 23.384V22.664C64.8993 21.832 65.1153 21.172 65.5473 20.684C65.9873 20.188 66.6113 19.94 67.4193 19.94C68.2273 19.94 68.8473 20.188 69.2793 20.684C69.7193 21.172 69.9393 21.832 69.9393 22.664ZM68.9193 22.664C68.9193 22.096 68.7913 21.652 68.5353 21.332C68.2793 21.004 67.9073 20.84 67.4193 20.84C66.9393 20.84 66.5673 21.004 66.3033 21.332C66.0473 21.652 65.9193 22.096 65.9193 22.664V23.384C65.9193 23.976 66.0473 24.432 66.3033 24.752C66.5673 25.072 66.9393 25.232 67.4193 25.232C67.9073 25.232 68.2793 25.072 68.5353 24.752C68.7913 24.432 68.9193 23.976 68.9193 23.384V22.664ZM72.9395 25.244C73.7395 25.244 74.1395 24.972 74.1395 24.428C74.1395 24.196 74.0675 24.012 73.9235 23.876C73.7795 23.74 73.5155 23.624 73.1315 23.528L72.4715 23.36C71.9835 23.24 71.6195 23.032 71.3795 22.736C71.1395 22.432 71.0195 22.072 71.0195 21.656C71.0195 21.352 71.0875 21.072 71.2235 20.816C71.3595 20.552 71.5755 20.34 71.8715 20.18C72.1675 20.02 72.5515 19.94 73.0235 19.94C73.3275 19.94 73.6355 19.976 73.9475 20.048C74.2675 20.112 74.5915 20.224 74.9195 20.384L74.6075 21.212C74.0235 20.948 73.4955 20.816 73.0235 20.816C72.3275 20.816 71.9795 21.076 71.9795 21.596C71.9795 21.796 72.0435 21.968 72.1715 22.112C72.2995 22.256 72.5395 22.372 72.8915 22.46L73.5515 22.628C74.0795 22.756 74.4675 22.964 74.7155 23.252C74.9635 23.54 75.0875 23.912 75.0875 24.368C75.0875 24.696 75.0155 24.996 74.8715 25.268C74.7355 25.532 74.5115 25.74 74.1995 25.892C73.8955 26.044 73.4835 26.12 72.9635 26.12C72.6195 26.12 72.2755 26.084 71.9315 26.012C71.5955 25.94 71.2475 25.824 70.8875 25.664L71.1515 24.848C71.4955 24.984 71.8075 25.084 72.0875 25.148C72.3675 25.212 72.6515 25.244 72.9395 25.244ZM78.4435 26.6C78.1875 27.32 77.8715 27.844 77.4955 28.172C77.1275 28.508 76.6115 28.676 75.9475 28.676V27.704C76.2195 27.696 76.4515 27.66 76.6435 27.596C76.8435 27.532 77.0195 27.4 77.1715 27.2C77.3315 27.008 77.4835 26.72 77.6275 26.336L77.7475 26.036L75.6115 20.06H76.6195L77.6155 22.952L78.2275 24.8L78.8155 22.952L79.7875 20.06H80.7595L78.4435 26.6ZM83.2876 25.244C84.0876 25.244 84.4876 24.972 84.4876 24.428C84.4876 24.196 84.4156 24.012 84.2716 23.876C84.1276 23.74 83.8636 23.624 83.4796 23.528L82.8196 23.36C82.3316 23.24 81.9676 23.032 81.7276 22.736C81.4876 22.432 81.3676 22.072 81.3676 21.656C81.3676 21.352 81.4356 21.072 81.5716 20.816C81.7076 20.552 81.9236 20.34 82.2196 20.18C82.5156 20.02 82.8996 19.94 83.3716 19.94C83.6756 19.94 83.9836 19.976 84.2956 20.048C84.6156 20.112 84.9396 20.224 85.2676 20.384L84.9556 21.212C84.3716 20.948 83.8436 20.816 83.3716 20.816C82.6756 20.816 82.3276 21.076 82.3276 21.596C82.3276 21.796 82.3916 21.968 82.5196 22.112C82.6476 22.256 82.8876 22.372 83.2396 22.46L83.8996 22.628C84.4276 22.756 84.8156 22.964 85.0636 23.252C85.3116 23.54 85.4356 23.912 85.4356 24.368C85.4356 24.696 85.3636 24.996 85.2196 25.268C85.0836 25.532 84.8596 25.74 84.5476 25.892C84.2436 26.044 83.8316 26.12 83.3116 26.12C82.9676 26.12 82.6236 26.084 82.2796 26.012C81.9436 25.94 81.5956 25.824 81.2356 25.664L81.4996 24.848C81.8436 24.984 82.1556 25.084 82.4356 25.148C82.7156 25.212 82.9996 25.244 83.2876 25.244ZM90.0276 25.784C89.5796 26.008 89.1036 26.12 88.5996 26.12C88.1676 26.12 87.8276 26.032 87.5796 25.856C87.3396 25.68 87.1676 25.444 87.0636 25.148C86.9676 24.852 86.9196 24.524 86.9196 24.164V20.924H85.8876V20.06H86.9196V18.404H87.9036V20.06H89.8476V20.924H87.9036V24.128C87.9036 24.544 87.9716 24.832 88.1076 24.992C88.2516 25.144 88.4716 25.22 88.7676 25.22C88.9116 25.22 89.0596 25.204 89.2116 25.172C89.3716 25.132 89.5436 25.068 89.7276 24.98L90.0276 25.784ZM95.3902 25.652C95.0302 25.828 94.6702 25.948 94.3102 26.012C93.9502 26.084 93.6182 26.12 93.3142 26.12C92.4582 26.12 91.8182 25.876 91.3942 25.388C90.9782 24.9 90.7702 24.232 90.7702 23.384V22.664C90.7702 21.84 90.9782 21.18 91.3942 20.684C91.8182 20.188 92.4142 19.94 93.1822 19.94C93.5902 19.94 93.9622 20.024 94.2982 20.192C94.6422 20.352 94.9142 20.6 95.1142 20.936C95.3222 21.264 95.4262 21.688 95.4262 22.208C95.4262 22.544 95.3782 22.928 95.2822 23.36H91.7422V23.384C91.7422 23.992 91.8662 24.452 92.1142 24.764C92.3702 25.076 92.7782 25.232 93.3382 25.232C93.5942 25.232 93.8742 25.2 94.1782 25.136C94.4902 25.072 94.7942 24.972 95.0902 24.836L95.3902 25.652ZM93.1822 20.804C92.7182 20.804 92.3662 20.956 92.1262 21.26C91.8942 21.556 91.7662 21.976 91.7422 22.52H94.4302C94.4542 22.376 94.4662 22.24 94.4662 22.112C94.4662 21.664 94.3382 21.336 94.0822 21.128C93.8342 20.912 93.5342 20.804 93.1822 20.804ZM99.685 20.864C99.461 20.864 99.209 20.924 98.929 21.044C98.649 21.156 98.297 21.38 97.873 21.716V26H96.889V20.06H97.825V20.888C98.249 20.536 98.625 20.292 98.953 20.156C99.281 20.012 99.605 19.94 99.925 19.94C100.301 19.94 100.613 20.028 100.861 20.204C101.109 20.372 101.293 20.616 101.413 20.936C101.853 20.56 102.245 20.3 102.589 20.156C102.941 20.012 103.285 19.94 103.621 19.94C104.149 19.94 104.553 20.116 104.833 20.468C105.113 20.812 105.253 21.304 105.253 21.944V26H104.269V22.088C104.269 21.272 103.973 20.864 103.381 20.864C103.157 20.864 102.901 20.924 102.613 21.044C102.333 21.156 101.981 21.38 101.557 21.716C101.565 21.748 101.569 21.784 101.569 21.824C101.569 21.864 101.569 21.904 101.569 21.944V26H100.585V22.088C100.585 21.272 100.285 20.864 99.685 20.864ZM4.72867 42.784C4.28067 43.008 3.80467 43.12 3.30067 43.12C2.86867 43.12 2.52867 43.032 2.28067 42.856C2.04067 42.68 1.86867 42.444 1.76467 42.148C1.66867 41.852 1.62067 41.524 1.62067 41.164V37.924H0.588672V37.06H1.62067V35.404H2.60467V37.06H4.54867V37.924H2.60467V41.128C2.60467 41.544 2.67267 41.832 2.80867 41.992C2.95267 42.144 3.17267 42.22 3.46867 42.22C3.61267 42.22 3.76067 42.204 3.91267 42.172C4.07267 42.132 4.24467 42.068 4.42867 41.98L4.72867 42.784ZM8.63927 37.864C8.41527 37.864 8.15127 37.92 7.84727 38.032C7.55127 38.144 7.19127 38.372 6.76727 38.716V43H5.78327V34.12H6.76727V37.852C7.18327 37.5 7.55927 37.26 7.89527 37.132C8.23127 37.004 8.55927 36.94 8.87927 36.94C9.43127 36.94 9.85127 37.116 10.1393 37.468C10.4353 37.812 10.5833 38.304 10.5833 38.944V43H9.59927V39.088C9.59927 38.272 9.27927 37.864 8.63927 37.864ZM16.7427 43.06C16.3747 43.06 16.0787 42.976 15.8547 42.808C15.6387 42.64 15.4867 42.432 15.3987 42.184C15.0067 42.528 14.6507 42.772 14.3307 42.916C14.0107 43.052 13.6907 43.12 13.3707 43.12C12.8507 43.12 12.4667 42.952 12.2187 42.616C11.9707 42.28 11.8467 41.868 11.8467 41.38C11.8467 41.052 11.9067 40.76 12.0267 40.504C12.1467 40.248 12.3507 40.048 12.6387 39.904C12.9267 39.752 13.3147 39.676 13.8027 39.676C14.0187 39.676 14.2547 39.692 14.5107 39.724C14.7667 39.748 15.0267 39.78 15.2907 39.82V39.016C15.2907 38.568 15.1907 38.264 14.9907 38.104C14.7987 37.936 14.5147 37.852 14.1387 37.852C13.6267 37.852 13.0547 37.992 12.4227 38.272L12.1107 37.456C12.4787 37.288 12.8307 37.16 13.1667 37.072C13.5027 36.984 13.8427 36.94 14.1867 36.94C14.7467 36.94 15.1747 37.032 15.4707 37.216C15.7667 37.4 15.9707 37.644 16.0827 37.948C16.1947 38.252 16.2507 38.584 16.2507 38.944V41.512C16.2507 41.696 16.2867 41.852 16.3587 41.98C16.4307 42.1 16.5747 42.16 16.7907 42.16H16.9227V43.06H16.7427ZM12.8187 41.368C12.8187 41.64 12.8827 41.86 13.0107 42.028C13.1387 42.196 13.3227 42.28 13.5627 42.28C13.7707 42.28 14.0107 42.22 14.2827 42.1C14.5547 41.972 14.8907 41.72 15.2907 41.344V40.588C14.7467 40.5 14.2667 40.456 13.8507 40.456C13.4827 40.456 13.2187 40.532 13.0587 40.684C12.8987 40.836 12.8187 41.064 12.8187 41.368ZM21.3407 42.784C20.8927 43.008 20.4167 43.12 19.9127 43.12C19.4807 43.12 19.1407 43.032 18.8927 42.856C18.6527 42.68 18.4807 42.444 18.3767 42.148C18.2807 41.852 18.2327 41.524 18.2327 41.164V37.924H17.2007V37.06H18.2327V35.404H19.2167V37.06H21.1607V37.924H19.2167V41.128C19.2167 41.544 19.2847 41.832 19.4207 41.992C19.5647 42.144 19.7847 42.22 20.0807 42.22C20.2247 42.22 20.3727 42.204 20.5247 42.172C20.6847 42.132 20.8567 42.068 21.0407 41.98L21.3407 42.784ZM26.2206 42.244C27.0206 42.244 27.4206 41.972 27.4206 41.428C27.4206 41.196 27.3486 41.012 27.2046 40.876C27.0606 40.74 26.7966 40.624 26.4126 40.528L25.7526 40.36C25.2646 40.24 24.9006 40.032 24.6606 39.736C24.4206 39.432 24.3006 39.072 24.3006 38.656C24.3006 38.352 24.3686 38.072 24.5046 37.816C24.6406 37.552 24.8566 37.34 25.1526 37.18C25.4486 37.02 25.8326 36.94 26.3046 36.94C26.6086 36.94 26.9166 36.976 27.2286 37.048C27.5486 37.112 27.8726 37.224 28.2006 37.384L27.8886 38.212C27.3046 37.948 26.7766 37.816 26.3046 37.816C25.6086 37.816 25.2606 38.076 25.2606 38.596C25.2606 38.796 25.3246 38.968 25.4526 39.112C25.5806 39.256 25.8206 39.372 26.1726 39.46L26.8326 39.628C27.3606 39.756 27.7486 39.964 27.9966 40.252C28.2446 40.54 28.3686 40.912 28.3686 41.368C28.3686 41.696 28.2966 41.996 28.1526 42.268C28.0166 42.532 27.7926 42.74 27.4806 42.892C27.1766 43.044 26.7646 43.12 26.2446 43.12C25.9006 43.12 25.5566 43.084 25.2126 43.012C24.8766 42.94 24.5286 42.824 24.1686 42.664L24.4326 41.848C24.7766 41.984 25.0886 42.084 25.3686 42.148C25.6486 42.212 25.9326 42.244 26.2206 42.244ZM30.3925 39.676V40.384C30.3925 40.992 30.5045 41.452 30.7285 41.764C30.9525 42.068 31.3085 42.22 31.7965 42.22C32.2765 42.22 32.7925 42.096 33.3445 41.848L33.6445 42.676C32.9885 42.972 32.3525 43.12 31.7365 43.12C30.9685 43.12 30.3845 42.876 29.9845 42.388C29.5845 41.9 29.3845 41.232 29.3845 40.384V39.676C29.3845 38.828 29.5845 38.16 29.9845 37.672C30.3845 37.184 30.9685 36.94 31.7365 36.94C32.0245 36.94 32.3205 36.98 32.6245 37.06C32.9365 37.132 33.2485 37.236 33.5605 37.372L33.2605 38.212C32.9965 38.1 32.7405 38.012 32.4925 37.948C32.2525 37.884 32.0205 37.852 31.7965 37.852C31.3085 37.852 30.9525 38.008 30.7285 38.32C30.5045 38.624 30.3925 39.076 30.3925 39.676ZM39.1912 43.06C38.8232 43.06 38.5272 42.976 38.3032 42.808C38.0872 42.64 37.9352 42.432 37.8472 42.184C37.4552 42.528 37.0992 42.772 36.7792 42.916C36.4592 43.052 36.1392 43.12 35.8192 43.12C35.2992 43.12 34.9152 42.952 34.6672 42.616C34.4192 42.28 34.2952 41.868 34.2952 41.38C34.2952 41.052 34.3552 40.76 34.4752 40.504C34.5952 40.248 34.7992 40.048 35.0872 39.904C35.3752 39.752 35.7632 39.676 36.2512 39.676C36.4672 39.676 36.7032 39.692 36.9592 39.724C37.2152 39.748 37.4752 39.78 37.7392 39.82V39.016C37.7392 38.568 37.6392 38.264 37.4392 38.104C37.2472 37.936 36.9632 37.852 36.5872 37.852C36.0752 37.852 35.5032 37.992 34.8712 38.272L34.5592 37.456C34.9272 37.288 35.2792 37.16 35.6152 37.072C35.9512 36.984 36.2912 36.94 36.6352 36.94C37.1952 36.94 37.6232 37.032 37.9192 37.216C38.2152 37.4 38.4192 37.644 38.5312 37.948C38.6432 38.252 38.6992 38.584 38.6992 38.944V41.512C38.6992 41.696 38.7352 41.852 38.8072 41.98C38.8792 42.1 39.0232 42.16 39.2392 42.16H39.3712V43.06H39.1912ZM35.2672 41.368C35.2672 41.64 35.3312 41.86 35.4592 42.028C35.5872 42.196 35.7712 42.28 36.0112 42.28C36.2192 42.28 36.4592 42.22 36.7312 42.1C37.0032 41.972 37.3392 41.72 37.7392 41.344V40.588C37.1952 40.5 36.7152 40.456 36.2992 40.456C35.9312 40.456 35.6672 40.532 35.5072 40.684C35.3472 40.836 35.2672 41.064 35.2672 41.368ZM40.5131 41.56V34.12H41.4971V41.512C41.4971 41.728 41.5291 41.892 41.5931 42.004C41.6651 42.108 41.8051 42.16 42.0131 42.16H42.2051V43.06H41.9291C41.4011 43.06 41.0331 42.92 40.8251 42.64C40.6171 42.36 40.5131 42 40.5131 41.56ZM47.7572 42.652C47.3972 42.828 47.0372 42.948 46.6772 43.012C46.3172 43.084 45.9852 43.12 45.6812 43.12C44.8252 43.12 44.1852 42.876 43.7612 42.388C43.3452 41.9 43.1372 41.232 43.1372 40.384V39.664C43.1372 38.84 43.3452 38.18 43.7612 37.684C44.1852 37.188 44.7812 36.94 45.5492 36.94C45.9572 36.94 46.3292 37.024 46.6652 37.192C47.0092 37.352 47.2812 37.6 47.4812 37.936C47.6892 38.264 47.7932 38.688 47.7932 39.208C47.7932 39.544 47.7452 39.928 47.6492 40.36H44.1092V40.384C44.1092 40.992 44.2332 41.452 44.4812 41.764C44.7372 42.076 45.1452 42.232 45.7052 42.232C45.9612 42.232 46.2412 42.2 46.5452 42.136C46.8572 42.072 47.1612 41.972 47.4572 41.836L47.7572 42.652ZM45.5492 37.804C45.0852 37.804 44.7332 37.956 44.4932 38.26C44.2612 38.556 44.1332 38.976 44.1092 39.52H46.7972C46.8212 39.376 46.8332 39.24 46.8332 39.112C46.8332 38.664 46.7052 38.336 46.4492 38.128C46.2012 37.912 45.9012 37.804 45.5492 37.804ZM50.7081 42.244C51.5081 42.244 51.9081 41.972 51.9081 41.428C51.9081 41.196 51.8361 41.012 51.6921 40.876C51.5481 40.74 51.2841 40.624 50.9001 40.528L50.2401 40.36C49.7521 40.24 49.3881 40.032 49.1481 39.736C48.9081 39.432 48.7881 39.072 48.7881 38.656C48.7881 38.352 48.8561 38.072 48.9921 37.816C49.1281 37.552 49.3441 37.34 49.6401 37.18C49.9361 37.02 50.3201 36.94 50.7921 36.94C51.0961 36.94 51.4041 36.976 51.7161 37.048C52.0361 37.112 52.3601 37.224 52.6881 37.384L52.3761 38.212C51.7921 37.948 51.2641 37.816 50.7921 37.816C50.0961 37.816 49.7481 38.076 49.7481 38.596C49.7481 38.796 49.8121 38.968 49.9401 39.112C50.0681 39.256 50.3081 39.372 50.6601 39.46L51.3201 39.628C51.8481 39.756 52.2361 39.964 52.4841 40.252C52.7321 40.54 52.8561 40.912 52.8561 41.368C52.8561 41.696 52.7841 41.996 52.6401 42.268C52.5041 42.532 52.2801 42.74 51.9681 42.892C51.6641 43.044 51.2521 43.12 50.7321 43.12C50.3881 43.12 50.0441 43.084 49.7001 43.012C49.3641 42.94 49.0161 42.824 48.6561 42.664L48.9201 41.848C49.2641 41.984 49.5761 42.084 49.8561 42.148C50.1361 42.212 50.4201 42.244 50.7081 42.244ZM61.3573 40.384C61.3573 41.216 61.1493 41.88 60.7333 42.376C60.3173 42.872 59.7053 43.12 58.8973 43.12C58.0973 43.12 57.3053 42.908 56.5213 42.484V34.12H57.5053V37.864C57.8653 37.528 58.1933 37.292 58.4893 37.156C58.7933 37.012 59.1013 36.94 59.4133 36.94C60.0373 36.94 60.5173 37.18 60.8533 37.66C61.1893 38.14 61.3573 38.816 61.3573 39.688V40.384ZM59.1733 37.864C58.9493 37.864 58.7093 37.924 58.4533 38.044C58.2053 38.164 57.8893 38.412 57.5053 38.788V41.932C57.9773 42.132 58.4213 42.232 58.8373 42.232C59.3733 42.232 59.7573 42.068 59.9893 41.74C60.2213 41.404 60.3373 40.952 60.3373 40.384V39.688C60.3373 39.064 60.2413 38.604 60.0493 38.308C59.8573 38.012 59.5653 37.864 59.1733 37.864ZM67.2464 42.652C66.8864 42.828 66.5264 42.948 66.1664 43.012C65.8064 43.084 65.4744 43.12 65.1704 43.12C64.3144 43.12 63.6744 42.876 63.2504 42.388C62.8344 41.9 62.6264 41.232 62.6264 40.384V39.664C62.6264 38.84 62.8344 38.18 63.2504 37.684C63.6744 37.188 64.2704 36.94 65.0384 36.94C65.4464 36.94 65.8184 37.024 66.1544 37.192C66.4984 37.352 66.7704 37.6 66.9704 37.936C67.1784 38.264 67.2824 38.688 67.2824 39.208C67.2824 39.544 67.2344 39.928 67.1384 40.36H63.5984V40.384C63.5984 40.992 63.7224 41.452 63.9704 41.764C64.2264 42.076 64.6344 42.232 65.1944 42.232C65.4504 42.232 65.7304 42.2 66.0344 42.136C66.3464 42.072 66.6504 41.972 66.9464 41.836L67.2464 42.652ZM65.0384 37.804C64.5744 37.804 64.2224 37.956 63.9824 38.26C63.7504 38.556 63.6224 38.976 63.5984 39.52H66.2864C66.3104 39.376 66.3224 39.24 66.3224 39.112C66.3224 38.664 66.1944 38.336 65.9384 38.128C65.6904 37.912 65.3904 37.804 65.0384 37.804ZM72.0093 42.784C71.5613 43.008 71.0853 43.12 70.5813 43.12C70.1493 43.12 69.8093 43.032 69.5613 42.856C69.3213 42.68 69.1493 42.444 69.0453 42.148C68.9493 41.852 68.9013 41.524 68.9013 41.164V37.924H67.8693V37.06H68.9013V35.404H69.8853V37.06H71.8293V37.924H69.8853V41.128C69.8853 41.544 69.9533 41.832 70.0893 41.992C70.2333 42.144 70.4533 42.22 70.7493 42.22C70.8933 42.22 71.0413 42.204 71.1933 42.172C71.3533 42.132 71.5253 42.068 71.7093 41.98L72.0093 42.784ZM80.2279 37.06L78.7039 43H77.5639L76.3159 38.128L75.0319 43H73.8919L72.3799 37.06H73.3879L73.9879 39.544L74.5279 42.004L75.8119 37.06H76.8559L78.1399 42.028L78.6679 39.556L79.2559 37.06H80.2279ZM85.6749 42.652C85.3149 42.828 84.9549 42.948 84.5949 43.012C84.2349 43.084 83.9029 43.12 83.5989 43.12C82.7429 43.12 82.1029 42.876 81.6789 42.388C81.2629 41.9 81.0549 41.232 81.0549 40.384V39.664C81.0549 38.84 81.2629 38.18 81.6789 37.684C82.1029 37.188 82.6989 36.94 83.4669 36.94C83.8749 36.94 84.2469 37.024 84.5829 37.192C84.9269 37.352 85.1989 37.6 85.3989 37.936C85.6069 38.264 85.7109 38.688 85.7109 39.208C85.7109 39.544 85.6629 39.928 85.5669 40.36H82.0269V40.384C82.0269 40.992 82.1509 41.452 82.3989 41.764C82.6549 42.076 83.0629 42.232 83.6229 42.232C83.8789 42.232 84.1589 42.2 84.4629 42.136C84.7749 42.072 85.0789 41.972 85.3749 41.836L85.6749 42.652ZM83.4669 37.804C83.0029 37.804 82.6509 37.956 82.4109 38.26C82.1789 38.556 82.0509 38.976 82.0269 39.52H84.7149C84.7389 39.376 84.7509 39.24 84.7509 39.112C84.7509 38.664 84.6229 38.336 84.3669 38.128C84.1189 37.912 83.8189 37.804 83.4669 37.804ZM91.4817 42.652C91.1217 42.828 90.7617 42.948 90.4017 43.012C90.0417 43.084 89.7097 43.12 89.4057 43.12C88.5497 43.12 87.9097 42.876 87.4857 42.388C87.0697 41.9 86.8617 41.232 86.8617 40.384V39.664C86.8617 38.84 87.0697 38.18 87.4857 37.684C87.9097 37.188 88.5057 36.94 89.2737 36.94C89.6817 36.94 90.0537 37.024 90.3897 37.192C90.7337 37.352 91.0057 37.6 91.2057 37.936C91.4137 38.264 91.5177 38.688 91.5177 39.208C91.5177 39.544 91.4697 39.928 91.3737 40.36H87.8337V40.384C87.8337 40.992 87.9577 41.452 88.2057 41.764C88.4617 42.076 88.8697 42.232 89.4297 42.232C89.6857 42.232 89.9657 42.2 90.2697 42.136C90.5817 42.072 90.8857 41.972 91.1817 41.836L91.4817 42.652ZM89.2737 37.804C88.8097 37.804 88.4577 37.956 88.2177 38.26C87.9857 38.556 87.8577 38.976 87.8337 39.52H90.5217C90.5457 39.376 90.5577 39.24 90.5577 39.112C90.5577 38.664 90.4297 38.336 90.1737 38.128C89.9257 37.912 89.6257 37.804 89.2737 37.804ZM95.8366 37.864C95.6126 37.864 95.3486 37.92 95.0446 38.032C94.7486 38.144 94.3886 38.372 93.9646 38.716V43H92.9806V37.06H93.9166V37.888C94.3406 37.528 94.7246 37.28 95.0686 37.144C95.4206 37.008 95.7566 36.94 96.0766 36.94C96.6286 36.94 97.0486 37.116 97.3366 37.468C97.6326 37.812 97.7806 38.304 97.7806 38.944V43H96.7966V39.088C96.7966 38.272 96.4766 37.864 95.8366 37.864ZM106.313 43.06C105.945 43.06 105.649 42.976 105.425 42.808C105.209 42.64 105.057 42.432 104.969 42.184C104.577 42.528 104.221 42.772 103.901 42.916C103.581 43.052 103.261 43.12 102.941 43.12C102.421 43.12 102.037 42.952 101.789 42.616C101.541 42.28 101.417 41.868 101.417 41.38C101.417 41.052 101.477 40.76 101.597 40.504C101.717 40.248 101.921 40.048 102.209 39.904C102.497 39.752 102.885 39.676 103.373 39.676C103.589 39.676 103.825 39.692 104.081 39.724C104.337 39.748 104.597 39.78 104.861 39.82V39.016C104.861 38.568 104.761 38.264 104.561 38.104C104.369 37.936 104.085 37.852 103.709 37.852C103.197 37.852 102.625 37.992 101.993 38.272L101.681 37.456C102.049 37.288 102.401 37.16 102.737 37.072C103.073 36.984 103.413 36.94 103.757 36.94C104.317 36.94 104.745 37.032 105.041 37.216C105.337 37.4 105.541 37.644 105.653 37.948C105.765 38.252 105.821 38.584 105.821 38.944V41.512C105.821 41.696 105.857 41.852 105.929 41.98C106.001 42.1 106.145 42.16 106.361 42.16H106.493V43.06H106.313ZM102.389 41.368C102.389 41.64 102.453 41.86 102.581 42.028C102.709 42.196 102.893 42.28 103.133 42.28C103.341 42.28 103.581 42.22 103.853 42.1C104.125 41.972 104.461 41.72 104.861 41.344V40.588C104.317 40.5 103.837 40.456 103.421 40.456C103.053 40.456 102.789 40.532 102.629 40.684C102.469 40.836 102.389 41.064 102.389 41.368ZM12.5009 58.56V51.12H13.4849V58.512C13.4849 58.728 13.5169 58.892 13.5809 59.004C13.6529 59.108 13.7929 59.16 14.0009 59.16H14.1929V60.06H13.9169C13.3889 60.06 13.0209 59.92 12.8129 59.64C12.6049 59.36 12.5009 59 12.5009 58.56ZM16.4809 52.608H15.3769V51.504H16.4809V52.608ZM16.4209 60H15.4369V54.06H16.4209V60ZM23.1024 57.384C23.1024 58.216 22.8944 58.88 22.4784 59.376C22.0624 59.872 21.4504 60.12 20.6424 60.12C19.8424 60.12 19.0504 59.908 18.2664 59.484V51.12H19.2504V54.864C19.6104 54.528 19.9384 54.292 20.2344 54.156C20.5384 54.012 20.8464 53.94 21.1584 53.94C21.7824 53.94 22.2624 54.18 22.5984 54.66C22.9344 55.14 23.1024 55.816 23.1024 56.688V57.384ZM20.9184 54.864C20.6944 54.864 20.4544 54.924 20.1984 55.044C19.9504 55.164 19.6344 55.412 19.2504 55.788V58.932C19.7224 59.132 20.1664 59.232 20.5824 59.232C21.1184 59.232 21.5024 59.068 21.7344 58.74C21.9664 58.404 22.0824 57.952 22.0824 57.384V56.688C22.0824 56.064 21.9864 55.604 21.7944 55.308C21.6024 55.012 21.3104 54.864 20.9184 54.864ZM27.8035 54.924C27.4435 54.924 27.0915 54.988 26.7475 55.116C26.4115 55.244 26.0515 55.488 25.6675 55.848V60H24.6835V54.06H25.6195V55.02C26.0275 54.62 26.3995 54.34 26.7355 54.18C27.0795 54.02 27.4355 53.94 27.8035 53.94V54.924ZM33.1938 60.06C32.8258 60.06 32.5298 59.976 32.3058 59.808C32.0898 59.64 31.9378 59.432 31.8498 59.184C31.4578 59.528 31.1018 59.772 30.7818 59.916C30.4618 60.052 30.1418 60.12 29.8218 60.12C29.3018 60.12 28.9178 59.952 28.6698 59.616C28.4218 59.28 28.2978 58.868 28.2978 58.38C28.2978 58.052 28.3578 57.76 28.4778 57.504C28.5978 57.248 28.8018 57.048 29.0898 56.904C29.3778 56.752 29.7658 56.676 30.2538 56.676C30.4698 56.676 30.7058 56.692 30.9618 56.724C31.2178 56.748 31.4778 56.78 31.7418 56.82V56.016C31.7418 55.568 31.6418 55.264 31.4418 55.104C31.2498 54.936 30.9658 54.852 30.5898 54.852C30.0778 54.852 29.5058 54.992 28.8738 55.272L28.5618 54.456C28.9298 54.288 29.2818 54.16 29.6178 54.072C29.9538 53.984 30.2938 53.94 30.6378 53.94C31.1978 53.94 31.6258 54.032 31.9218 54.216C32.2178 54.4 32.4218 54.644 32.5338 54.948C32.6458 55.252 32.7018 55.584 32.7018 55.944V58.512C32.7018 58.696 32.7378 58.852 32.8098 58.98C32.8818 59.1 33.0258 59.16 33.2418 59.16H33.3738V60.06H33.1938ZM29.2698 58.368C29.2698 58.64 29.3338 58.86 29.4618 59.028C29.5898 59.196 29.7738 59.28 30.0138 59.28C30.2218 59.28 30.4618 59.22 30.7338 59.1C31.0058 58.972 31.3418 58.72 31.7418 58.344V57.588C31.1978 57.5 30.7178 57.456 30.3018 57.456C29.9338 57.456 29.6698 57.532 29.5098 57.684C29.3498 57.836 29.2698 58.064 29.2698 58.368ZM37.6477 54.924C37.2877 54.924 36.9357 54.988 36.5917 55.116C36.2557 55.244 35.8957 55.488 35.5117 55.848V60H34.5277V54.06H35.4637V55.02C35.8717 54.62 36.2437 54.34 36.5797 54.18C36.9237 54.02 37.2797 53.94 37.6477 53.94V54.924ZM40.722 60.6C40.466 61.32 40.15 61.844 39.774 62.172C39.406 62.508 38.89 62.676 38.226 62.676V61.704C38.498 61.696 38.73 61.66 38.922 61.596C39.122 61.532 39.298 61.4 39.45 61.2C39.61 61.008 39.762 60.72 39.906 60.336L40.026 60.036L37.89 54.06H38.898L39.894 56.952L40.506 58.8L41.094 56.952L42.066 54.06H43.038L40.722 60.6ZM50.8314 60.06C50.4634 60.06 50.1674 59.976 49.9434 59.808C49.7274 59.64 49.5754 59.432 49.4874 59.184C49.0954 59.528 48.7394 59.772 48.4194 59.916C48.0994 60.052 47.7794 60.12 47.4594 60.12C46.9394 60.12 46.5554 59.952 46.3074 59.616C46.0594 59.28 45.9354 58.868 45.9354 58.38C45.9354 58.052 45.9954 57.76 46.1154 57.504C46.2354 57.248 46.4394 57.048 46.7274 56.904C47.0154 56.752 47.4034 56.676 47.8914 56.676C48.1074 56.676 48.3434 56.692 48.5994 56.724C48.8554 56.748 49.1154 56.78 49.3794 56.82V56.016C49.3794 55.568 49.2794 55.264 49.0794 55.104C48.8874 54.936 48.6034 54.852 48.2274 54.852C47.7154 54.852 47.1434 54.992 46.5114 55.272L46.1994 54.456C46.5674 54.288 46.9194 54.16 47.2554 54.072C47.5914 53.984 47.9314 53.94 48.2754 53.94C48.8354 53.94 49.2634 54.032 49.5594 54.216C49.8554 54.4 50.0594 54.644 50.1714 54.948C50.2834 55.252 50.3394 55.584 50.3394 55.944V58.512C50.3394 58.696 50.3754 58.852 50.4474 58.98C50.5194 59.1 50.6634 59.16 50.8794 59.16H51.0114V60.06H50.8314ZM46.9074 58.368C46.9074 58.64 46.9714 58.86 47.0994 59.028C47.2274 59.196 47.4114 59.28 47.6514 59.28C47.8594 59.28 48.0994 59.22 48.3714 59.1C48.6434 58.972 48.9794 58.72 49.3794 58.344V57.588C48.8354 57.5 48.3554 57.456 47.9394 57.456C47.5714 57.456 47.3074 57.532 47.1474 57.684C46.9874 57.836 46.9074 58.064 46.9074 58.368ZM55.0214 54.864C54.7974 54.864 54.5334 54.92 54.2294 55.032C53.9334 55.144 53.5734 55.372 53.1494 55.716V60H52.1654V54.06H53.1014V54.888C53.5254 54.528 53.9094 54.28 54.2534 54.144C54.6054 54.008 54.9414 53.94 55.2614 53.94C55.8134 53.94 56.2334 54.116 56.5214 54.468C56.8174 54.812 56.9654 55.304 56.9654 55.944V60H55.9814V56.088C55.9814 55.272 55.6614 54.864 55.0214 54.864ZM62.3928 60V59.172C62.0248 59.524 61.6888 59.772 61.3848 59.916C61.0888 60.052 60.7808 60.12 60.4608 60.12C59.8288 60.12 59.3408 59.88 58.9968 59.4C58.6608 58.92 58.4928 58.248 58.4928 57.384V56.688C58.4928 55.848 58.7008 55.18 59.1168 54.684C59.5408 54.188 60.1528 53.94 60.9528 53.94C61.1848 53.94 61.4168 53.964 61.6488 54.012C61.8808 54.06 62.1128 54.128 62.3448 54.216V51.12H63.3288V60H62.3928ZM59.5128 57.384C59.5128 58.008 59.6088 58.468 59.8008 58.764C60.0008 59.052 60.2968 59.196 60.6888 59.196C60.9208 59.196 61.1608 59.14 61.4088 59.028C61.6568 58.908 61.9688 58.664 62.3448 58.296V55.128C62.1128 55.024 61.8888 54.952 61.6728 54.912C61.4568 54.864 61.2448 54.84 61.0368 54.84C60.4928 54.84 60.1008 55.004 59.8608 55.332C59.6288 55.66 59.5128 56.112 59.5128 56.688V57.384ZM71.9261 60.06C71.5581 60.06 71.2621 59.976 71.0381 59.808C70.8221 59.64 70.6701 59.432 70.5821 59.184C70.1901 59.528 69.8341 59.772 69.5141 59.916C69.1941 60.052 68.8741 60.12 68.5541 60.12C68.0341 60.12 67.6501 59.952 67.4021 59.616C67.1541 59.28 67.0301 58.868 67.0301 58.38C67.0301 58.052 67.0901 57.76 67.2101 57.504C67.3301 57.248 67.5341 57.048 67.8221 56.904C68.1101 56.752 68.4981 56.676 68.9861 56.676C69.2021 56.676 69.4381 56.692 69.6941 56.724C69.9501 56.748 70.2101 56.78 70.4741 56.82V56.016C70.4741 55.568 70.3741 55.264 70.1741 55.104C69.9821 54.936 69.6981 54.852 69.3221 54.852C68.8101 54.852 68.2381 54.992 67.6061 55.272L67.2941 54.456C67.6621 54.288 68.0141 54.16 68.3501 54.072C68.6861 53.984 69.0261 53.94 69.3701 53.94C69.9301 53.94 70.3581 54.032 70.6541 54.216C70.9501 54.4 71.1541 54.644 71.2661 54.948C71.3781 55.252 71.4341 55.584 71.4341 55.944V58.512C71.4341 58.696 71.4701 58.852 71.5421 58.98C71.6141 59.1 71.7581 59.16 71.9741 59.16H72.1061V60.06H71.9261ZM68.0021 58.368C68.0021 58.64 68.0661 58.86 68.1941 59.028C68.3221 59.196 68.5061 59.28 68.7461 59.28C68.9541 59.28 69.1941 59.22 69.4661 59.1C69.7381 58.972 70.0741 58.72 70.4741 58.344V57.588C69.9301 57.5 69.4501 57.456 69.0341 57.456C68.6661 57.456 68.4021 57.532 68.2421 57.684C68.0821 57.836 68.0021 58.064 68.0021 58.368ZM78.7533 54.924H76.8093V60H75.8253V54.924H74.7933V54.06H75.8253V53.076C75.8253 52.708 75.8853 52.368 76.0053 52.056C76.1333 51.736 76.3373 51.48 76.6173 51.288C76.8973 51.096 77.2693 51 77.7333 51C77.9653 51 78.2093 51.028 78.4653 51.084C78.7293 51.132 78.9733 51.208 79.1973 51.312L78.9213 52.14C78.5133 51.98 78.1573 51.9 77.8533 51.9C77.5173 51.9 77.2573 51.992 77.0733 52.176C76.8973 52.36 76.8093 52.656 76.8093 53.064V54.06H78.7533V54.924ZM83.2487 60V59.16C82.8327 59.52 82.4607 59.772 82.1327 59.916C81.8047 60.052 81.4767 60.12 81.1487 60.12C80.6207 60.12 80.2167 59.948 79.9367 59.604C79.6567 59.252 79.5167 58.76 79.5167 58.128V54.06H80.5007V57.984C80.5007 58.4 80.5727 58.708 80.7167 58.908C80.8687 59.1 81.0927 59.196 81.3887 59.196C81.6127 59.196 81.8647 59.14 82.1447 59.028C82.4247 58.916 82.7727 58.692 83.1887 58.356V54.06H84.1727V60H83.2487ZM86.0398 58.56V51.12H87.0238V58.512C87.0238 58.728 87.0558 58.892 87.1198 59.004C87.1918 59.108 87.3318 59.16 87.5398 59.16H87.7318V60.06H87.4558C86.9278 60.06 86.5598 59.92 86.3518 59.64C86.1438 59.36 86.0398 59 86.0398 58.56ZM88.9638 58.56V51.12H89.9478V58.512C89.9478 58.728 89.9798 58.892 90.0438 59.004C90.1158 59.108 90.2558 59.16 90.4638 59.16H90.6558V60.06H90.3798C89.8518 60.06 89.4838 59.92 89.2758 59.64C89.0678 59.36 88.9638 59 88.9638 58.56ZM91.5159 56.796V55.932H94.8759V56.796H91.5159ZM6.84967 71.924H4.90567V77H3.92167V71.924H2.88967V71.06H3.92167V70.076C3.92167 69.708 3.98167 69.368 4.10167 69.056C4.22967 68.736 4.43367 68.48 4.71367 68.288C4.99367 68.096 5.36567 68 5.82967 68C6.06167 68 6.30567 68.028 6.56167 68.084C6.82567 68.132 7.06967 68.208 7.29367 68.312L7.01767 69.14C6.60967 68.98 6.25367 68.9 5.94967 68.9C5.61367 68.9 5.35367 68.992 5.16967 69.176C4.99367 69.36 4.90567 69.656 4.90567 70.064V71.06H6.84967V71.924ZM11.993 76.652C11.633 76.828 11.273 76.948 10.913 77.012C10.553 77.084 10.221 77.12 9.91698 77.12C9.06098 77.12 8.42098 76.876 7.99698 76.388C7.58098 75.9 7.37298 75.232 7.37298 74.384V73.664C7.37298 72.84 7.58098 72.18 7.99698 71.684C8.42098 71.188 9.01698 70.94 9.78498 70.94C10.193 70.94 10.565 71.024 10.901 71.192C11.245 71.352 11.517 71.6 11.717 71.936C11.925 72.264 12.029 72.688 12.029 73.208C12.029 73.544 11.981 73.928 11.885 74.36H8.34498V74.384C8.34498 74.992 8.46898 75.452 8.71698 75.764C8.97298 76.076 9.38098 76.232 9.94098 76.232C10.197 76.232 10.477 76.2 10.781 76.136C11.093 76.072 11.397 75.972 11.693 75.836L11.993 76.652ZM9.78498 71.804C9.32098 71.804 8.96898 71.956 8.72898 72.26C8.49698 72.556 8.36898 72.976 8.34498 73.52H11.033C11.057 73.376 11.069 73.24 11.069 73.112C11.069 72.664 10.941 72.336 10.685 72.128C10.437 71.912 10.137 71.804 9.78498 71.804ZM17.8359 77.06C17.4679 77.06 17.1719 76.976 16.9479 76.808C16.7319 76.64 16.5799 76.432 16.4919 76.184C16.0999 76.528 15.7439 76.772 15.4239 76.916C15.1039 77.052 14.7839 77.12 14.4639 77.12C13.9439 77.12 13.5599 76.952 13.3119 76.616C13.0639 76.28 12.9399 75.868 12.9399 75.38C12.9399 75.052 12.9999 74.76 13.1199 74.504C13.2399 74.248 13.4439 74.048 13.7319 73.904C14.0199 73.752 14.4079 73.676 14.8959 73.676C15.1119 73.676 15.3479 73.692 15.6039 73.724C15.8599 73.748 16.1199 73.78 16.3839 73.82V73.016C16.3839 72.568 16.2839 72.264 16.0839 72.104C15.8919 71.936 15.6079 71.852 15.2319 71.852C14.7199 71.852 14.1479 71.992 13.5159 72.272L13.2039 71.456C13.5719 71.288 13.9239 71.16 14.2599 71.072C14.5959 70.984 14.9359 70.94 15.2799 70.94C15.8399 70.94 16.2679 71.032 16.5639 71.216C16.8599 71.4 17.0639 71.644 17.1759 71.948C17.2879 72.252 17.3439 72.584 17.3439 72.944V75.512C17.3439 75.696 17.3799 75.852 17.4519 75.98C17.5239 76.1 17.6679 76.16 17.8839 76.16H18.0159V77.06H17.8359ZM13.9119 75.368C13.9119 75.64 13.9759 75.86 14.1039 76.028C14.2319 76.196 14.4159 76.28 14.6559 76.28C14.8639 76.28 15.1039 76.22 15.3759 76.1C15.6479 75.972 15.9839 75.72 16.3839 75.344V74.588C15.8399 74.5 15.3599 74.456 14.9439 74.456C14.5759 74.456 14.3119 74.532 14.1519 74.684C13.9919 74.836 13.9119 75.064 13.9119 75.368ZM22.4338 76.784C21.9858 77.008 21.5098 77.12 21.0058 77.12C20.5738 77.12 20.2338 77.032 19.9858 76.856C19.7458 76.68 19.5738 76.444 19.4698 76.148C19.3738 75.852 19.3258 75.524 19.3258 75.164V71.924H18.2938V71.06H19.3258V69.404H20.3098V71.06H22.2538V71.924H20.3098V75.128C20.3098 75.544 20.3778 75.832 20.5138 75.992C20.6578 76.144 20.8778 76.22 21.1738 76.22C21.3178 76.22 21.4658 76.204 21.6178 76.172C21.7778 76.132 21.9498 76.068 22.1338 75.98L22.4338 76.784ZM27.1484 77V76.16C26.7324 76.52 26.3604 76.772 26.0324 76.916C25.7044 77.052 25.3764 77.12 25.0484 77.12C24.5204 77.12 24.1164 76.948 23.8364 76.604C23.5564 76.252 23.4164 75.76 23.4164 75.128V71.06H24.4004V74.984C24.4004 75.4 24.4724 75.708 24.6164 75.908C24.7684 76.1 24.9924 76.196 25.2884 76.196C25.5124 76.196 25.7644 76.14 26.0444 76.028C26.3244 75.916 26.6724 75.692 27.0884 75.356V71.06H28.0724V77H27.1484ZM33.0715 71.924C32.7115 71.924 32.3595 71.988 32.0155 72.116C31.6795 72.244 31.3195 72.488 30.9355 72.848V77H29.9515V71.06H30.8875V72.02C31.2955 71.62 31.6675 71.34 32.0035 71.18C32.3475 71.02 32.7035 70.94 33.0715 70.94V71.924ZM38.4258 76.652C38.0658 76.828 37.7058 76.948 37.3458 77.012C36.9858 77.084 36.6538 77.12 36.3498 77.12C35.4938 77.12 34.8538 76.876 34.4298 76.388C34.0138 75.9 33.8058 75.232 33.8058 74.384V73.664C33.8058 72.84 34.0138 72.18 34.4298 71.684C34.8538 71.188 35.4498 70.94 36.2178 70.94C36.6258 70.94 36.9978 71.024 37.3338 71.192C37.6778 71.352 37.9498 71.6 38.1498 71.936C38.3578 72.264 38.4618 72.688 38.4618 73.208C38.4618 73.544 38.4138 73.928 38.3178 74.36H34.7778V74.384C34.7778 74.992 34.9018 75.452 35.1498 75.764C35.4058 76.076 35.8138 76.232 36.3738 76.232C36.6298 76.232 36.9098 76.2 37.2138 76.136C37.5258 76.072 37.8298 75.972 38.1258 75.836L38.4258 76.652ZM36.2178 71.804C35.7538 71.804 35.4018 71.956 35.1618 72.26C34.9298 72.556 34.8018 72.976 34.7778 73.52H37.4658C37.4898 73.376 37.5018 73.24 37.5018 73.112C37.5018 72.664 37.3738 72.336 37.1178 72.128C36.8698 71.912 36.5698 71.804 36.2178 71.804ZM43.5367 77V76.172C43.1687 76.524 42.8327 76.772 42.5287 76.916C42.2327 77.052 41.9247 77.12 41.6047 77.12C40.9727 77.12 40.4847 76.88 40.1407 76.4C39.8047 75.92 39.6367 75.248 39.6367 74.384V73.688C39.6367 72.848 39.8447 72.18 40.2607 71.684C40.6847 71.188 41.2967 70.94 42.0967 70.94C42.3287 70.94 42.5607 70.964 42.7927 71.012C43.0247 71.06 43.2567 71.128 43.4887 71.216V68.12H44.4727V77H43.5367ZM40.6567 74.384C40.6567 75.008 40.7527 75.468 40.9447 75.764C41.1447 76.052 41.4407 76.196 41.8327 76.196C42.0647 76.196 42.3047 76.14 42.5527 76.028C42.8007 75.908 43.1127 75.664 43.4887 75.296V72.128C43.2567 72.024 43.0327 71.952 42.8167 71.912C42.6007 71.864 42.3887 71.84 42.1807 71.84C41.6367 71.84 41.2447 72.004 41.0047 72.332C40.7727 72.66 40.6567 73.112 40.6567 73.688V74.384ZM51.8459 71.924H49.9019V77H48.9179V71.924H47.8859V71.06H48.9179V70.076C48.9179 69.708 48.9779 69.368 49.0979 69.056C49.2259 68.736 49.4299 68.48 49.7099 68.288C49.9899 68.096 50.3619 68 50.8259 68C51.0579 68 51.3019 68.028 51.5579 68.084C51.8219 68.132 52.0659 68.208 52.2899 68.312L52.0139 69.14C51.6059 68.98 51.2499 68.9 50.9459 68.9C50.6099 68.9 50.3499 68.992 50.1659 69.176C49.9899 69.36 49.9019 69.656 49.9019 70.064V71.06H51.8459V71.924ZM55.8012 71.924C55.4412 71.924 55.0892 71.988 54.7452 72.116C54.4092 72.244 54.0492 72.488 53.6652 72.848V77H52.6812V71.06H53.6172V72.02C54.0252 71.62 54.3972 71.34 54.7332 71.18C55.0772 71.02 55.4332 70.94 55.8012 70.94V71.924ZM61.1915 77.06C60.8235 77.06 60.5275 76.976 60.3035 76.808C60.0875 76.64 59.9355 76.432 59.8475 76.184C59.4555 76.528 59.0995 76.772 58.7795 76.916C58.4595 77.052 58.1395 77.12 57.8195 77.12C57.2995 77.12 56.9155 76.952 56.6675 76.616C56.4195 76.28 56.2955 75.868 56.2955 75.38C56.2955 75.052 56.3555 74.76 56.4755 74.504C56.5955 74.248 56.7995 74.048 57.0875 73.904C57.3755 73.752 57.7635 73.676 58.2515 73.676C58.4675 73.676 58.7035 73.692 58.9595 73.724C59.2155 73.748 59.4755 73.78 59.7395 73.82V73.016C59.7395 72.568 59.6395 72.264 59.4395 72.104C59.2475 71.936 58.9635 71.852 58.5875 71.852C58.0755 71.852 57.5035 71.992 56.8715 72.272L56.5595 71.456C56.9275 71.288 57.2795 71.16 57.6155 71.072C57.9515 70.984 58.2915 70.94 58.6355 70.94C59.1955 70.94 59.6235 71.032 59.9195 71.216C60.2155 71.4 60.4195 71.644 60.5315 71.948C60.6435 72.252 60.6995 72.584 60.6995 72.944V75.512C60.6995 75.696 60.7355 75.852 60.8075 75.98C60.8795 76.1 61.0235 76.16 61.2395 76.16H61.3715V77.06H61.1915ZM57.2675 75.368C57.2675 75.64 57.3315 75.86 57.4595 76.028C57.5875 76.196 57.7715 76.28 58.0115 76.28C58.2195 76.28 58.4595 76.22 58.7315 76.1C59.0035 75.972 59.3395 75.72 59.7395 75.344V74.588C59.1955 74.5 58.7155 74.456 58.2995 74.456C57.9315 74.456 57.6675 74.532 57.5075 74.684C57.3475 74.836 57.2675 75.064 57.2675 75.368ZM65.3215 71.864C65.0975 71.864 64.8455 71.924 64.5655 72.044C64.2855 72.156 63.9335 72.38 63.5095 72.716V77H62.5255V71.06H63.4615V71.888C63.8855 71.536 64.2615 71.292 64.5895 71.156C64.9175 71.012 65.2415 70.94 65.5615 70.94C65.9375 70.94 66.2495 71.028 66.4975 71.204C66.7455 71.372 66.9295 71.616 67.0495 71.936C67.4895 71.56 67.8815 71.3 68.2255 71.156C68.5775 71.012 68.9215 70.94 69.2575 70.94C69.7855 70.94 70.1895 71.116 70.4695 71.468C70.7495 71.812 70.8895 72.304 70.8895 72.944V77H69.9055V73.088C69.9055 72.272 69.6095 71.864 69.0175 71.864C68.7935 71.864 68.5375 71.924 68.2495 72.044C67.9695 72.156 67.6175 72.38 67.1935 72.716C67.2015 72.748 67.2055 72.784 67.2055 72.824C67.2055 72.864 67.2055 72.904 67.2055 72.944V77H66.2215V73.088C66.2215 72.272 65.9215 71.864 65.3215 71.864ZM77.0231 76.652C76.6631 76.828 76.3031 76.948 75.9431 77.012C75.5831 77.084 75.2511 77.12 74.9471 77.12C74.0911 77.12 73.4511 76.876 73.0271 76.388C72.6111 75.9 72.4031 75.232 72.4031 74.384V73.664C72.4031 72.84 72.6111 72.18 73.0271 71.684C73.4511 71.188 74.0471 70.94 74.8151 70.94C75.2231 70.94 75.5951 71.024 75.9311 71.192C76.2751 71.352 76.5471 71.6 76.7471 71.936C76.9551 72.264 77.0591 72.688 77.0591 73.208C77.0591 73.544 77.0111 73.928 76.9151 74.36H73.3751V74.384C73.3751 74.992 73.4991 75.452 73.7471 75.764C74.0031 76.076 74.4111 76.232 74.9711 76.232C75.2271 76.232 75.5071 76.2 75.8111 76.136C76.1231 76.072 76.4271 75.972 76.7231 75.836L77.0231 76.652ZM74.8151 71.804C74.3511 71.804 73.9991 71.956 73.7591 72.26C73.5271 72.556 73.3991 72.976 73.3751 73.52H76.0631C76.0871 73.376 76.0991 73.24 76.0991 73.112C76.0991 72.664 75.9711 72.336 75.7151 72.128C75.4671 71.912 75.1671 71.804 74.8151 71.804ZM85.6626 71.06L84.1386 77H82.9986L81.7506 72.128L80.4666 77H79.3266L77.8146 71.06H78.8226L79.4226 73.544L79.9626 76.004L81.2466 71.06H82.2906L83.5746 76.028L84.1026 73.556L84.6906 71.06H85.6626ZM91.5055 73.664V74.384C91.5055 75.232 91.2855 75.9 90.8455 76.388C90.4135 76.876 89.7935 77.12 88.9855 77.12C88.1855 77.12 87.5655 76.876 87.1255 76.388C86.6855 75.9 86.4655 75.232 86.4655 74.384V73.664C86.4655 72.832 86.6815 72.172 87.1135 71.684C87.5535 71.188 88.1775 70.94 88.9855 70.94C89.7935 70.94 90.4135 71.188 90.8455 71.684C91.2855 72.172 91.5055 72.832 91.5055 73.664ZM90.4855 73.664C90.4855 73.096 90.3575 72.652 90.1015 72.332C89.8455 72.004 89.4735 71.84 88.9855 71.84C88.5055 71.84 88.1335 72.004 87.8695 72.332C87.6135 72.652 87.4855 73.096 87.4855 73.664V74.384C87.4855 74.976 87.6135 75.432 87.8695 75.752C88.1335 76.072 88.5055 76.232 88.9855 76.232C89.4735 76.232 89.8455 76.072 90.1015 75.752C90.3575 75.432 90.4855 74.976 90.4855 74.384V73.664ZM96.1737 71.924C95.8137 71.924 95.4617 71.988 95.1177 72.116C94.7817 72.244 94.4217 72.488 94.0377 72.848V77H93.0537V71.06H93.9897V72.02C94.3977 71.62 94.7697 71.34 95.1057 71.18C95.4497 71.02 95.8057 70.94 96.1737 70.94V71.924ZM100.88 77L99.212 74.252C99.06 74.404 98.9 74.56 98.732 74.72C98.564 74.88 98.388 75.04 98.204 75.2V77H97.22V68.12H98.204V74.096C98.724 73.592 99.184 73.1 99.584 72.62C99.992 72.14 100.364 71.62 100.7 71.06H101.828C101.54 71.54 101.244 71.984 100.94 72.392C100.644 72.792 100.308 73.2 99.932 73.616L102.068 77H100.88ZM103.722 77H102.618V75.908H103.722V77Z" fill="black"/>
</svg>
