<svg width="119" height="80" viewBox="0 0 119 80" fill="none" xmlns="http://www.w3.org/2000/svg">
<path d="M0.373892 1.824V0.84H6.16989V1.824H3.79389V9H2.74989V1.824H0.373892ZM9.61483 3.924C9.25483 3.924 8.90283 3.988 8.55883 4.116C8.22283 4.244 7.86283 4.488 7.47883 4.848V9H6.49483V3.06H7.43083V4.02C7.83883 3.62 8.21083 3.34 8.54683 3.18C8.89083 3.02 9.24683 2.94 9.61483 2.94V3.924ZM14.3211 9V8.16C13.9051 8.52 13.5331 8.772 13.2051 8.916C12.8771 9.052 12.5491 9.12 12.2211 9.12C11.6931 9.12 11.2891 8.948 11.0091 8.604C10.7291 8.252 10.5891 7.76 10.5891 7.128V3.06H11.5731V6.984C11.5731 7.4 11.6451 7.708 11.7891 7.908C11.9411 8.1 12.1651 8.196 12.4611 8.196C12.6851 8.196 12.9371 8.14 13.2171 8.028C13.4971 7.916 13.8451 7.692 14.2611 7.356V3.06H15.2451V9H14.3211ZM17.1122 7.56V0.12H18.0962V7.512C18.0962 7.728 18.1282 7.892 18.1922 8.004C18.2642 8.108 18.4042 8.16 18.6122 8.16H18.8042V9.06H18.5282C18.0002 9.06 17.6322 8.92 17.4242 8.64C17.2162 8.36 17.1122 8 17.1122 7.56ZM22.0763 9.6C21.8203 10.32 21.5043 10.844 21.1283 11.172C20.7603 11.508 20.2443 11.676 19.5803 11.676V10.704C19.8523 10.696 20.0843 10.66 20.2763 10.596C20.4763 10.532 20.6523 10.4 20.8043 10.2C20.9643 10.008 21.1163 9.72 21.2603 9.336L21.3803 9.036L19.2443 3.06H20.2523L21.2483 5.952L21.8603 7.8L22.4483 5.952L23.4203 3.06H24.3923L22.0763 9.6ZM30.9617 3.924C30.6017 3.924 30.2497 3.988 29.9057 4.116C29.5697 4.244 29.2097 4.488 28.8257 4.848V9H27.8417V3.06H28.7777V4.02C29.1857 3.62 29.5577 3.34 29.8937 3.18C30.2377 3.02 30.5937 2.94 30.9617 2.94V3.924ZM36.316 8.652C35.956 8.828 35.596 8.948 35.236 9.012C34.876 9.084 34.544 9.12 34.24 9.12C33.384 9.12 32.744 8.876 32.32 8.388C31.904 7.9 31.696 7.232 31.696 6.384V5.664C31.696 4.84 31.904 4.18 32.32 3.684C32.744 3.188 33.34 2.94 34.108 2.94C34.516 2.94 34.888 3.024 35.224 3.192C35.568 3.352 35.84 3.6 36.04 3.936C36.248 4.264 36.352 4.688 36.352 5.208C36.352 5.544 36.304 5.928 36.208 6.36H32.668V6.384C32.668 6.992 32.792 7.452 33.04 7.764C33.296 8.076 33.704 8.232 34.264 8.232C34.52 8.232 34.8 8.2 35.104 8.136C35.416 8.072 35.72 7.972 36.016 7.836L36.316 8.652ZM34.108 3.804C33.644 3.804 33.292 3.956 33.052 4.26C32.82 4.556 32.692 4.976 32.668 5.52H35.356C35.38 5.376 35.392 5.24 35.392 5.112C35.392 4.664 35.264 4.336 35.008 4.128C34.76 3.912 34.46 3.804 34.108 3.804ZM42.1588 9.06C41.7908 9.06 41.4948 8.976 41.2708 8.808C41.0548 8.64 40.9028 8.432 40.8148 8.184C40.4228 8.528 40.0668 8.772 39.7468 8.916C39.4268 9.052 39.1068 9.12 38.7868 9.12C38.2668 9.12 37.8828 8.952 37.6348 8.616C37.3868 8.28 37.2628 7.868 37.2628 7.38C37.2628 7.052 37.3228 6.76 37.4428 6.504C37.5628 6.248 37.7668 6.048 38.0548 5.904C38.3428 5.752 38.7308 5.676 39.2188 5.676C39.4348 5.676 39.6708 5.692 39.9268 5.724C40.1828 5.748 40.4428 5.78 40.7068 5.82V5.016C40.7068 4.568 40.6068 4.264 40.4068 4.104C40.2148 3.936 39.9308 3.852 39.5548 3.852C39.0428 3.852 38.4708 3.992 37.8388 4.272L37.5268 3.456C37.8948 3.288 38.2468 3.16 38.5828 3.072C38.9188 2.984 39.2588 2.94 39.6028 2.94C40.1628 2.94 40.5908 3.032 40.8868 3.216C41.1828 3.4 41.3868 3.644 41.4988 3.948C41.6108 4.252 41.6668 4.584 41.6668 4.944V7.512C41.6668 7.696 41.7028 7.852 41.7748 7.98C41.8468 8.1 41.9908 8.16 42.2068 8.16H42.3388V9.06H42.1588ZM38.2348 7.368C38.2348 7.64 38.2988 7.86 38.4268 8.028C38.5548 8.196 38.7388 8.28 38.9788 8.28C39.1868 8.28 39.4268 8.22 39.6988 8.1C39.9708 7.972 40.3068 7.72 40.7068 7.344V6.588C40.1628 6.5 39.6828 6.456 39.2668 6.456C38.8988 6.456 38.6348 6.532 38.4748 6.684C38.3148 6.836 38.2348 7.064 38.2348 7.368ZM44.1888 5.676V6.384C44.1888 6.992 44.3008 7.452 44.5248 7.764C44.7488 8.068 45.1048 8.22 45.5928 8.22C46.0728 8.22 46.5888 8.096 47.1408 7.848L47.4408 8.676C46.7848 8.972 46.1488 9.12 45.5328 9.12C44.7648 9.12 44.1808 8.876 43.7808 8.388C43.3808 7.9 43.1808 7.232 43.1808 6.384V5.676C43.1808 4.828 43.3808 4.16 43.7808 3.672C44.1808 3.184 44.7648 2.94 45.5328 2.94C45.8208 2.94 46.1168 2.98 46.4208 3.06C46.7328 3.132 47.0448 3.236 47.3568 3.372L47.0568 4.212C46.7928 4.1 46.5368 4.012 46.2888 3.948C46.0488 3.884 45.8168 3.852 45.5928 3.852C45.1048 3.852 44.7488 4.008 44.5248 4.32C44.3008 4.624 44.1888 5.076 44.1888 5.676ZM51.9074 8.784C51.4594 9.008 50.9834 9.12 50.4794 9.12C50.0474 9.12 49.7074 9.032 49.4594 8.856C49.2194 8.68 49.0474 8.444 48.9434 8.148C48.8474 7.852 48.7994 7.524 48.7994 7.164V3.924H47.7674V3.06H48.7994V1.404H49.7834V3.06H51.7274V3.924H49.7834V7.128C49.7834 7.544 49.8514 7.832 49.9874 7.992C50.1314 8.144 50.3514 8.22 50.6474 8.22C50.7914 8.22 50.9394 8.204 51.0914 8.172C51.2514 8.132 51.4234 8.068 51.6074 7.98L51.9074 8.784ZM54.006 1.608H52.902V0.504H54.006V1.608ZM53.946 9H52.962V3.06H53.946V9ZM60.1715 3.06L58.0715 9H57.1475L55.0235 3.06H56.0435L57.0395 5.952L57.6395 7.764L58.2275 5.952L59.1995 3.06H60.1715ZM65.4385 8.652C65.0785 8.828 64.7185 8.948 64.3585 9.012C63.9985 9.084 63.6665 9.12 63.3625 9.12C62.5065 9.12 61.8665 8.876 61.4425 8.388C61.0265 7.9 60.8185 7.232 60.8185 6.384V5.664C60.8185 4.84 61.0265 4.18 61.4425 3.684C61.8665 3.188 62.4625 2.94 63.2305 2.94C63.6385 2.94 64.0105 3.024 64.3465 3.192C64.6905 3.352 64.9625 3.6 65.1625 3.936C65.3705 4.264 65.4745 4.688 65.4745 5.208C65.4745 5.544 65.4265 5.928 65.3305 6.36H61.7905V6.384C61.7905 6.992 61.9145 7.452 62.1625 7.764C62.4185 8.076 62.8265 8.232 63.3865 8.232C63.6425 8.232 63.9225 8.2 64.2265 8.136C64.5385 8.072 64.8425 7.972 65.1385 7.836L65.4385 8.652ZM63.2305 3.804C62.7665 3.804 62.4145 3.956 62.1745 4.26C61.9425 4.556 61.8145 4.976 61.7905 5.52H64.4785C64.5025 5.376 64.5145 5.24 64.5145 5.112C64.5145 4.664 64.3865 4.336 64.1305 4.128C63.8825 3.912 63.5825 3.804 63.2305 3.804ZM67.5253 7.908V8.136C67.5253 8.72 67.4533 9.276 67.3093 9.804C67.1653 10.332 66.9053 10.896 66.5293 11.496L65.8813 11.136C66.0813 10.752 66.2253 10.4 66.3133 10.08C66.4093 9.768 66.4693 9.44 66.4933 9.096C66.5253 8.76 66.5413 8.364 66.5413 7.908H67.5253ZM72.0752 5.676V6.384C72.0752 6.992 72.1872 7.452 72.4112 7.764C72.6352 8.068 72.9912 8.22 73.4792 8.22C73.9592 8.22 74.4752 8.096 75.0272 7.848L75.3272 8.676C74.6712 8.972 74.0352 9.12 73.4192 9.12C72.6512 9.12 72.0672 8.876 71.6672 8.388C71.2672 7.9 71.0672 7.232 71.0672 6.384V5.676C71.0672 4.828 71.2672 4.16 71.6672 3.672C72.0672 3.184 72.6512 2.94 73.4192 2.94C73.7072 2.94 74.0032 2.98 74.3072 3.06C74.6192 3.132 74.9312 3.236 75.2432 3.372L74.9432 4.212C74.6792 4.1 74.4232 4.012 74.1752 3.948C73.9352 3.884 73.7032 3.852 73.4792 3.852C72.9912 3.852 72.6352 4.008 72.4112 4.32C72.1872 4.624 72.0752 5.076 72.0752 5.676ZM81.2104 5.664V6.384C81.2104 7.232 80.9904 7.9 80.5504 8.388C80.1184 8.876 79.4984 9.12 78.6904 9.12C77.8904 9.12 77.2704 8.876 76.8304 8.388C76.3904 7.9 76.1704 7.232 76.1704 6.384V5.664C76.1704 4.832 76.3864 4.172 76.8184 3.684C77.2584 3.188 77.8824 2.94 78.6904 2.94C79.4984 2.94 80.1184 3.188 80.5504 3.684C80.9904 4.172 81.2104 4.832 81.2104 5.664ZM80.1904 5.664C80.1904 5.096 80.0624 4.652 79.8064 4.332C79.5504 4.004 79.1784 3.84 78.6904 3.84C78.2104 3.84 77.8384 4.004 77.5744 4.332C77.3184 4.652 77.1904 5.096 77.1904 5.664V6.384C77.1904 6.976 77.3184 7.432 77.5744 7.752C77.8384 8.072 78.2104 8.232 78.6904 8.232C79.1784 8.232 79.5504 8.072 79.8064 7.752C80.0624 7.432 80.1904 6.976 80.1904 6.384V5.664ZM85.5546 3.864C85.3306 3.864 85.0786 3.924 84.7986 4.044C84.5186 4.156 84.1666 4.38 83.7426 4.716V9H82.7586V3.06H83.6946V3.888C84.1186 3.536 84.4946 3.292 84.8226 3.156C85.1506 3.012 85.4746 2.94 85.7946 2.94C86.1706 2.94 86.4826 3.028 86.7306 3.204C86.9786 3.372 87.1626 3.616 87.2826 3.936C87.7226 3.56 88.1146 3.3 88.4586 3.156C88.8106 3.012 89.1546 2.94 89.4906 2.94C90.0186 2.94 90.4226 3.116 90.7026 3.468C90.9826 3.812 91.1226 4.304 91.1226 4.944V9H90.1386V5.088C90.1386 4.272 89.8426 3.864 89.2506 3.864C89.0266 3.864 88.7706 3.924 88.4826 4.044C88.2026 4.156 87.8506 4.38 87.4266 4.716C87.4346 4.748 87.4386 4.784 87.4386 4.824C87.4386 4.864 87.4386 4.904 87.4386 4.944V9H86.4546V5.088C86.4546 4.272 86.1546 3.864 85.5546 3.864ZM95.3243 9.12C94.8763 9.12 94.4123 9.028 93.9323 8.844V11.556H92.9483V3.06H93.8843V3.9C94.2523 3.548 94.5883 3.3 94.8923 3.156C95.1963 3.012 95.5083 2.94 95.8283 2.94C96.4603 2.94 96.9443 3.18 97.2803 3.66C97.6243 4.14 97.7963 4.816 97.7963 5.688V6.384C97.7963 7.216 97.5843 7.88 97.1603 8.376C96.7443 8.872 96.1323 9.12 95.3243 9.12ZM95.5883 3.864C95.3563 3.864 95.1163 3.924 94.8683 4.044C94.6203 4.164 94.3083 4.408 93.9323 4.776V7.944C94.1643 8.048 94.3883 8.124 94.6043 8.172C94.8203 8.212 95.0323 8.232 95.2403 8.232C95.7843 8.232 96.1763 8.068 96.4163 7.74C96.6563 7.404 96.7763 6.952 96.7763 6.384V5.688C96.7763 5.064 96.6763 4.604 96.4763 4.308C96.2843 4.012 95.9883 3.864 95.5883 3.864ZM100.42 1.608H99.3162V0.504H100.42V1.608ZM100.36 9H99.3762V3.06H100.36V9ZM102.23 7.56V0.12H103.214V7.512C103.214 7.728 103.246 7.892 103.31 8.004C103.382 8.108 103.522 8.16 103.73 8.16H103.922V9.06H103.646C103.118 9.06 102.75 8.92 102.542 8.64C102.334 8.36 102.23 8 102.23 7.56ZM109.474 8.652C109.114 8.828 108.754 8.948 108.394 9.012C108.034 9.084 107.702 9.12 107.398 9.12C106.542 9.12 105.902 8.876 105.478 8.388C105.062 7.9 104.854 7.232 104.854 6.384V5.664C104.854 4.84 105.062 4.18 105.478 3.684C105.902 3.188 106.498 2.94 107.266 2.94C107.674 2.94 108.046 3.024 108.382 3.192C108.726 3.352 108.998 3.6 109.198 3.936C109.406 4.264 109.51 4.688 109.51 5.208C109.51 5.544 109.462 5.928 109.366 6.36H105.826V6.384C105.826 6.992 105.95 7.452 106.198 7.764C106.454 8.076 106.862 8.232 107.422 8.232C107.678 8.232 107.958 8.2 108.262 8.136C108.574 8.072 108.878 7.972 109.174 7.836L109.474 8.652ZM107.266 3.804C106.802 3.804 106.45 3.956 106.21 4.26C105.978 4.556 105.85 4.976 105.826 5.52H108.514C108.538 5.376 108.55 5.24 108.55 5.112C108.55 4.664 108.422 4.336 108.166 4.128C107.918 3.912 107.618 3.804 107.266 3.804ZM114.093 3.924C113.733 3.924 113.381 3.988 113.037 4.116C112.701 4.244 112.341 4.488 111.957 4.848V9H110.973V3.06H111.909V4.02C112.317 3.62 112.689 3.34 113.025 3.18C113.369 3.02 113.725 2.94 114.093 2.94V3.924ZM114.755 5.796V4.932H118.115V5.796H114.755ZM14.9111 22.664V23.384C14.9111 24.232 14.6911 24.9 14.2511 25.388C13.8191 25.876 13.1991 26.12 12.3911 26.12C11.5911 26.12 10.9711 25.876 10.5311 25.388C10.0911 24.9 9.87109 24.232 9.87109 23.384V22.664C9.87109 21.832 10.0871 21.172 10.5191 20.684C10.9591 20.188 11.5831 19.94 12.3911 19.94C13.1991 19.94 13.8191 20.188 14.2511 20.684C14.6911 21.172 14.9111 21.832 14.9111 22.664ZM13.8911 22.664C13.8911 22.096 13.7631 21.652 13.5071 21.332C13.2511 21.004 12.8791 20.84 12.3911 20.84C11.9111 20.84 11.5391 21.004 11.2751 21.332C11.0191 21.652 10.8911 22.096 10.8911 22.664V23.384C10.8911 23.976 11.0191 24.432 11.2751 24.752C11.5391 25.072 11.9111 25.232 12.3911 25.232C12.8791 25.232 13.2511 25.072 13.5071 24.752C13.7631 24.432 13.8911 23.976 13.8911 23.384V22.664ZM18.8353 26.12C18.3873 26.12 17.9233 26.028 17.4433 25.844V28.556H16.4593V20.06H17.3953V20.9C17.7633 20.548 18.0993 20.3 18.4033 20.156C18.7073 20.012 19.0193 19.94 19.3393 19.94C19.9713 19.94 20.4553 20.18 20.7913 20.66C21.1353 21.14 21.3073 21.816 21.3073 22.688V23.384C21.3073 24.216 21.0953 24.88 20.6713 25.376C20.2553 25.872 19.6433 26.12 18.8353 26.12ZM19.0993 20.864C18.8673 20.864 18.6273 20.924 18.3793 21.044C18.1313 21.164 17.8193 21.408 17.4433 21.776V24.944C17.6753 25.048 17.8993 25.124 18.1153 25.172C18.3313 25.212 18.5433 25.232 18.7513 25.232C19.2953 25.232 19.6873 25.068 19.9273 24.74C20.1673 24.404 20.2873 23.952 20.2873 23.384V22.688C20.2873 22.064 20.1873 21.604 19.9873 21.308C19.7953 21.012 19.4993 20.864 19.0993 20.864ZM26.1512 25.784C25.7032 26.008 25.2272 26.12 24.7232 26.12C24.2912 26.12 23.9512 26.032 23.7032 25.856C23.4632 25.68 23.2912 25.444 23.1872 25.148C23.0912 24.852 23.0432 24.524 23.0432 24.164V20.924H22.0112V20.06H23.0432V18.404H24.0272V20.06H25.9712V20.924H24.0272V24.128C24.0272 24.544 24.0952 24.832 24.2312 24.992C24.3752 25.144 24.5952 25.22 24.8912 25.22C25.0352 25.22 25.1832 25.204 25.3352 25.172C25.4952 25.132 25.6672 25.068 25.8512 24.98L26.1512 25.784ZM28.2498 18.608H27.1458V17.504H28.2498V18.608ZM28.1898 26H27.2058V20.06H28.1898V26ZM32.8673 20.864C32.6433 20.864 32.3913 20.924 32.1113 21.044C31.8313 21.156 31.4793 21.38 31.0553 21.716V26H30.0713V20.06H31.0073V20.888C31.4313 20.536 31.8073 20.292 32.1353 20.156C32.4633 20.012 32.7873 19.94 33.1073 19.94C33.4833 19.94 33.7953 20.028 34.0433 20.204C34.2913 20.372 34.4753 20.616 34.5953 20.936C35.0353 20.56 35.4273 20.3 35.7713 20.156C36.1233 20.012 36.4673 19.94 36.8033 19.94C37.3313 19.94 37.7353 20.116 38.0153 20.468C38.2953 20.812 38.4353 21.304 38.4353 21.944V26H37.4513V22.088C37.4513 21.272 37.1553 20.864 36.5633 20.864C36.3393 20.864 36.0833 20.924 35.7953 21.044C35.5153 21.156 35.1633 21.38 34.7393 21.716C34.7473 21.748 34.7513 21.784 34.7513 21.824C34.7513 21.864 34.7513 21.904 34.7513 21.944V26H33.7673V22.088C33.7673 21.272 33.4673 20.864 32.8673 20.864ZM41.305 18.608H40.201V17.504H41.305V18.608ZM41.245 26H40.261V20.06H41.245V26ZM46.6185 25.148V26H42.4905V25.232L45.3345 20.924H42.6105V20.06H46.4985V20.84L43.6425 25.148H46.6185ZM52.1398 25.652C51.7798 25.828 51.4198 25.948 51.0598 26.012C50.6998 26.084 50.3678 26.12 50.0638 26.12C49.2078 26.12 48.5678 25.876 48.1438 25.388C47.7278 24.9 47.5198 24.232 47.5198 23.384V22.664C47.5198 21.84 47.7278 21.18 48.1438 20.684C48.5678 20.188 49.1638 19.94 49.9318 19.94C50.3398 19.94 50.7118 20.024 51.0478 20.192C51.3918 20.352 51.6638 20.6 51.8638 20.936C52.0718 21.264 52.1758 21.688 52.1758 22.208C52.1758 22.544 52.1278 22.928 52.0318 23.36H48.4918V23.384C48.4918 23.992 48.6158 24.452 48.8638 24.764C49.1198 25.076 49.5278 25.232 50.0878 25.232C50.3438 25.232 50.6238 25.2 50.9278 25.136C51.2398 25.072 51.5438 24.972 51.8398 24.836L52.1398 25.652ZM49.9318 20.804C49.4678 20.804 49.1158 20.956 48.8758 21.26C48.6438 21.556 48.5158 21.976 48.4918 22.52H51.1798C51.2038 22.376 51.2158 22.24 51.2158 22.112C51.2158 21.664 51.0878 21.336 50.8318 21.128C50.5838 20.912 50.2838 20.804 49.9318 20.804ZM57.2507 26V25.172C56.8827 25.524 56.5467 25.772 56.2427 25.916C55.9467 26.052 55.6387 26.12 55.3187 26.12C54.6867 26.12 54.1987 25.88 53.8547 25.4C53.5187 24.92 53.3507 24.248 53.3507 23.384V22.688C53.3507 21.848 53.5587 21.18 53.9747 20.684C54.3987 20.188 55.0107 19.94 55.8107 19.94C56.0427 19.94 56.2747 19.964 56.5067 20.012C56.7387 20.06 56.9707 20.128 57.2027 20.216V17.12H58.1867V26H57.2507ZM54.3707 23.384C54.3707 24.008 54.4667 24.468 54.6587 24.764C54.8587 25.052 55.1547 25.196 55.5467 25.196C55.7787 25.196 56.0187 25.14 56.2667 25.028C56.5147 24.908 56.8267 24.664 57.2027 24.296V21.128C56.9707 21.024 56.7467 20.952 56.5307 20.912C56.3147 20.864 56.1027 20.84 55.8947 20.84C55.3507 20.84 54.9587 21.004 54.7187 21.332C54.4867 21.66 54.3707 22.112 54.3707 22.688V23.384ZM65.5599 20.924C65.1999 20.924 64.8479 20.988 64.5039 21.116C64.1679 21.244 63.8079 21.488 63.4239 21.848V26H62.4399V20.06H63.3759V21.02C63.7839 20.62 64.1559 20.34 64.4919 20.18C64.8359 20.02 65.1919 19.94 65.5599 19.94V20.924ZM70.9142 25.652C70.5542 25.828 70.1942 25.948 69.8342 26.012C69.4742 26.084 69.1422 26.12 68.8382 26.12C67.9822 26.12 67.3422 25.876 66.9182 25.388C66.5022 24.9 66.2942 24.232 66.2942 23.384V22.664C66.2942 21.84 66.5022 21.18 66.9182 20.684C67.3422 20.188 67.9382 19.94 68.7062 19.94C69.1142 19.94 69.4862 20.024 69.8222 20.192C70.1662 20.352 70.4382 20.6 70.6382 20.936C70.8462 21.264 70.9502 21.688 70.9502 22.208C70.9502 22.544 70.9022 22.928 70.8062 23.36H67.2662V23.384C67.2662 23.992 67.3902 24.452 67.6382 24.764C67.8942 25.076 68.3022 25.232 68.8622 25.232C69.1182 25.232 69.3982 25.2 69.7022 25.136C70.0142 25.072 70.3182 24.972 70.6142 24.836L70.9142 25.652ZM68.7062 20.804C68.2422 20.804 67.8902 20.956 67.6502 21.26C67.4182 21.556 67.2902 21.976 67.2662 22.52H69.9542C69.9782 22.376 69.9902 22.24 69.9902 22.112C69.9902 21.664 69.8622 21.336 69.6062 21.128C69.3582 20.912 69.0582 20.804 68.7062 20.804ZM75.269 20.864C75.045 20.864 74.781 20.92 74.477 21.032C74.181 21.144 73.821 21.372 73.397 21.716V26H72.413V20.06H73.349V20.888C73.773 20.528 74.157 20.28 74.501 20.144C74.853 20.008 75.189 19.94 75.509 19.94C76.061 19.94 76.481 20.116 76.769 20.468C77.065 20.812 77.213 21.304 77.213 21.944V26H76.229V22.088C76.229 21.272 75.909 20.864 75.269 20.864ZM82.6405 26V25.172C82.2725 25.524 81.9365 25.772 81.6325 25.916C81.3365 26.052 81.0285 26.12 80.7085 26.12C80.0765 26.12 79.5885 25.88 79.2445 25.4C78.9085 24.92 78.7405 24.248 78.7405 23.384V22.688C78.7405 21.848 78.9485 21.18 79.3645 20.684C79.7885 20.188 80.4005 19.94 81.2005 19.94C81.4325 19.94 81.6645 19.964 81.8965 20.012C82.1285 20.06 82.3605 20.128 82.5925 20.216V17.12H83.5765V26H82.6405ZM79.7605 23.384C79.7605 24.008 79.8565 24.468 80.0485 24.764C80.2485 25.052 80.5445 25.196 80.9365 25.196C81.1685 25.196 81.4085 25.14 81.6565 25.028C81.9045 24.908 82.2165 24.664 82.5925 24.296V21.128C82.3605 21.024 82.1365 20.952 81.9205 20.912C81.7045 20.864 81.4925 20.84 81.2845 20.84C80.7405 20.84 80.3485 21.004 80.1085 21.332C79.8765 21.66 79.7605 22.112 79.7605 22.688V23.384ZM89.7645 25.652C89.4045 25.828 89.0445 25.948 88.6845 26.012C88.3245 26.084 87.9925 26.12 87.6885 26.12C86.8325 26.12 86.1925 25.876 85.7685 25.388C85.3525 24.9 85.1445 24.232 85.1445 23.384V22.664C85.1445 21.84 85.3525 21.18 85.7685 20.684C86.1925 20.188 86.7885 19.94 87.5565 19.94C87.9645 19.94 88.3365 20.024 88.6725 20.192C89.0165 20.352 89.2885 20.6 89.4885 20.936C89.6965 21.264 89.8005 21.688 89.8005 22.208C89.8005 22.544 89.7525 22.928 89.6565 23.36H86.1165V23.384C86.1165 23.992 86.2405 24.452 86.4885 24.764C86.7445 25.076 87.1525 25.232 87.7125 25.232C87.9685 25.232 88.2485 25.2 88.5525 25.136C88.8645 25.072 89.1685 24.972 89.4645 24.836L89.7645 25.652ZM87.5565 20.804C87.0925 20.804 86.7405 20.956 86.5005 21.26C86.2685 21.556 86.1405 21.976 86.1165 22.52H88.8045C88.8285 22.376 88.8405 22.24 88.8405 22.112C88.8405 21.664 88.7125 21.336 88.4565 21.128C88.2085 20.912 87.9085 20.804 87.5565 20.804ZM94.3833 20.924C94.0233 20.924 93.6713 20.988 93.3273 21.116C92.9913 21.244 92.6313 21.488 92.2473 21.848V26H91.2633V20.06H92.1993V21.02C92.6073 20.62 92.9793 20.34 93.3153 20.18C93.6593 20.02 94.0153 19.94 94.3833 19.94V20.924ZM96.4736 18.608H95.3696V17.504H96.4736V18.608ZM96.4136 26H95.4296V20.06H96.4136V26ZM101.151 20.864C100.927 20.864 100.663 20.92 100.359 21.032C100.063 21.144 99.7031 21.372 99.2791 21.716V26H98.2951V20.06H99.2311V20.888C99.6551 20.528 100.039 20.28 100.383 20.144C100.735 20.008 101.071 19.94 101.391 19.94C101.943 19.94 102.363 20.116 102.651 20.468C102.947 20.812 103.095 21.304 103.095 21.944V26H102.111V22.088C102.111 21.272 101.791 20.864 101.151 20.864ZM109.663 26.744C109.663 27.328 109.423 27.796 108.943 28.148C108.471 28.5 107.819 28.676 106.987 28.676C106.571 28.676 106.135 28.62 105.679 28.508C105.231 28.396 104.807 28.216 104.407 27.968L104.743 27.2C105.143 27.424 105.527 27.58 105.895 27.668C106.271 27.764 106.635 27.812 106.987 27.812C107.531 27.812 107.951 27.724 108.247 27.548C108.543 27.372 108.691 27.136 108.691 26.84C108.691 26.624 108.619 26.456 108.475 26.336C108.331 26.224 108.099 26.168 107.779 26.168H106.399C105.879 26.168 105.503 26.044 105.271 25.796C105.039 25.548 104.923 25.276 104.923 24.98C104.923 24.772 104.971 24.568 105.067 24.368C105.163 24.16 105.299 23.956 105.475 23.756C105.195 23.588 104.971 23.36 104.803 23.072C104.635 22.776 104.551 22.42 104.551 22.004C104.551 21.548 104.647 21.168 104.839 20.864C105.039 20.56 105.303 20.332 105.631 20.18C105.959 20.02 106.327 19.94 106.735 19.94H106.939C107.219 19.94 107.475 19.98 107.707 20.06H109.843V20.936L108.547 20.756C108.715 20.9 108.851 21.08 108.955 21.296C109.059 21.504 109.111 21.76 109.111 22.064C109.111 22.496 109.011 22.86 108.811 23.156C108.619 23.452 108.359 23.68 108.031 23.84C107.703 23.992 107.339 24.068 106.939 24.068H106.735C106.631 24.068 106.531 24.064 106.435 24.056C106.339 24.04 106.243 24.024 106.147 24.008C105.915 24.264 105.799 24.516 105.799 24.764C105.799 25.084 106.023 25.244 106.471 25.244H107.815C108.391 25.244 108.843 25.372 109.171 25.628C109.499 25.884 109.663 26.256 109.663 26.744ZM106.939 23.216C107.251 23.216 107.527 23.116 107.767 22.916C108.007 22.716 108.127 22.412 108.127 22.004C108.127 21.604 108.007 21.304 107.767 21.104C107.527 20.896 107.251 20.792 106.939 20.792H106.735C106.415 20.792 106.135 20.896 105.895 21.104C105.655 21.304 105.535 21.604 105.535 22.004C105.535 22.412 105.655 22.716 105.895 22.916C106.135 23.116 106.415 23.216 106.735 23.216H106.939ZM17.293 42.244C18.093 42.244 18.493 41.972 18.493 41.428C18.493 41.196 18.421 41.012 18.277 40.876C18.133 40.74 17.869 40.624 17.485 40.528L16.825 40.36C16.337 40.24 15.973 40.032 15.733 39.736C15.493 39.432 15.373 39.072 15.373 38.656C15.373 38.352 15.441 38.072 15.577 37.816C15.713 37.552 15.929 37.34 16.225 37.18C16.521 37.02 16.905 36.94 17.377 36.94C17.681 36.94 17.989 36.976 18.301 37.048C18.621 37.112 18.945 37.224 19.273 37.384L18.961 38.212C18.377 37.948 17.849 37.816 17.377 37.816C16.681 37.816 16.333 38.076 16.333 38.596C16.333 38.796 16.397 38.968 16.525 39.112C16.653 39.256 16.893 39.372 17.245 39.46L17.905 39.628C18.433 39.756 18.821 39.964 19.069 40.252C19.317 40.54 19.441 40.912 19.441 41.368C19.441 41.696 19.369 41.996 19.225 42.268C19.089 42.532 18.865 42.74 18.553 42.892C18.249 43.044 17.837 43.12 17.317 43.12C16.973 43.12 16.629 43.084 16.285 43.012C15.949 42.94 15.601 42.824 15.241 42.664L15.505 41.848C15.849 41.984 16.161 42.084 16.441 42.148C16.721 42.212 17.005 42.244 17.293 42.244ZM22.797 43.6C22.541 44.32 22.225 44.844 21.849 45.172C21.481 45.508 20.965 45.676 20.301 45.676V44.704C20.573 44.696 20.805 44.66 20.997 44.596C21.197 44.532 21.373 44.4 21.525 44.2C21.685 44.008 21.837 43.72 21.981 43.336L22.101 43.036L19.965 37.06H20.973L21.969 39.952L22.581 41.8L23.169 39.952L24.141 37.06H25.113L22.797 43.6ZM27.6411 42.244C28.4411 42.244 28.8411 41.972 28.8411 41.428C28.8411 41.196 28.7691 41.012 28.6251 40.876C28.4811 40.74 28.2171 40.624 27.8331 40.528L27.1731 40.36C26.6851 40.24 26.3211 40.032 26.0811 39.736C25.8411 39.432 25.7211 39.072 25.7211 38.656C25.7211 38.352 25.7891 38.072 25.9251 37.816C26.0611 37.552 26.2771 37.34 26.5731 37.18C26.8691 37.02 27.2531 36.94 27.7251 36.94C28.0291 36.94 28.3371 36.976 28.6491 37.048C28.9691 37.112 29.2931 37.224 29.6211 37.384L29.3091 38.212C28.7251 37.948 28.1971 37.816 27.7251 37.816C27.0291 37.816 26.6811 38.076 26.6811 38.596C26.6811 38.796 26.7451 38.968 26.8731 39.112C27.0011 39.256 27.2411 39.372 27.5931 39.46L28.2531 39.628C28.7811 39.756 29.1691 39.964 29.4171 40.252C29.6651 40.54 29.7891 40.912 29.7891 41.368C29.7891 41.696 29.7171 41.996 29.5731 42.268C29.4371 42.532 29.2131 42.74 28.9011 42.892C28.5971 43.044 28.1851 43.12 27.6651 43.12C27.3211 43.12 26.9771 43.084 26.6331 43.012C26.2971 42.94 25.9491 42.824 25.5891 42.664L25.8531 41.848C26.1971 41.984 26.5091 42.084 26.7891 42.148C27.0691 42.212 27.3531 42.244 27.6411 42.244ZM34.3811 42.784C33.9331 43.008 33.4571 43.12 32.9531 43.12C32.5211 43.12 32.1811 43.032 31.9331 42.856C31.6931 42.68 31.5211 42.444 31.4171 42.148C31.3211 41.852 31.2731 41.524 31.2731 41.164V37.924H30.2411V37.06H31.2731V35.404H32.2571V37.06H34.2011V37.924H32.2571V41.128C32.2571 41.544 32.3251 41.832 32.4611 41.992C32.6051 42.144 32.8251 42.22 33.1211 42.22C33.2651 42.22 33.4131 42.204 33.5651 42.172C33.7251 42.132 33.8971 42.068 34.0811 41.98L34.3811 42.784ZM39.7437 42.652C39.3837 42.828 39.0237 42.948 38.6637 43.012C38.3037 43.084 37.9717 43.12 37.6677 43.12C36.8117 43.12 36.1717 42.876 35.7477 42.388C35.3317 41.9 35.1237 41.232 35.1237 40.384V39.664C35.1237 38.84 35.3317 38.18 35.7477 37.684C36.1717 37.188 36.7677 36.94 37.5357 36.94C37.9437 36.94 38.3157 37.024 38.6517 37.192C38.9957 37.352 39.2677 37.6 39.4677 37.936C39.6757 38.264 39.7797 38.688 39.7797 39.208C39.7797 39.544 39.7317 39.928 39.6357 40.36H36.0957V40.384C36.0957 40.992 36.2197 41.452 36.4677 41.764C36.7237 42.076 37.1317 42.232 37.6917 42.232C37.9477 42.232 38.2277 42.2 38.5317 42.136C38.8437 42.072 39.1477 41.972 39.4437 41.836L39.7437 42.652ZM37.5357 37.804C37.0717 37.804 36.7197 37.956 36.4797 38.26C36.2477 38.556 36.1197 38.976 36.0957 39.52H38.7837C38.8077 39.376 38.8197 39.24 38.8197 39.112C38.8197 38.664 38.6917 38.336 38.4357 38.128C38.1877 37.912 37.8877 37.804 37.5357 37.804ZM44.0386 37.864C43.8146 37.864 43.5626 37.924 43.2826 38.044C43.0026 38.156 42.6506 38.38 42.2266 38.716V43H41.2426V37.06H42.1786V37.888C42.6026 37.536 42.9786 37.292 43.3066 37.156C43.6346 37.012 43.9586 36.94 44.2786 36.94C44.6546 36.94 44.9666 37.028 45.2146 37.204C45.4626 37.372 45.6466 37.616 45.7666 37.936C46.2066 37.56 46.5986 37.3 46.9426 37.156C47.2946 37.012 47.6386 36.94 47.9746 36.94C48.5026 36.94 48.9066 37.116 49.1866 37.468C49.4666 37.812 49.6066 38.304 49.6066 38.944V43H48.6226V39.088C48.6226 38.272 48.3266 37.864 47.7346 37.864C47.5106 37.864 47.2546 37.924 46.9666 38.044C46.6866 38.156 46.3346 38.38 45.9106 38.716C45.9186 38.748 45.9226 38.784 45.9226 38.824C45.9226 38.864 45.9226 38.904 45.9226 38.944V43H44.9386V39.088C44.9386 38.272 44.6386 37.864 44.0386 37.864ZM57.0695 42.784C56.6215 43.008 56.1455 43.12 55.6415 43.12C55.2095 43.12 54.8695 43.032 54.6215 42.856C54.3815 42.68 54.2095 42.444 54.1055 42.148C54.0095 41.852 53.9615 41.524 53.9615 41.164V37.924H52.9295V37.06H53.9615V35.404H54.9455V37.06H56.8895V37.924H54.9455V41.128C54.9455 41.544 55.0135 41.832 55.1495 41.992C55.2935 42.144 55.5135 42.22 55.8095 42.22C55.9535 42.22 56.1015 42.204 56.2535 42.172C56.4135 42.132 56.5855 42.068 56.7695 41.98L57.0695 42.784ZM60.9801 37.864C60.7561 37.864 60.4921 37.92 60.1881 38.032C59.8921 38.144 59.5321 38.372 59.1081 38.716V43H58.1241V34.12H59.1081V37.852C59.5241 37.5 59.9001 37.26 60.2361 37.132C60.5721 37.004 60.9001 36.94 61.2201 36.94C61.7721 36.94 62.1921 37.116 62.4801 37.468C62.7761 37.812 62.9241 38.304 62.9241 38.944V43H61.9401V39.088C61.9401 38.272 61.6201 37.864 60.9801 37.864ZM69.0836 43.06C68.7156 43.06 68.4196 42.976 68.1956 42.808C67.9796 42.64 67.8276 42.432 67.7396 42.184C67.3476 42.528 66.9916 42.772 66.6716 42.916C66.3516 43.052 66.0316 43.12 65.7116 43.12C65.1916 43.12 64.8076 42.952 64.5596 42.616C64.3116 42.28 64.1876 41.868 64.1876 41.38C64.1876 41.052 64.2476 40.76 64.3676 40.504C64.4876 40.248 64.6916 40.048 64.9796 39.904C65.2676 39.752 65.6556 39.676 66.1436 39.676C66.3596 39.676 66.5956 39.692 66.8516 39.724C67.1076 39.748 67.3676 39.78 67.6316 39.82V39.016C67.6316 38.568 67.5316 38.264 67.3316 38.104C67.1396 37.936 66.8556 37.852 66.4796 37.852C65.9676 37.852 65.3956 37.992 64.7636 38.272L64.4516 37.456C64.8196 37.288 65.1716 37.16 65.5076 37.072C65.8436 36.984 66.1836 36.94 66.5276 36.94C67.0876 36.94 67.5156 37.032 67.8116 37.216C68.1076 37.4 68.3116 37.644 68.4236 37.948C68.5356 38.252 68.5916 38.584 68.5916 38.944V41.512C68.5916 41.696 68.6276 41.852 68.6996 41.98C68.7716 42.1 68.9156 42.16 69.1316 42.16H69.2636V43.06H69.0836ZM65.1596 41.368C65.1596 41.64 65.2236 41.86 65.3516 42.028C65.4796 42.196 65.6636 42.28 65.9036 42.28C66.1116 42.28 66.3516 42.22 66.6236 42.1C66.8956 41.972 67.2316 41.72 67.6316 41.344V40.588C67.0876 40.5 66.6076 40.456 66.1916 40.456C65.8236 40.456 65.5596 40.532 65.3996 40.684C65.2396 40.836 65.1596 41.064 65.1596 41.368ZM73.6816 42.784C73.2336 43.008 72.7576 43.12 72.2536 43.12C71.8216 43.12 71.4816 43.032 71.2336 42.856C70.9936 42.68 70.8216 42.444 70.7176 42.148C70.6216 41.852 70.5736 41.524 70.5736 41.164V37.924H69.5416V37.06H70.5736V35.404H71.5576V37.06H73.5016V37.924H71.5576V41.128C71.5576 41.544 71.6256 41.832 71.7616 41.992C71.9056 42.144 72.1256 42.22 72.4216 42.22C72.5656 42.22 72.7136 42.204 72.8656 42.172C73.0256 42.132 73.1976 42.068 73.3816 41.98L73.6816 42.784ZM80.2294 37.924C79.8694 37.924 79.5174 37.988 79.1734 38.116C78.8374 38.244 78.4774 38.488 78.0934 38.848V43H77.1094V37.06H78.0454V38.02C78.4534 37.62 78.8254 37.34 79.1614 37.18C79.5054 37.02 79.8614 36.94 80.2294 36.94V37.924ZM85.6197 43.06C85.2517 43.06 84.9557 42.976 84.7317 42.808C84.5157 42.64 84.3637 42.432 84.2757 42.184C83.8837 42.528 83.5277 42.772 83.2077 42.916C82.8877 43.052 82.5677 43.12 82.2477 43.12C81.7277 43.12 81.3437 42.952 81.0957 42.616C80.8477 42.28 80.7237 41.868 80.7237 41.38C80.7237 41.052 80.7837 40.76 80.9037 40.504C81.0237 40.248 81.2277 40.048 81.5157 39.904C81.8037 39.752 82.1917 39.676 82.6797 39.676C82.8957 39.676 83.1317 39.692 83.3877 39.724C83.6437 39.748 83.9037 39.78 84.1677 39.82V39.016C84.1677 38.568 84.0677 38.264 83.8677 38.104C83.6757 37.936 83.3917 37.852 83.0157 37.852C82.5037 37.852 81.9317 37.992 81.2997 38.272L80.9877 37.456C81.3557 37.288 81.7077 37.16 82.0437 37.072C82.3797 36.984 82.7197 36.94 83.0637 36.94C83.6237 36.94 84.0517 37.032 84.3477 37.216C84.6437 37.4 84.8477 37.644 84.9597 37.948C85.0717 38.252 85.1277 38.584 85.1277 38.944V41.512C85.1277 41.696 85.1637 41.852 85.2357 41.98C85.3077 42.1 85.4517 42.16 85.6677 42.16H85.7997V43.06H85.6197ZM81.6957 41.368C81.6957 41.64 81.7597 41.86 81.8877 42.028C82.0157 42.196 82.1997 42.28 82.4397 42.28C82.6477 42.28 82.8877 42.22 83.1597 42.1C83.4317 41.972 83.7677 41.72 84.1677 41.344V40.588C83.6237 40.5 83.1437 40.456 82.7277 40.456C82.3597 40.456 82.0957 40.532 81.9357 40.684C81.7757 40.836 81.6957 41.064 81.6957 41.368ZM90.0737 37.924C89.7137 37.924 89.3617 37.988 89.0177 38.116C88.6817 38.244 88.3217 38.488 87.9377 38.848V43H86.9537V37.06H87.8897V38.02C88.2977 37.62 88.6697 37.34 89.0057 37.18C89.3497 37.02 89.7057 36.94 90.0737 36.94V37.924ZM95.4279 42.652C95.0679 42.828 94.7079 42.948 94.3479 43.012C93.9879 43.084 93.6559 43.12 93.3519 43.12C92.4959 43.12 91.8559 42.876 91.4319 42.388C91.0159 41.9 90.8079 41.232 90.8079 40.384V39.664C90.8079 38.84 91.0159 38.18 91.4319 37.684C91.8559 37.188 92.4519 36.94 93.2199 36.94C93.6279 36.94 93.9999 37.024 94.3359 37.192C94.6799 37.352 94.9519 37.6 95.1519 37.936C95.3599 38.264 95.4639 38.688 95.4639 39.208C95.4639 39.544 95.4159 39.928 95.3199 40.36H91.7799V40.384C91.7799 40.992 91.9039 41.452 92.1519 41.764C92.4079 42.076 92.8159 42.232 93.3759 42.232C93.6319 42.232 93.9119 42.2 94.2159 42.136C94.5279 42.072 94.8319 41.972 95.1279 41.836L95.4279 42.652ZM93.2199 37.804C92.7559 37.804 92.4039 37.956 92.1639 38.26C91.9319 38.556 91.8039 38.976 91.7799 39.52H94.4679C94.4919 39.376 94.5039 39.24 94.5039 39.112C94.5039 38.664 94.3759 38.336 94.1199 38.128C93.8719 37.912 93.5719 37.804 93.2199 37.804ZM96.9148 41.56V34.12H97.8988V41.512C97.8988 41.728 97.9308 41.892 97.9948 42.004C98.0668 42.108 98.2068 42.16 98.4148 42.16H98.6068V43.06H98.3308C97.8028 43.06 97.4348 42.92 97.2268 42.64C97.0188 42.36 96.9148 42 96.9148 41.56ZM101.879 43.6C101.623 44.32 101.307 44.844 100.931 45.172C100.563 45.508 100.047 45.676 99.3828 45.676V44.704C99.6548 44.696 99.8868 44.66 100.079 44.596C100.279 44.532 100.455 44.4 100.607 44.2C100.767 44.008 100.919 43.72 101.063 43.336L101.183 43.036L99.0468 37.06H100.055L101.051 39.952L101.663 41.8L102.251 39.952L103.223 37.06H104.195L101.879 43.6ZM23.4174 54.924C23.0574 54.924 22.7054 54.988 22.3614 55.116C22.0254 55.244 21.6654 55.488 21.2814 55.848V60H20.2974V54.06H21.2334V55.02C21.6414 54.62 22.0134 54.34 22.3494 54.18C22.6934 54.02 23.0494 53.94 23.4174 53.94V54.924ZM28.7717 59.652C28.4117 59.828 28.0517 59.948 27.6917 60.012C27.3317 60.084 26.9997 60.12 26.6957 60.12C25.8397 60.12 25.1997 59.876 24.7757 59.388C24.3597 58.9 24.1517 58.232 24.1517 57.384V56.664C24.1517 55.84 24.3597 55.18 24.7757 54.684C25.1997 54.188 25.7957 53.94 26.5637 53.94C26.9717 53.94 27.3437 54.024 27.6797 54.192C28.0237 54.352 28.2957 54.6 28.4957 54.936C28.7037 55.264 28.8077 55.688 28.8077 56.208C28.8077 56.544 28.7597 56.928 28.6637 57.36H25.1237V57.384C25.1237 57.992 25.2477 58.452 25.4957 58.764C25.7517 59.076 26.1597 59.232 26.7197 59.232C26.9757 59.232 27.2557 59.2 27.5597 59.136C27.8717 59.072 28.1757 58.972 28.4717 58.836L28.7717 59.652ZM26.5637 54.804C26.0997 54.804 25.7477 54.956 25.5077 55.26C25.2757 55.556 25.1477 55.976 25.1237 56.52H27.8117C27.8357 56.376 27.8477 56.24 27.8477 56.112C27.8477 55.664 27.7197 55.336 27.4637 55.128C27.2157 54.912 26.9157 54.804 26.5637 54.804ZM34.8185 54.588V62.556H33.8345V59.196C33.4745 59.54 33.1425 59.78 32.8385 59.916C32.5425 60.052 32.2385 60.12 31.9265 60.12C31.3025 60.12 30.8225 59.88 30.4865 59.4C30.1505 58.92 29.9825 58.248 29.9825 57.384V56.688C29.9825 55.848 30.1905 55.18 30.6065 54.684C31.0305 54.188 31.6425 53.94 32.4425 53.94C33.2265 53.94 34.0185 54.156 34.8185 54.588ZM31.0025 57.384C31.0025 58.008 31.0985 58.468 31.2905 58.764C31.4825 59.052 31.7745 59.196 32.1665 59.196C32.3985 59.196 32.6385 59.136 32.8865 59.016C33.1345 58.896 33.4505 58.652 33.8345 58.284V55.14C33.3625 54.94 32.9185 54.84 32.5025 54.84C31.9665 54.84 31.5825 55.004 31.3505 55.332C31.1185 55.66 31.0025 56.112 31.0025 56.688V57.384ZM40.3233 60V59.16C39.9073 59.52 39.5353 59.772 39.2073 59.916C38.8793 60.052 38.5513 60.12 38.2233 60.12C37.6953 60.12 37.2913 59.948 37.0113 59.604C36.7313 59.252 36.5913 58.76 36.5913 58.128V54.06H37.5753V57.984C37.5753 58.4 37.6473 58.708 37.7913 58.908C37.9433 59.1 38.1673 59.196 38.4633 59.196C38.6873 59.196 38.9393 59.14 39.2193 59.028C39.4993 58.916 39.8473 58.692 40.2633 58.356V54.06H41.2473V60H40.3233ZM44.1705 52.608H43.0665V51.504H44.1705V52.608ZM44.1105 60H43.1265V54.06H44.1105V60ZM49.1119 54.924C48.7519 54.924 48.3999 54.988 48.0559 55.116C47.7199 55.244 47.3599 55.488 46.9759 55.848V60H45.9919V54.06H46.9279V55.02C47.3359 54.62 47.7079 54.34 48.0439 54.18C48.3879 54.02 48.7439 53.94 49.1119 53.94V54.924ZM54.4662 59.652C54.1062 59.828 53.7462 59.948 53.3862 60.012C53.0262 60.084 52.6942 60.12 52.3902 60.12C51.5342 60.12 50.8942 59.876 50.4702 59.388C50.0542 58.9 49.8462 58.232 49.8462 57.384V56.664C49.8462 55.84 50.0542 55.18 50.4702 54.684C50.8942 54.188 51.4902 53.94 52.2582 53.94C52.6662 53.94 53.0382 54.024 53.3742 54.192C53.7182 54.352 53.9902 54.6 54.1902 54.936C54.3982 55.264 54.5022 55.688 54.5022 56.208C54.5022 56.544 54.4542 56.928 54.3582 57.36H50.8182V57.384C50.8182 57.992 50.9422 58.452 51.1902 58.764C51.4462 59.076 51.8542 59.232 52.4142 59.232C52.6702 59.232 52.9502 59.2 53.2542 59.136C53.5662 59.072 53.8702 58.972 54.1662 58.836L54.4662 59.652ZM52.2582 54.804C51.7942 54.804 51.4422 54.956 51.2022 55.26C50.9702 55.556 50.8422 55.976 50.8182 56.52H53.5062C53.5302 56.376 53.5422 56.24 53.5422 56.112C53.5422 55.664 53.4142 55.336 53.1582 55.128C52.9102 54.912 52.6102 54.804 52.2582 54.804ZM57.4171 59.244C58.2171 59.244 58.6171 58.972 58.6171 58.428C58.6171 58.196 58.5451 58.012 58.4011 57.876C58.2571 57.74 57.9931 57.624 57.6091 57.528L56.9491 57.36C56.4611 57.24 56.0971 57.032 55.8571 56.736C55.6171 56.432 55.4971 56.072 55.4971 55.656C55.4971 55.352 55.5651 55.072 55.7011 54.816C55.8371 54.552 56.0531 54.34 56.3491 54.18C56.6451 54.02 57.0291 53.94 57.5011 53.94C57.8051 53.94 58.1131 53.976 58.4251 54.048C58.7451 54.112 59.0691 54.224 59.3971 54.384L59.0851 55.212C58.5011 54.948 57.9731 54.816 57.5011 54.816C56.8051 54.816 56.4571 55.076 56.4571 55.596C56.4571 55.796 56.5211 55.968 56.6491 56.112C56.7771 56.256 57.0171 56.372 57.3691 56.46L58.0291 56.628C58.5571 56.756 58.9451 56.964 59.1931 57.252C59.4411 57.54 59.5651 57.912 59.5651 58.368C59.5651 58.696 59.4931 58.996 59.3491 59.268C59.2131 59.532 58.9891 59.74 58.6771 59.892C58.3731 60.044 57.9611 60.12 57.4411 60.12C57.0971 60.12 56.7531 60.084 56.4091 60.012C56.0731 59.94 55.7251 59.824 55.3651 59.664L55.6291 58.848C55.9731 58.984 56.2851 59.084 56.5651 59.148C56.8451 59.212 57.1291 59.244 57.4171 59.244ZM66.0623 54.864C65.8383 54.864 65.5863 54.924 65.3063 55.044C65.0263 55.156 64.6743 55.38 64.2503 55.716V60H63.2663V54.06H64.2023V54.888C64.6263 54.536 65.0023 54.292 65.3303 54.156C65.6583 54.012 65.9823 53.94 66.3023 53.94C66.6783 53.94 66.9903 54.028 67.2383 54.204C67.4863 54.372 67.6703 54.616 67.7903 54.936C68.2303 54.56 68.6223 54.3 68.9663 54.156C69.3183 54.012 69.6623 53.94 69.9983 53.94C70.5263 53.94 70.9303 54.116 71.2103 54.468C71.4903 54.812 71.6303 55.304 71.6303 55.944V60H70.6463V56.088C70.6463 55.272 70.3503 54.864 69.7583 54.864C69.5343 54.864 69.2783 54.924 68.9903 55.044C68.7103 55.156 68.3583 55.38 67.9343 55.716C67.9423 55.748 67.9463 55.784 67.9463 55.824C67.9463 55.864 67.9463 55.904 67.9463 55.944V60H66.9623V56.088C66.9623 55.272 66.6623 54.864 66.0623 54.864ZM77.8 60.06C77.432 60.06 77.136 59.976 76.912 59.808C76.696 59.64 76.544 59.432 76.456 59.184C76.064 59.528 75.708 59.772 75.388 59.916C75.068 60.052 74.748 60.12 74.428 60.12C73.908 60.12 73.524 59.952 73.276 59.616C73.028 59.28 72.904 58.868 72.904 58.38C72.904 58.052 72.964 57.76 73.084 57.504C73.204 57.248 73.408 57.048 73.696 56.904C73.984 56.752 74.372 56.676 74.86 56.676C75.076 56.676 75.312 56.692 75.568 56.724C75.824 56.748 76.084 56.78 76.348 56.82V56.016C76.348 55.568 76.248 55.264 76.048 55.104C75.856 54.936 75.572 54.852 75.196 54.852C74.684 54.852 74.112 54.992 73.48 55.272L73.168 54.456C73.536 54.288 73.888 54.16 74.224 54.072C74.56 53.984 74.9 53.94 75.244 53.94C75.804 53.94 76.232 54.032 76.528 54.216C76.824 54.4 77.028 54.644 77.14 54.948C77.252 55.252 77.308 55.584 77.308 55.944V58.512C77.308 58.696 77.344 58.852 77.416 58.98C77.488 59.1 77.632 59.16 77.848 59.16H77.98V60.06H77.8ZM73.876 58.368C73.876 58.64 73.94 58.86 74.068 59.028C74.196 59.196 74.38 59.28 74.62 59.28C74.828 59.28 75.068 59.22 75.34 59.1C75.612 58.972 75.948 58.72 76.348 58.344V57.588C75.804 57.5 75.324 57.456 74.908 57.456C74.54 57.456 74.276 57.532 74.116 57.684C73.956 57.836 73.876 58.064 73.876 58.368ZM81.99 54.864C81.766 54.864 81.502 54.92 81.198 55.032C80.902 55.144 80.542 55.372 80.118 55.716V60H79.134V54.06H80.07V54.888C80.494 54.528 80.878 54.28 81.222 54.144C81.574 54.008 81.91 53.94 82.23 53.94C82.782 53.94 83.202 54.116 83.49 54.468C83.786 54.812 83.934 55.304 83.934 55.944V60H82.95V56.088C82.95 55.272 82.63 54.864 81.99 54.864ZM89.4094 60V59.16C88.9934 59.52 88.6214 59.772 88.2934 59.916C87.9654 60.052 87.6374 60.12 87.3094 60.12C86.7814 60.12 86.3774 59.948 86.0974 59.604C85.8174 59.252 85.6774 58.76 85.6774 58.128V54.06H86.6614V57.984C86.6614 58.4 86.7334 58.708 86.8774 58.908C87.0294 59.1 87.2534 59.196 87.5494 59.196C87.7734 59.196 88.0254 59.14 88.3054 59.028C88.5854 58.916 88.9334 58.692 89.3494 58.356V54.06H90.3334V60H89.4094ZM96.5566 60.06C96.1886 60.06 95.8926 59.976 95.6686 59.808C95.4526 59.64 95.3006 59.432 95.2126 59.184C94.8206 59.528 94.4646 59.772 94.1446 59.916C93.8246 60.052 93.5046 60.12 93.1846 60.12C92.6646 60.12 92.2806 59.952 92.0326 59.616C91.7846 59.28 91.6606 58.868 91.6606 58.38C91.6606 58.052 91.7206 57.76 91.8406 57.504C91.9606 57.248 92.1646 57.048 92.4526 56.904C92.7406 56.752 93.1286 56.676 93.6166 56.676C93.8326 56.676 94.0686 56.692 94.3246 56.724C94.5806 56.748 94.8406 56.78 95.1046 56.82V56.016C95.1046 55.568 95.0046 55.264 94.8046 55.104C94.6126 54.936 94.3286 54.852 93.9526 54.852C93.4406 54.852 92.8686 54.992 92.2366 55.272L91.9246 54.456C92.2926 54.288 92.6446 54.16 92.9806 54.072C93.3166 53.984 93.6566 53.94 94.0006 53.94C94.5606 53.94 94.9886 54.032 95.2846 54.216C95.5806 54.4 95.7846 54.644 95.8966 54.948C96.0086 55.252 96.0646 55.584 96.0646 55.944V58.512C96.0646 58.696 96.1006 58.852 96.1726 58.98C96.2446 59.1 96.3886 59.16 96.6046 59.16H96.7366V60.06H96.5566ZM92.6326 58.368C92.6326 58.64 92.6966 58.86 92.8246 59.028C92.9526 59.196 93.1366 59.28 93.3766 59.28C93.5846 59.28 93.8246 59.22 94.0966 59.1C94.3686 58.972 94.7046 58.72 95.1046 58.344V57.588C94.5606 57.5 94.0806 57.456 93.6646 57.456C93.2966 57.456 93.0326 57.532 92.8726 57.684C92.7126 57.836 92.6326 58.064 92.6326 58.368ZM97.8785 58.56V51.12H98.8625V58.512C98.8625 58.728 98.8945 58.892 98.9585 59.004C99.0305 59.108 99.1705 59.16 99.3785 59.16H99.5705V60.06H99.2945C98.7665 60.06 98.3985 59.92 98.1905 59.64C97.9825 59.36 97.8785 59 97.8785 58.56ZM32.4402 73.664V74.384C32.4402 75.232 32.2202 75.9 31.7802 76.388C31.3482 76.876 30.7282 77.12 29.9202 77.12C29.1202 77.12 28.5002 76.876 28.0602 76.388C27.6202 75.9 27.4002 75.232 27.4002 74.384V73.664C27.4002 72.832 27.6162 72.172 28.0482 71.684C28.4882 71.188 29.1122 70.94 29.9202 70.94C30.7282 70.94 31.3482 71.188 31.7802 71.684C32.2202 72.172 32.4402 72.832 32.4402 73.664ZM31.4202 73.664C31.4202 73.096 31.2922 72.652 31.0362 72.332C30.7802 72.004 30.4082 71.84 29.9202 71.84C29.4402 71.84 29.0682 72.004 28.8042 72.332C28.5482 72.652 28.4202 73.096 28.4202 73.664V74.384C28.4202 74.976 28.5482 75.432 28.8042 75.752C29.0682 76.072 29.4402 76.232 29.9202 76.232C30.4082 76.232 30.7802 76.072 31.0362 75.752C31.2922 75.432 31.4202 74.976 31.4202 74.384V73.664ZM36.3644 77.12C35.9164 77.12 35.4524 77.028 34.9724 76.844V79.556H33.9884V71.06H34.9244V71.9C35.2924 71.548 35.6284 71.3 35.9324 71.156C36.2364 71.012 36.5484 70.94 36.8684 70.94C37.5004 70.94 37.9844 71.18 38.3204 71.66C38.6644 72.14 38.8364 72.816 38.8364 73.688V74.384C38.8364 75.216 38.6244 75.88 38.2004 76.376C37.7844 76.872 37.1724 77.12 36.3644 77.12ZM36.6284 71.864C36.3964 71.864 36.1564 71.924 35.9084 72.044C35.6604 72.164 35.3484 72.408 34.9724 72.776V75.944C35.2044 76.048 35.4284 76.124 35.6444 76.172C35.8604 76.212 36.0724 76.232 36.2804 76.232C36.8244 76.232 37.2164 76.068 37.4564 75.74C37.6964 75.404 37.8164 74.952 37.8164 74.384V73.688C37.8164 73.064 37.7164 72.604 37.5164 72.308C37.3244 72.012 37.0284 71.864 36.6284 71.864ZM43.6804 76.784C43.2324 77.008 42.7564 77.12 42.2524 77.12C41.8204 77.12 41.4804 77.032 41.2324 76.856C40.9924 76.68 40.8204 76.444 40.7164 76.148C40.6204 75.852 40.5724 75.524 40.5724 75.164V71.924H39.5404V71.06H40.5724V69.404H41.5564V71.06H43.5004V71.924H41.5564V75.128C41.5564 75.544 41.6244 75.832 41.7604 75.992C41.9044 76.144 42.1244 76.22 42.4204 76.22C42.5644 76.22 42.7124 76.204 42.8644 76.172C43.0244 76.132 43.1964 76.068 43.3804 75.98L43.6804 76.784ZM45.779 69.608H44.675V68.504H45.779V69.608ZM45.719 77H44.735V71.06H45.719V77ZM50.3965 71.864C50.1725 71.864 49.9205 71.924 49.6405 72.044C49.3605 72.156 49.0085 72.38 48.5845 72.716V77H47.6005V71.06H48.5365V71.888C48.9605 71.536 49.3365 71.292 49.6645 71.156C49.9925 71.012 50.3165 70.94 50.6365 70.94C51.0125 70.94 51.3245 71.028 51.5725 71.204C51.8205 71.372 52.0045 71.616 52.1245 71.936C52.5645 71.56 52.9565 71.3 53.3005 71.156C53.6525 71.012 53.9965 70.94 54.3325 70.94C54.8605 70.94 55.2645 71.116 55.5445 71.468C55.8245 71.812 55.9645 72.304 55.9645 72.944V77H54.9805V73.088C54.9805 72.272 54.6845 71.864 54.0925 71.864C53.8685 71.864 53.6125 71.924 53.3245 72.044C53.0445 72.156 52.6925 72.38 52.2685 72.716C52.2765 72.748 52.2805 72.784 52.2805 72.824C52.2805 72.864 52.2805 72.904 52.2805 72.944V77H51.2965V73.088C51.2965 72.272 50.9965 71.864 50.3965 71.864ZM58.8341 69.608H57.7301V68.504H58.8341V69.608ZM58.7741 77H57.7901V71.06H58.7741V77ZM64.1476 76.148V77H60.0196V76.232L62.8636 71.924H60.1396V71.06H64.0276V71.84L61.1716 76.148H64.1476ZM69.7049 77.06C69.3369 77.06 69.0409 76.976 68.8169 76.808C68.6009 76.64 68.4489 76.432 68.3609 76.184C67.9689 76.528 67.6129 76.772 67.2929 76.916C66.9729 77.052 66.6529 77.12 66.3329 77.12C65.8129 77.12 65.4289 76.952 65.1809 76.616C64.9329 76.28 64.8089 75.868 64.8089 75.38C64.8089 75.052 64.8689 74.76 64.9889 74.504C65.1089 74.248 65.3129 74.048 65.6009 73.904C65.8889 73.752 66.2769 73.676 66.7649 73.676C66.9809 73.676 67.2169 73.692 67.4729 73.724C67.7289 73.748 67.9889 73.78 68.2529 73.82V73.016C68.2529 72.568 68.1529 72.264 67.9529 72.104C67.7609 71.936 67.4769 71.852 67.1009 71.852C66.5889 71.852 66.0169 71.992 65.3849 72.272L65.0729 71.456C65.4409 71.288 65.7929 71.16 66.1289 71.072C66.4649 70.984 66.8049 70.94 67.1489 70.94C67.7089 70.94 68.1369 71.032 68.4329 71.216C68.7289 71.4 68.9329 71.644 69.0449 71.948C69.1569 72.252 69.2129 72.584 69.2129 72.944V75.512C69.2129 75.696 69.2489 75.852 69.3209 75.98C69.3929 76.1 69.5369 76.16 69.7529 76.16H69.8849V77.06H69.7049ZM65.7809 75.368C65.7809 75.64 65.8449 75.86 65.9729 76.028C66.1009 76.196 66.2849 76.28 66.5249 76.28C66.7329 76.28 66.9729 76.22 67.2449 76.1C67.5169 75.972 67.8529 75.72 68.2529 75.344V74.588C67.7089 74.5 67.2289 74.456 66.8129 74.456C66.4449 74.456 66.1809 74.532 66.0209 74.684C65.8609 74.836 65.7809 75.064 65.7809 75.368ZM74.3029 76.784C73.8549 77.008 73.3789 77.12 72.8749 77.12C72.4429 77.12 72.1029 77.032 71.8549 76.856C71.6149 76.68 71.4429 76.444 71.3389 76.148C71.2429 75.852 71.1949 75.524 71.1949 75.164V71.924H70.1629V71.06H71.1949V69.404H72.1789V71.06H74.1229V71.924H72.1789V75.128C72.1789 75.544 72.2469 75.832 72.3829 75.992C72.5269 76.144 72.7469 76.22 73.0429 76.22C73.1869 76.22 73.3349 76.204 73.4869 76.172C73.6469 76.132 73.8189 76.068 74.0029 75.98L74.3029 76.784ZM76.4015 69.608H75.2975V68.504H76.4015V69.608ZM76.3415 77H75.3575V71.06H76.3415V77ZM82.9269 73.664V74.384C82.9269 75.232 82.7069 75.9 82.2669 76.388C81.8349 76.876 81.2149 77.12 80.4069 77.12C79.6069 77.12 78.9869 76.876 78.5469 76.388C78.1069 75.9 77.8869 75.232 77.8869 74.384V73.664C77.8869 72.832 78.1029 72.172 78.5349 71.684C78.9749 71.188 79.5989 70.94 80.4069 70.94C81.2149 70.94 81.8349 71.188 82.2669 71.684C82.7069 72.172 82.9269 72.832 82.9269 73.664ZM81.9069 73.664C81.9069 73.096 81.7789 72.652 81.5229 72.332C81.2669 72.004 80.8949 71.84 80.4069 71.84C79.9269 71.84 79.5549 72.004 79.2909 72.332C79.0349 72.652 78.9069 73.096 78.9069 73.664V74.384C78.9069 74.976 79.0349 75.432 79.2909 75.752C79.5549 76.072 79.9269 76.232 80.4069 76.232C80.8949 76.232 81.2669 76.072 81.5229 75.752C81.7789 75.432 81.9069 74.976 81.9069 74.384V73.664ZM87.3311 71.864C87.1071 71.864 86.8431 71.92 86.5391 72.032C86.2431 72.144 85.8831 72.372 85.4591 72.716V77H84.4751V71.06H85.4111V71.888C85.8351 71.528 86.2191 71.28 86.5631 71.144C86.9151 71.008 87.2511 70.94 87.5711 70.94C88.1231 70.94 88.5431 71.116 88.8311 71.468C89.1271 71.812 89.2751 72.304 89.2751 72.944V77H88.2911V73.088C88.2911 72.272 87.9711 71.864 87.3311 71.864ZM91.7152 77H90.6112V75.908H91.7152V77Z" fill="black"/>
</svg>
